<svg xmlns="http://www.w3.org/2000/svg" width="300" height="300" viewBox="0 0 300 300"><g id="Layer_1" data-name="Layer 1"><rect width="300" height="300" fill="#e6e7e8"/></g><g id="Layer_3" data-name="Layer 3"><path d="M74.7,38V18.2h6.1a10.5,10.5,0,0,1,4.7,1.1,8.8,8.8,0,0,1,3.2,3.4,11,11,0,0,1,1.1,4.9v.9a10.2,10.2,0,0,1-1.1,5,8.5,8.5,0,0,1-3.2,3.3A9.4,9.4,0,0,1,80.8,38Zm4.1-16.5V34.7h1.9a4.3,4.3,0,0,0,3.7-1.6,7,7,0,0,0,1.3-4.4V27.6A7,7,0,0,0,84.4,23a4.3,4.3,0,0,0-3.6-1.5Z"/><path d="M104.7,29.4H96.9v5.3h9.2V38H92.8V18.2h13.3v3.3H96.9v4.7h7.8Z"/><path d="M118.8,32.8a2,2,0,0,0-.9-1.8,11.7,11.7,0,0,0-2.9-1.3,23.5,23.5,0,0,1-3.4-1.4c-2.2-1.2-3.3-2.8-3.3-4.9a4.7,4.7,0,0,1,.9-2.8,5.4,5.4,0,0,1,2.6-2,9.2,9.2,0,0,1,3.8-.7,7.9,7.9,0,0,1,3.8.8,5.8,5.8,0,0,1,2.5,2.1,5.3,5.3,0,0,1,1,3.2h-4.1a2.6,2.6,0,0,0-.9-2.1,3.6,3.6,0,0,0-2.4-.8,3.7,3.7,0,0,0-2.3.7,1.8,1.8,0,0,0-.8,1.6,2.1,2.1,0,0,0,.9,1.7,14.1,14.1,0,0,0,2.9,1.2,13.4,13.4,0,0,1,5.1,2.6,5.3,5.3,0,0,1,1.6,3.9,4.8,4.8,0,0,1-2,4,8.2,8.2,0,0,1-5.2,1.5,9.6,9.6,0,0,1-4.2-.9,6.6,6.6,0,0,1-2.9-2.3,6,6,0,0,1-.9-3.3h4.1c0,2.1,1.3,3.2,3.9,3.2a3.6,3.6,0,0,0,2.2-.6A1.8,1.8,0,0,0,118.8,32.8Z"/><path d="M130,38h-4.1V18.2H130Z"/><path d="M149.4,35.5a6.4,6.4,0,0,1-3.1,2,12.3,12.3,0,0,1-4.4.8,8.2,8.2,0,0,1-7.6-4.4,11.2,11.2,0,0,1-1-5V27.5a11.3,11.3,0,0,1,1-5.1,6.9,6.9,0,0,1,2.9-3.4,8.7,8.7,0,0,1,4.4-1.1,8.4,8.4,0,0,1,5.5,1.7,6.9,6.9,0,0,1,2.3,4.9h-3.9a3.9,3.9,0,0,0-1.2-2.5,4.2,4.2,0,0,0-2.6-.8,3.5,3.5,0,0,0-3.2,1.6,8,8,0,0,0-1.1,4.6v1.3a7.8,7.8,0,0,0,1.2,4.7,4.1,4.1,0,0,0,3.5,1.6,4.5,4.5,0,0,0,3.3-1V30.6h-3.8v-3h7.8Z"/><path d="M168.9,38h-4.1l-8-13.1V38h-4V18.2h4l8,13v-13h4.1Z"/><path d="M184.4,29.4h-7.9v5.3h9.2V38H172.4V18.2h13.3v3.3h-9.2v4.7h7.9Z"/><path d="M195.5,30.7h-3.3V38h-4.1V18.2h7.4a8.7,8.7,0,0,1,5.4,1.5,5.4,5.4,0,0,1,1.9,4.5,5.8,5.8,0,0,1-.9,3.3,5.2,5.2,0,0,1-2.6,2.2l4.3,8.1V38h-4.4Zm-3.3-3.3h3.3a3.2,3.2,0,0,0,2.4-.8,2.5,2.5,0,0,0,.8-2.1,2.6,2.6,0,0,0-.8-2.2,2.9,2.9,0,0,0-2.4-.8h-3.3Z"/><path d="M225.4,23.4a4.7,4.7,0,0,1-.8,2.6,5.5,5.5,0,0,1-1.9,1.8,5.1,5.1,0,0,1,2.2,1.9,4.8,4.8,0,0,1,.9,2.9,5.1,5.1,0,0,1-1.8,4.1,8.3,8.3,0,0,1-9.8,0,5.1,5.1,0,0,1-1.8-4.1,5.5,5.5,0,0,1,.8-2.9,6,6,0,0,1,2.3-1.9,7,7,0,0,1-2-1.8,5.6,5.6,0,0,1-.7-2.6,5.1,5.1,0,0,1,1.7-4,6.7,6.7,0,0,1,4.6-1.5,6.9,6.9,0,0,1,4.6,1.5A5.1,5.1,0,0,1,225.4,23.4Zm-3.6,8.9a2.6,2.6,0,0,0-2.7-2.9,2.6,2.6,0,0,0-2,.8,2.9,2.9,0,0,0-.8,2.1,2.8,2.8,0,0,0,.8,2,2.9,2.9,0,0,0,4,0A2.6,2.6,0,0,0,221.8,32.3Zm-.4-8.7a2.6,2.6,0,0,0-.6-1.8,2.1,2.1,0,0,0-1.7-.7,2.4,2.4,0,0,0-1.7.6,2.9,2.9,0,0,0-.6,1.9,2.7,2.7,0,0,0,.6,1.9,2.2,2.2,0,0,0,3.4,0A2.7,2.7,0,0,0,221.4,23.6Z"/><path d="M19.2,78.8h-.7a2,2,0,0,0-2,1.2v6H15.1V77.5h1.4v1a2.4,2.4,0,0,1,2-1.1h.7Z"/><path d="M23.9,86.1A3.4,3.4,0,0,1,21.1,85,4.1,4.1,0,0,1,20,82v-.3a5.1,5.1,0,0,1,.5-2.2,3.4,3.4,0,0,1,1.3-1.6,4.1,4.1,0,0,1,1.9-.5,3.1,3.1,0,0,1,2.6,1.1,4.6,4.6,0,0,1,.9,3.1v.6H21.4a3.3,3.3,0,0,0,.8,2,2.1,2.1,0,0,0,1.7.8,2.3,2.3,0,0,0,1.3-.3,4.3,4.3,0,0,0,1-.9l.9.7A3.6,3.6,0,0,1,23.9,86.1Zm-.2-7.5a2,2,0,0,0-1.5.6,3,3,0,0,0-.7,1.8h4.2a2.2,2.2,0,0,0-.6-1.7A1.7,1.7,0,0,0,23.7,78.6Z"/><path d="M31.5,84l2.1-6.5h1.5l-3,8.5H31l-3.1-8.5h1.5Z"/><path d="M36.5,75.3a1.4,1.4,0,0,1,.2-.6.7.7,0,0,1,.6-.2.8.8,0,0,1,.7.2,1,1,0,0,1,0,1.2l-.7.2-.6-.2A1.4,1.4,0,0,1,36.5,75.3ZM38.1,86H36.6V77.5h1.5Z"/><path d="M43.9,86.1A3.4,3.4,0,0,1,41.1,85,4.1,4.1,0,0,1,40,82v-.3a5.1,5.1,0,0,1,.5-2.2,3.4,3.4,0,0,1,1.3-1.6,4.1,4.1,0,0,1,1.9-.5,3.1,3.1,0,0,1,2.6,1.1,4.6,4.6,0,0,1,.9,3.1v.6H41.4a3.3,3.3,0,0,0,.8,2A2.2,2.2,0,0,0,44,85a2.8,2.8,0,0,0,1.3-.3,7.6,7.6,0,0,0,.9-.9l.9.7A3.5,3.5,0,0,1,43.9,86.1Zm-.2-7.5a2,2,0,0,0-1.5.6,3,3,0,0,0-.7,1.8h4.2a2.2,2.2,0,0,0-.6-1.7A1.7,1.7,0,0,0,43.7,78.6Z"/><path d="M56.3,84,58,77.5h1.4L56.9,86H55.8l-2.1-6.4-2,6.4H50.5l-2.4-8.5h1.4l1.7,6.4,2-6.4h1.1Z"/><path d="M65.1,87H63.9l4.7-12.4h1.3Z"/><path d="M76.9,77.5V87c0,1.6-.8,2.4-2.2,2.4h-.9V88.1h.6a1,1,0,0,0,.8-.3,2,2,0,0,0,.2-.9V77.5Zm-1.6-2.2a1.4,1.4,0,0,1,.2-.6c.1-.2.3-.2.6-.2a.8.8,0,0,1,.7.2,1,1,0,0,1,0,1.2l-.7.2-.6-.2A1.4,1.4,0,0,1,75.3,75.3Z"/><path d="M78.8,81.7a5.1,5.1,0,0,1,.5-2.2,3.6,3.6,0,0,1,1.4-1.6,3.9,3.9,0,0,1,2-.5,3.4,3.4,0,0,1,2.7,1.2,4.2,4.2,0,0,1,1.1,3.2h0a4.2,4.2,0,0,1-.5,2.2,3.7,3.7,0,0,1-1.3,1.5,3.5,3.5,0,0,1-2,.5A3.8,3.8,0,0,1,79.9,85a4.8,4.8,0,0,1-1.1-3.2Zm1.5.2a3.8,3.8,0,0,0,.6,2.2,2.1,2.1,0,0,0,1.8.9,2,2,0,0,0,1.7-.9,3.6,3.6,0,0,0,.7-2.4,3.5,3.5,0,0,0-.7-2.3,2.1,2.1,0,0,0-1.7-.8,2.3,2.3,0,0,0-1.8.8A4.4,4.4,0,0,0,80.3,81.9Z"/><path d="M95.5,81.9a5.2,5.2,0,0,1-.9,3.1,2.8,2.8,0,0,1-2.4,1.1A2.8,2.8,0,0,1,89.7,85v1H88.3V74h1.5v4.5a2.8,2.8,0,0,1,2.4-1.1,3,3,0,0,1,2.4,1.1,5.3,5.3,0,0,1,.9,3.2ZM94,81.7a4.6,4.6,0,0,0-.5-2.3,2.1,2.1,0,0,0-1.7-.8,2.2,2.2,0,0,0-2,1.3v3.7a2,2,0,0,0,2,1.3,1.9,1.9,0,0,0,1.7-.8A4.8,4.8,0,0,0,94,81.7Z"/><path d="M22.6,122.4l1.6-6.5h1.4l-2.4,8.5H22L20,118l-2,6.4H16.8l-2.5-8.5h1.5l1.6,6.4,2-6.4h1.2Z"/><path d="M30.6,124.5a3.6,3.6,0,0,1-2.8-1.1,4,4,0,0,1-1-3v-.3a5.1,5.1,0,0,1,.4-2.2,4.4,4.4,0,0,1,1.4-1.6,3.7,3.7,0,0,1,1.8-.5,3,3,0,0,1,2.6,1.1,4.6,4.6,0,0,1,.9,3.1v.6H28.2a3.2,3.2,0,0,0,.7,2,2.5,2.5,0,0,0,1.8.8,2.8,2.8,0,0,0,1.3-.3,2.6,2.6,0,0,0,.9-.9l.9.7A3.5,3.5,0,0,1,30.6,124.5Zm-.2-7.5a2,2,0,0,0-1.4.6,3,3,0,0,0-.8,1.8h4.3a3.4,3.4,0,0,0-.6-1.7A2,2,0,0,0,30.4,117Z"/><path d="M42.8,120.3a5.2,5.2,0,0,1-.9,3.1,2.8,2.8,0,0,1-2.4,1.1,2.8,2.8,0,0,1-2.5-1.1v1H35.6v-12H37v4.5a2.8,2.8,0,0,1,2.5-1.1,3,3,0,0,1,2.4,1.1,5.3,5.3,0,0,1,.9,3.2Zm-1.5-.2a3.7,3.7,0,0,0-.6-2.3,1.8,1.8,0,0,0-1.6-.8,2.3,2.3,0,0,0-2.1,1.3V122a2.3,2.3,0,0,0,2.1,1.3,1.7,1.7,0,0,0,1.6-.8A3.8,3.8,0,0,0,41.3,120.1Z"/><path d="M48.8,125.4H47.6L52.3,113h1.3Z"/><path d="M66.2,120.3a5.9,5.9,0,0,1-.8,3.1,2.8,2.8,0,0,1-2.4,1.1,2.8,2.8,0,0,1-2.5-1.1v1H59.1v-12h1.4v4.5a2.8,2.8,0,0,1,2.4-1.1,3.1,3.1,0,0,1,2.5,1.1,6.1,6.1,0,0,1,.8,3.2Zm-1.4-.2a3.7,3.7,0,0,0-.6-2.3,1.9,1.9,0,0,0-1.6-.8,2.2,2.2,0,0,0-2.1,1.3V122a2.3,2.3,0,0,0,2.1,1.3,1.7,1.7,0,0,0,1.6-.8A3.8,3.8,0,0,0,64.8,120.1Z"/><path d="M72.1,117.2h-.7a1.9,1.9,0,0,0-1.9,1.2v6H68.1v-8.5h1.4v1a2.3,2.3,0,0,1,2-1.1h.6Z"/><path d="M78.4,124.4a2,2,0,0,1-.2-.9,3.3,3.3,0,0,1-2.4,1,3,3,0,0,1-2.1-.7,2.2,2.2,0,0,1-.8-1.8,2.6,2.6,0,0,1,1-2,4.8,4.8,0,0,1,2.9-.7h1.4v-.7a1.7,1.7,0,0,0-.5-1.2,1.7,1.7,0,0,0-1.3-.5,2.5,2.5,0,0,0-1.3.4,1.2,1.2,0,0,0-.6,1H73.1a1.9,1.9,0,0,1,.4-1.2,3.4,3.4,0,0,1,1.3-1,4.3,4.3,0,0,1,1.7-.3,3.1,3.1,0,0,1,2.2.7,2.5,2.5,0,0,1,.9,2v3.9a5,5,0,0,0,.3,1.9H78.4ZM76,123.3a2.2,2.2,0,0,0,1.3-.4,2,2,0,0,0,.9-.9v-1.7H77c-1.7,0-2.6.5-2.6,1.5a1.2,1.2,0,0,0,.4,1.1A1.6,1.6,0,0,0,76,123.3Z"/><path d="M83.2,115.9V117a3,3,0,0,1,2.5-1.2q2.7,0,2.7,3v5.6H87.1v-5.6a2.6,2.6,0,0,0-.4-1.4,2.2,2.2,0,0,0-1.3-.4,2,2,0,0,0-1.3.4,2.7,2.7,0,0,0-.8,1v6H81.9v-8.5Z"/><path d="M90.3,120.1a5,5,0,0,1,1-3.1,2.9,2.9,0,0,1,2.4-1.2,2.6,2.6,0,0,1,2.3,1v-4.4h1.5v12H96.1v-.9a3,3,0,0,1-2.4,1,2.9,2.9,0,0,1-2.4-1.2,5,5,0,0,1-1-3.1Zm1.5.2a3.6,3.6,0,0,0,.6,2.2,1.9,1.9,0,0,0,1.6.8,2.1,2.1,0,0,0,2-1.2v-3.9a2.1,2.1,0,0,0-2-1.2,1.9,1.9,0,0,0-1.6.8A4.4,4.4,0,0,0,91.8,120.3Z"/><path d="M99.7,113.7a1.4,1.4,0,0,1,.2-.6.8.8,0,0,1,.7-.2c.3,0,.5,0,.6.2a1,1,0,0,1,0,1.2.8.8,0,0,1-.6.2l-.7-.2A1.4,1.4,0,0,1,99.7,113.7Zm1.6,10.7H99.8v-8.5h1.5Z"/><path d="M105,115.9V117a3.2,3.2,0,0,1,2.5-1.2c1.8,0,2.7,1,2.8,3v5.6h-1.5v-5.6a2,2,0,0,0-.4-1.4,2.2,2.2,0,0,0-1.3-.4,1.6,1.6,0,0,0-1.2.4,2.2,2.2,0,0,0-.9,1v6h-1.4v-8.5Z"/><path d="M112.1,120.1a5.3,5.3,0,0,1,.9-3.2,3,3,0,0,1,2.4-1.1,2.6,2.6,0,0,1,2.4,1.1v-1h1.3v8.3a3.7,3.7,0,0,1-.9,2.6,4,4,0,0,1-2.7.9,3.3,3.3,0,0,1-1.7-.4,3,3,0,0,1-1.4-1l.8-.9a2.5,2.5,0,0,0,2.2,1.1,2.4,2.4,0,0,0,1.7-.6,2.1,2.1,0,0,0,.6-1.6v-.8a3,3,0,0,1-2.4,1,3,3,0,0,1-2.4-1.1A5.4,5.4,0,0,1,112.1,120.1Zm1.4.2a3.6,3.6,0,0,0,.6,2.2,2.1,2.1,0,0,0,1.7.8,2.2,2.2,0,0,0,2-1.2v-3.9a2.2,2.2,0,0,0-2-1.2,2.1,2.1,0,0,0-1.7.8A4.4,4.4,0,0,0,113.5,120.3Z"/><path d="M125.7,125.4h-1.3l4.8-12.4h1.2Z"/><path d="M135.9,113.7a1.4,1.4,0,0,1,.2-.6.8.8,0,0,1,.7-.2c.3,0,.5,0,.6.2a1,1,0,0,1,0,1.2l-.6.2-.7-.2A1.4,1.4,0,0,1,135.9,113.7Zm1.6,10.7H136v-8.5h1.5Z"/><path d="M141.4,124.4h-1.5v-12h1.5Z"/><path d="M145.3,124.4h-1.5v-12h1.5Z"/><path d="M152.8,123.6a3.3,3.3,0,0,1-2.5.9,2.4,2.4,0,0,1-2-.7,3.5,3.5,0,0,1-.8-2.4v-5.5H149v5.5c0,1.3.5,1.9,1.5,1.9a2.3,2.3,0,0,0,2.3-1.2v-6.2h1.4v8.5h-1.4Z"/><path d="M161.3,122.1a1.2,1.2,0,0,0-.4-.9,3.7,3.7,0,0,0-1.6-.5l-1.7-.6a2.7,2.7,0,0,1-1-.8,1.7,1.7,0,0,1-.3-1,2.3,2.3,0,0,1,.9-1.8,3.3,3.3,0,0,1,2.3-.7,3.5,3.5,0,0,1,2.3.7,2.5,2.5,0,0,1,.9,1.9h-1.5a1.1,1.1,0,0,0-.5-1,1.6,1.6,0,0,0-1.2-.4,2.3,2.3,0,0,0-1.3.3,1,1,0,0,0-.4.9.8.8,0,0,0,.4.8l1.5.5,1.7.6a2.1,2.1,0,0,1,1,.8,1.5,1.5,0,0,1,.4,1.1,2.3,2.3,0,0,1-.9,1.9,4.5,4.5,0,0,1-2.4.6,4.8,4.8,0,0,1-1.8-.3,4,4,0,0,1-1.2-1,2.4,2.4,0,0,1-.5-1.4h1.5a1.1,1.1,0,0,0,.6,1.1,2,2,0,0,0,1.4.5,1.8,1.8,0,0,0,1.3-.4A1.1,1.1,0,0,0,161.3,122.1Z"/><path d="M166.6,113.9v2h1.6v1.2h-1.6v5.2a1.9,1.9,0,0,0,.2.8l.7.2h.7v1.2h-1.1a2,2,0,0,1-1.5-.5,2.9,2.9,0,0,1-.4-1.7v-5.2h-1.6v-1.2h1.6v-2Z"/><path d="M174,117.2h-.8a2,2,0,0,0-1.9,1.2v6h-1.4v-8.5h1.4v1a2.3,2.3,0,0,1,2-1.1h.7Z"/><path d="M180.2,124.4a2,2,0,0,1-.2-.9,3.3,3.3,0,0,1-2.4,1,3,3,0,0,1-2.1-.7,2.2,2.2,0,0,1-.8-1.8,2.6,2.6,0,0,1,1-2,4.8,4.8,0,0,1,2.9-.7H180v-.7a1.7,1.7,0,0,0-.5-1.2,1.7,1.7,0,0,0-1.3-.5,2.5,2.5,0,0,0-1.3.4,1.1,1.1,0,0,0-.5,1h-1.5a1.9,1.9,0,0,1,.4-1.2,4.5,4.5,0,0,1,1.3-1,4.3,4.3,0,0,1,1.7-.3,3.1,3.1,0,0,1,2.2.7,2.5,2.5,0,0,1,.9,2v3.9a5,5,0,0,0,.3,1.9h-1.5Zm-2.4-1.1a2.2,2.2,0,0,0,1.3-.4,2,2,0,0,0,.9-.9v-1.7h-1.2c-1.7,0-2.6.5-2.6,1.5a1.2,1.2,0,0,0,.4,1.1A1.6,1.6,0,0,0,177.8,123.3Z"/><path d="M185.6,113.9v2h1.6v1.2h-1.6v5.2a1.9,1.9,0,0,0,.2.8,1.5,1.5,0,0,0,.8.2h.6v1.2h-1.1a1.6,1.6,0,0,1-1.4-.5,2.9,2.9,0,0,1-.5-1.7v-5.2h-1.6v-1.2h1.6v-2Z"/><path d="M188.9,113.7a1.4,1.4,0,0,1,.2-.6.8.8,0,0,1,.7-.2c.2,0,.5,0,.6.2a1,1,0,0,1,0,1.2l-.6.2-.7-.2A1.4,1.4,0,0,1,188.9,113.7Zm1.6,10.7H189v-8.5h1.5Z"/><path d="M192.4,120.1a5.1,5.1,0,0,1,.5-2.2,4.2,4.2,0,0,1,1.3-1.6,4.6,4.6,0,0,1,2-.5A3.5,3.5,0,0,1,199,117a4.6,4.6,0,0,1,1.1,3.2h0a5.4,5.4,0,0,1-.5,2.2,3.7,3.7,0,0,1-1.3,1.5,3.6,3.6,0,0,1-2.1.5,3.7,3.7,0,0,1-2.7-1.1,4.8,4.8,0,0,1-1.1-3.2Zm1.5.2a3.8,3.8,0,0,0,.6,2.2,2,2,0,0,0,1.7.9,2,2,0,0,0,1.8-.9,4.3,4.3,0,0,0,.6-2.4,4.1,4.1,0,0,0-.6-2.3,2.3,2.3,0,0,0-1.8-.8,2.1,2.1,0,0,0-1.7.8A4.4,4.4,0,0,0,193.9,120.3Z"/><path d="M203.3,115.9V117a3.2,3.2,0,0,1,2.6-1.2q2.5,0,2.7,3v5.6h-1.5v-5.6a2,2,0,0,0-.4-1.4,2.2,2.2,0,0,0-1.3-.4,1.6,1.6,0,0,0-1.2.4,2,2,0,0,0-.8,1v6h-1.5v-8.5Z"/><path d="M18.5,161.8a1.9,1.9,0,0,0,1.3-.5,1.9,1.9,0,0,0,.7-1.2h1.3a1.9,1.9,0,0,1-.5,1.4,4.3,4.3,0,0,1-1.2,1.1,4.1,4.1,0,0,1-1.6.3,3.4,3.4,0,0,1-2.8-1.1,5.1,5.1,0,0,1-1-3.2v-.2a5.1,5.1,0,0,1,.5-2.2,3.7,3.7,0,0,1,1.3-1.5,3.9,3.9,0,0,1,2-.5,3.6,3.6,0,0,1,2.3.8,2.7,2.7,0,0,1,1,2.2H20.5a2.6,2.6,0,0,0-.6-1.3,1.9,1.9,0,0,0-1.4-.5,1.8,1.8,0,0,0-1.7.8,3.7,3.7,0,0,0-.6,2.3v.2a3.7,3.7,0,0,0,.6,2.3A2,2,0,0,0,18.5,161.8Z"/><path d="M23.1,158.5a4,4,0,0,1,.5-2.2,4.2,4.2,0,0,1,1.3-1.6,4.6,4.6,0,0,1,2-.5,3.5,3.5,0,0,1,2.8,1.2,4.6,4.6,0,0,1,1.1,3.2h0a5.4,5.4,0,0,1-.5,2.2,4.7,4.7,0,0,1-1.3,1.5,3.6,3.6,0,0,1-2.1.5,3.7,3.7,0,0,1-2.7-1.1,4.3,4.3,0,0,1-1.1-3.2Zm1.4.2a3.8,3.8,0,0,0,.7,2.2,2,2,0,0,0,1.7.9,2,2,0,0,0,1.8-.9,4.3,4.3,0,0,0,.6-2.4,4.1,4.1,0,0,0-.6-2.3,2.3,2.3,0,0,0-1.8-.8,2.1,2.1,0,0,0-1.7.8A4.4,4.4,0,0,0,24.5,158.7Z"/><path d="M34,154.3v1.1a3.2,3.2,0,0,1,2.5-1.2q2.7,0,2.7,3v5.6H37.8v-5.6a2,2,0,0,0-.4-1.4,2.2,2.2,0,0,0-1.3-.4,1.6,1.6,0,0,0-1.2.4,2.2,2.2,0,0,0-.9,1v6H32.6v-8.5Z"/><path d="M43.4,152.3v2H45v1.2H43.4v5.2a1.9,1.9,0,0,0,.2.8l.7.2H45v1.2H43.9a1.8,1.8,0,0,1-1.5-.5,2.9,2.9,0,0,1-.5-1.7v-5.2H40.4v-1.2h1.5v-2Z"/><path d="M46.7,152.1a.7.7,0,0,1,.2-.6c.1-.2.3-.2.6-.2s.5,0,.6.2a.7.7,0,0,1,0,1.2l-.6.2-.6-.2A.7.7,0,0,1,46.7,152.1Zm1.5,10.7H46.8v-8.5h1.4Z"/><path d="M51.9,154.3v1.1a3.2,3.2,0,0,1,2.6-1.2q2.7,0,2.7,3v5.6H55.7v-5.6a2,2,0,0,0-.4-1.4,2.2,2.2,0,0,0-1.3-.4,1.9,1.9,0,0,0-1.2.4,2.7,2.7,0,0,0-.8,1v6H50.5v-8.5Z"/><path d="M64.6,162a3.3,3.3,0,0,1-2.5.9,2.8,2.8,0,0,1-2.1-.7,4,4,0,0,1-.7-2.4v-5.5h1.5v5.5c0,1.3.5,1.9,1.5,1.9a2.1,2.1,0,0,0,2.2-1.2v-6.2H66v8.5H64.6Z"/><path d="M67.8,158.5a5.1,5.1,0,0,1,.5-2.2,4.2,4.2,0,0,1,1.3-1.6,4.6,4.6,0,0,1,2-.5,3.5,3.5,0,0,1,2.8,1.2,4.6,4.6,0,0,1,1.1,3.2h0a5.4,5.4,0,0,1-.5,2.2,3.7,3.7,0,0,1-1.3,1.5,3.6,3.6,0,0,1-2.1.5,3.7,3.7,0,0,1-2.7-1.1,4.8,4.8,0,0,1-1.1-3.2Zm1.5.2a3.8,3.8,0,0,0,.6,2.2,2,2,0,0,0,1.7.9,2,2,0,0,0,1.8-.9,4.3,4.3,0,0,0,.6-2.4,4.1,4.1,0,0,0-.6-2.3,2.3,2.3,0,0,0-1.8-.8,2.1,2.1,0,0,0-1.7.8A4.4,4.4,0,0,0,69.3,158.7Z"/><path d="M82.5,162a3.2,3.2,0,0,1-2.5.9,2.6,2.6,0,0,1-2-.7,3.4,3.4,0,0,1-.7-2.4v-5.5h1.4v5.5c0,1.3.5,1.9,1.6,1.9a2.2,2.2,0,0,0,2.2-1.2v-6.2h1.4v8.5H82.6Z"/><path d="M91,160.5a1.2,1.2,0,0,0-.4-.9,3.7,3.7,0,0,0-1.5-.5l-1.8-.6a2.4,2.4,0,0,1-.9-.8,1.7,1.7,0,0,1-.3-1,2.5,2.5,0,0,1,.8-1.8,4.1,4.1,0,0,1,4.6,0,2.5,2.5,0,0,1,.9,1.9H91a1.4,1.4,0,0,0-.5-1,2,2,0,0,0-1.3-.4,2.1,2.1,0,0,0-1.2.3,1.1,1.1,0,0,0-.5.9.8.8,0,0,0,.4.8l1.5.5,1.8.6a2.7,2.7,0,0,1,1,.8,2,2,0,0,1,.3,1.1,2.3,2.3,0,0,1-.9,1.9,4.3,4.3,0,0,1-2.4.6,5.7,5.7,0,0,1-1.8-.3,4,4,0,0,1-1.2-1,2.3,2.3,0,0,1-.4-1.4h1.4a1.1,1.1,0,0,0,.6,1.1,2.2,2.2,0,0,0,1.4.5,2.1,2.1,0,0,0,1.4-.4A1,1,0,0,0,91,160.5Z"/><path d="M99.9,162.8H98.5v-12h1.4Z"/><path d="M105.7,162.9a3.6,3.6,0,0,1-2.8-1.1,4,4,0,0,1-1-3v-.3a5.1,5.1,0,0,1,.4-2.2,4.4,4.4,0,0,1,1.4-1.6,4.1,4.1,0,0,1,1.8-.5,3,3,0,0,1,2.6,1.1,4.6,4.6,0,0,1,.9,3.1v.6h-5.7a3.2,3.2,0,0,0,.7,2,2.5,2.5,0,0,0,1.8.8,2.8,2.8,0,0,0,1.3-.3,2.6,2.6,0,0,0,.9-.9l.9.7A3.5,3.5,0,0,1,105.7,162.9Zm-.2-7.5a2,2,0,0,0-1.4.6,3,3,0,0,0-.8,1.8h4.3a3.4,3.4,0,0,0-.6-1.7A1.9,1.9,0,0,0,105.5,155.4Z"/><path d="M115.9,162.8a6.4,6.4,0,0,1-.2-.9,3.3,3.3,0,0,1-2.4,1,2.7,2.7,0,0,1-2-.7,1.9,1.9,0,0,1-.8-1.8,2.3,2.3,0,0,1,1-2,4.5,4.5,0,0,1,2.8-.7h1.4V157a1.7,1.7,0,0,0-.5-1.2,1.7,1.7,0,0,0-1.3-.5,2.8,2.8,0,0,0-1.3.4,1.4,1.4,0,0,0-.5,1h-1.5a2.1,2.1,0,0,1,.5-1.2,4,4,0,0,1,1.2-1,4.7,4.7,0,0,1,1.7-.3,3.3,3.3,0,0,1,2.3.7,2.8,2.8,0,0,1,.8,2v3.9a5,5,0,0,0,.3,1.9h-1.5Zm-2.4-1.1a2,2,0,0,0,1.3-.4,2,2,0,0,0,.9-.9v-1.7h-1.1q-2.7,0-2.7,1.5a1.3,1.3,0,0,0,.5,1.1A1.4,1.4,0,0,0,113.5,161.7Z"/><path d="M123.5,155.6h-.7a2,2,0,0,0-2,1.2v6h-1.4v-8.5h1.4v1a2.4,2.4,0,0,1,2-1.1h.7Z"/><path d="M126.2,154.3v1.1a3.2,3.2,0,0,1,2.6-1.2q2.5,0,2.7,3v5.6H130v-5.6a2,2,0,0,0-.4-1.4,2.2,2.2,0,0,0-1.3-.4,1.7,1.7,0,0,0-1.2.4,2,2,0,0,0-.8,1v6h-1.5v-8.5Z"/><path d="M137.1,162.9a3.3,3.3,0,0,1-2.7-1.1,3.7,3.7,0,0,1-1.1-3v-.3a4,4,0,0,1,.5-2.2,3.4,3.4,0,0,1,1.3-1.6,4.1,4.1,0,0,1,1.9-.5,2.8,2.8,0,0,1,2.5,1.1,4.6,4.6,0,0,1,.9,3.1v.6h-5.7a3.2,3.2,0,0,0,.7,2,2.6,2.6,0,0,0,3.1.5,4.3,4.3,0,0,0,1-.9l.8.7A3.4,3.4,0,0,1,137.1,162.9Zm-.1-7.5a2,2,0,0,0-1.5.6,3,3,0,0,0-.7,1.8H139a2.2,2.2,0,0,0-.6-1.7A1.7,1.7,0,0,0,137,155.4Z"/><path d="M146.2,155.6h-.7a1.8,1.8,0,0,0-1.9,1.2v6h-1.5v-8.5h1.4v1a2.5,2.5,0,0,1,2.1-1.1h.6Z"/><path d="M151.8,163.8h-1.3l4.8-12.4h1.2Z"/><path d="M161.7,158.5a5,5,0,0,1,.9-3.1,2.9,2.9,0,0,1,2.4-1.2,3,3,0,0,1,2.4,1v-4.4h1.4v12h-1.3v-.9a3.2,3.2,0,0,1-4.8-.2,5,5,0,0,1-.9-3.1Zm1.4.2a3.6,3.6,0,0,0,.6,2.2,2.1,2.1,0,0,0,1.7.8,2.1,2.1,0,0,0,2-1.2v-3.9a2.1,2.1,0,0,0-2-1.2,2.1,2.1,0,0,0-1.7.8A4.4,4.4,0,0,0,163.1,158.7Z"/><path d="M174.6,162.9a3.4,3.4,0,0,1-2.8-1.1,4.1,4.1,0,0,1-1.1-3v-.3a5.1,5.1,0,0,1,.5-2.2,3.2,3.2,0,0,1,3.2-2.1,3,3,0,0,1,2.6,1.1,4.6,4.6,0,0,1,.9,3.1v.6h-5.8a3.3,3.3,0,0,0,.8,2,2.2,2.2,0,0,0,1.8.8,2.8,2.8,0,0,0,1.3-.3l.9-.9.9.7A3.5,3.5,0,0,1,174.6,162.9Zm-.2-7.5a2,2,0,0,0-1.5.6,3,3,0,0,0-.7,1.8h4.2a2.2,2.2,0,0,0-.6-1.7A1.7,1.7,0,0,0,174.4,155.4Z"/><path d="M181.5,152.3v2h1.6v1.2h-1.6v5.2a1.9,1.9,0,0,0,.2.8l.7.2h.7v1.2H182a1.6,1.6,0,0,1-1.4-.5,2.3,2.3,0,0,1-.5-1.7v-5.2h-1.6v-1.2h1.6v-2Z"/><path d="M190,162.8a2,2,0,0,1-.2-.9,3.3,3.3,0,0,1-2.4,1,3.1,3.1,0,0,1-2.1-.7,2.2,2.2,0,0,1-.8-1.8,2.6,2.6,0,0,1,1-2,4.8,4.8,0,0,1,2.9-.7h1.4V157a1.7,1.7,0,0,0-.5-1.2,1.7,1.7,0,0,0-1.3-.5,2.5,2.5,0,0,0-1.3.4,1.1,1.1,0,0,0-.5,1h-1.5a2.1,2.1,0,0,1,.5-1.2,4,4,0,0,1,1.2-1,4.3,4.3,0,0,1,1.7-.3,3.5,3.5,0,0,1,2.3.7,2.8,2.8,0,0,1,.8,2v3.9a5,5,0,0,0,.3,1.9H190Zm-2.4-1.1a2.2,2.2,0,0,0,1.3-.4,2,2,0,0,0,.9-.9v-1.7h-1.2c-1.7,0-2.6.5-2.6,1.5a1.2,1.2,0,0,0,.4,1.1A1.6,1.6,0,0,0,187.6,161.7Z"/><path d="M193.5,152.1a1.4,1.4,0,0,1,.2-.6c.1-.2.4-.2.6-.2a.8.8,0,0,1,.7.2,1,1,0,0,1,0,1.2l-.7.2-.6-.2A1.4,1.4,0,0,1,193.5,152.1Zm1.5,10.7h-1.4v-8.5H195Z"/><path d="M198.9,162.8h-1.4v-12h1.4Z"/><path d="M204.2,158.5h-3.8v-1.1h3.8Z"/><path d="M205.3,158.5a4,4,0,0,1,.5-2.2,3.4,3.4,0,0,1,1.3-1.6,4.6,4.6,0,0,1,2-.5,3.5,3.5,0,0,1,2.8,1.2,4.6,4.6,0,0,1,1.1,3.2h0a5.4,5.4,0,0,1-.5,2.2,4,4,0,0,1-1.4,1.5,3.1,3.1,0,0,1-2,.5,4.1,4.1,0,0,1-2.8-1.1,4.7,4.7,0,0,1-1-3.2Zm1.4.2a3.2,3.2,0,0,0,.7,2.2,2,2,0,0,0,1.7.9,2.1,2.1,0,0,0,1.8-.9,4.3,4.3,0,0,0,.6-2.4,4.1,4.1,0,0,0-.6-2.3,2.5,2.5,0,0,0-1.8-.8,2.1,2.1,0,0,0-1.7.8A3.7,3.7,0,0,0,206.7,158.7Z"/><path d="M218.9,155.6h-.7a2,2,0,0,0-2,1.2v6h-1.4v-8.5h1.4v1a2.4,2.4,0,0,1,2-1.1h.7Z"/><path d="M220.2,152.1a1.4,1.4,0,0,1,.2-.6.8.8,0,0,1,.7-.2c.2,0,.5,0,.6.2a1,1,0,0,1,0,1.2l-.6.2-.7-.2A1.4,1.4,0,0,1,220.2,152.1Zm1.6,10.7h-1.5v-8.5h1.5Z"/><path d="M227.6,162.9a3.4,3.4,0,0,1-2.8-1.1,4.1,4.1,0,0,1-1.1-3v-.3a5.1,5.1,0,0,1,.5-2.2,3.2,3.2,0,0,1,3.2-2.1,3,3,0,0,1,2.6,1.1,4.6,4.6,0,0,1,.9,3.1v.6h-5.7a2.7,2.7,0,0,0,.7,2,2.3,2.3,0,0,0,1.8.8,2.8,2.8,0,0,0,1.3-.3l.9-.9.9.7A3.5,3.5,0,0,1,227.6,162.9Zm-.2-7.5a2,2,0,0,0-1.5.6,3,3,0,0,0-.7,1.8h4.2a2.2,2.2,0,0,0-.6-1.7A1.7,1.7,0,0,0,227.4,155.4Z"/><path d="M233.9,154.3v1.1a3,3,0,0,1,2.5-1.2q2.7,0,2.7,3v5.6h-1.4v-5.6a2,2,0,0,0-.5-1.4,1.9,1.9,0,0,0-1.2-.4,2,2,0,0,0-1.3.4,2.7,2.7,0,0,0-.8,1v6h-1.4v-8.5Z"/><path d="M243.3,152.3v2h1.6v1.2h-1.6v5.2a1.1,1.1,0,0,0,.3.8,1,1,0,0,0,.7.2h.7v1.2h-1.1a1.7,1.7,0,0,1-1.5-.5,2.9,2.9,0,0,1-.5-1.7v-5.2h-1.5v-1.2h1.5v-2Z"/><path d="M250.1,162.9a3.6,3.6,0,0,1-2.8-1.1,4.1,4.1,0,0,1-1.1-3v-.3a5.1,5.1,0,0,1,.5-2.2,3.6,3.6,0,0,1,1.4-1.6,3.7,3.7,0,0,1,1.8-.5,3,3,0,0,1,2.6,1.1,4.6,4.6,0,0,1,.9,3.1v.6h-5.7a3.2,3.2,0,0,0,.7,2,2.5,2.5,0,0,0,1.8.8,2.8,2.8,0,0,0,1.3-.3c.3-.3.7-.5.9-.9l.9.7A3.5,3.5,0,0,1,250.1,162.9Zm-.2-7.5a2,2,0,0,0-1.4.6,3,3,0,0,0-.8,1.8H252a3.4,3.4,0,0,0-.6-1.7A2,2,0,0,0,249.9,155.4Z"/><path d="M254.7,158.5a4.5,4.5,0,0,1,1-3.1,2.9,2.9,0,0,1,2.4-1.2,2.8,2.8,0,0,1,2.3,1v-4.4h1.5v12h-1.4v-.9a3,3,0,0,1-2.4,1,2.9,2.9,0,0,1-2.4-1.2,4.5,4.5,0,0,1-1-3.1Zm1.5.2a3.6,3.6,0,0,0,.6,2.2,1.9,1.9,0,0,0,1.6.8,2.1,2.1,0,0,0,2-1.2v-3.9a2.1,2.1,0,0,0-2-1.2,1.9,1.9,0,0,0-1.6.8A4.4,4.4,0,0,0,256.2,158.7Z"/><path d="M268.4,163.8h-1.3l4.8-12.4h1.2Z"/><path d="M18.6,182.1a3.6,3.6,0,0,1-2.8-1.1,4.1,4.1,0,0,1-1.1-3v-.3a5.1,5.1,0,0,1,.5-2.2,3.6,3.6,0,0,1,1.4-1.6,3.7,3.7,0,0,1,1.8-.5,3,3,0,0,1,2.6,1.1,4.6,4.6,0,0,1,.9,3.1v.6H16.2a2.7,2.7,0,0,0,.7,2,2.5,2.5,0,0,0,1.8.8,2.8,2.8,0,0,0,1.3-.3l.9-.9.9.7A3.5,3.5,0,0,1,18.6,182.1Zm-.2-7.5a1.7,1.7,0,0,0-1.4.6,3,3,0,0,0-.8,1.8h4.3a3.4,3.4,0,0,0-.6-1.7A2,2,0,0,0,18.4,174.6Z"/><path d="M24.3,182v-7.3H22.9v-1.2h1.4v-.8a2.8,2.8,0,0,1,.7-2.1,2.9,2.9,0,0,1,2.1-.8l1,.2v1.1h-.8a1.4,1.4,0,0,0-1.1.4,1.6,1.6,0,0,0-.4,1.1v.9h1.8v1.2H25.7V182Z"/><path d="M29.8,182v-7.3H28.5v-1.2h1.3v-.8a2.9,2.9,0,0,1,.8-2.1,2.5,2.5,0,0,1,2-.8l1,.2v1.1h-.7a1.4,1.4,0,0,0-1.5,1.5v.9h1.8v1.2H31.3V182Z"/><path d="M34.7,171.3a1.4,1.4,0,0,1,.2-.6c.1-.2.4-.2.6-.2a.8.8,0,0,1,.7.2,1,1,0,0,1,0,1.2l-.7.2-.6-.2A1.4,1.4,0,0,1,34.7,171.3ZM36.3,182H34.8v-8.5h1.5Z"/><path d="M42,181a2.1,2.1,0,0,0,1.3-.5,1.4,1.4,0,0,0,.6-1.2h1.4a2.4,2.4,0,0,1-.5,1.4,4.3,4.3,0,0,1-1.2,1.1,4.5,4.5,0,0,1-1.6.3,3.4,3.4,0,0,1-2.8-1.1,4.6,4.6,0,0,1-1-3.2v-.2a5.1,5.1,0,0,1,.4-2.2,4.7,4.7,0,0,1,1.3-1.5,4.6,4.6,0,0,1,2-.5,3.6,3.6,0,0,1,2.4.8,3,3,0,0,1,1,2.2H43.9a1.9,1.9,0,0,0-2-1.8,1.9,1.9,0,0,0-1.7.8,3.7,3.7,0,0,0-.6,2.3v.2a3.7,3.7,0,0,0,.6,2.3A2.2,2.2,0,0,0,42,181Z"/><path d="M46.9,171.3a.9.9,0,0,1,.3-.6c.1-.2.3-.2.6-.2s.5,0,.6.2a.7.7,0,0,1,0,1.2l-.6.2-.6-.2A.9.9,0,0,1,46.9,171.3ZM48.5,182H47.1v-8.5h1.4Z"/><path d="M54.3,182.1a3.7,3.7,0,0,1-2.8-1.1,4,4,0,0,1-1-3v-.3a5.1,5.1,0,0,1,.4-2.2,4.4,4.4,0,0,1,1.4-1.6,4.1,4.1,0,0,1,1.8-.5,3,3,0,0,1,2.6,1.1,4.6,4.6,0,0,1,.9,3.1v.6H51.9a3.2,3.2,0,0,0,.7,2,2.5,2.5,0,0,0,1.8.8,2.8,2.8,0,0,0,1.3-.3,2.6,2.6,0,0,0,.9-.9l.9.7A3.5,3.5,0,0,1,54.3,182.1Zm-.2-7.5a2,2,0,0,0-1.4.6,3,3,0,0,0-.8,1.8h4.3a3.4,3.4,0,0,0-.6-1.7A1.9,1.9,0,0,0,54.1,174.6Z"/><path d="M60.7,173.5v1.1a3.2,3.2,0,0,1,2.5-1.2q2.7,0,2.7,3V182H64.5v-5.6a2,2,0,0,0-.4-1.4,2.2,2.2,0,0,0-1.3-.4,1.6,1.6,0,0,0-1.2.4,2.2,2.2,0,0,0-.9,1v6H59.3v-8.5Z"/><path d="M70.1,171.5v2h1.6v1.2H70.1v5.2a1.9,1.9,0,0,0,.2.8l.7.2h.7V182H70.6a1.8,1.8,0,0,1-1.5-.5,2.9,2.9,0,0,1-.5-1.7v-5.2H67.1v-1.2h1.5v-2Z"/><path d="M77.6,183H76.4l4.7-12.4h1.2Z"/><path d="M91.4,182.1a3.4,3.4,0,0,1-2.8-1.1,4.1,4.1,0,0,1-1.1-3v-.3a5.1,5.1,0,0,1,.5-2.2,3.4,3.4,0,0,1,1.3-1.6,4.1,4.1,0,0,1,1.9-.5,3.1,3.1,0,0,1,2.6,1.1,4.6,4.6,0,0,1,.9,3.1v.6H88.9a3.3,3.3,0,0,0,.8,2,2.2,2.2,0,0,0,1.8.8,2.8,2.8,0,0,0,1.3-.3l.9-.9.9.7A3.5,3.5,0,0,1,91.4,182.1Zm-.2-7.5a2,2,0,0,0-1.5.6A3,3,0,0,0,89,177h4.2a2.2,2.2,0,0,0-.6-1.7A1.7,1.7,0,0,0,91.2,174.6Z"/><path d="M97.7,173.5v1.1a2.9,2.9,0,0,1,2.5-1.2q2.7,0,2.7,3V182h-1.5v-5.6a2,2,0,0,0-.4-1.4,1.9,1.9,0,0,0-1.2-.4,2,2,0,0,0-1.3.4,2.7,2.7,0,0,0-.8,1v6H96.3v-8.5Z"/><path d="M107.1,171.5v2h1.6v1.2h-1.6v5.2a1.9,1.9,0,0,0,.2.8l.8.2h.7V182h-1.2a1.6,1.6,0,0,1-1.4-.5,2.9,2.9,0,0,1-.5-1.7v-5.2h-1.6v-1.2h1.6v-2Z"/><path d="M111.8,174.6a3.2,3.2,0,0,1,2.5-1.2q2.7,0,2.7,3V182h-1.4v-5.6a2,2,0,0,0-.4-1.4,2.2,2.2,0,0,0-1.3-.4,1.6,1.6,0,0,0-1.2.4,2.2,2.2,0,0,0-.9,1v6h-1.4V170h1.4Z"/><path d="M124.4,181.2a3.1,3.1,0,0,1-2.4.9,2.8,2.8,0,0,1-2.1-.7,3.4,3.4,0,0,1-.7-2.4v-5.5h1.4V179c0,1.3.5,1.9,1.6,1.9a2.2,2.2,0,0,0,2.2-1.2v-6.2h1.4V182h-1.3Z"/><path d="M133,179.7a1.4,1.4,0,0,0-.5-.9,3.7,3.7,0,0,0-1.5-.5l-1.8-.6a2.4,2.4,0,0,1-.9-.8,1.7,1.7,0,0,1-.3-1,2.5,2.5,0,0,1,.8-1.8,3.5,3.5,0,0,1,2.3-.7,3.3,3.3,0,0,1,2.3.7,2.5,2.5,0,0,1,.9,1.9h-1.4a1.4,1.4,0,0,0-.5-1,2,2,0,0,0-1.3-.4,2.1,2.1,0,0,0-1.2.3,1.1,1.1,0,0,0-.5.9,1,1,0,0,0,.4.8,6.4,6.4,0,0,0,1.5.5l1.8.6a2.7,2.7,0,0,1,1,.8,2,2,0,0,1,.3,1.1,2.3,2.3,0,0,1-.9,1.9,4.3,4.3,0,0,1-2.4.6l-1.8-.3a4,4,0,0,1-1.2-1,2.3,2.3,0,0,1-.4-1.4h1.4c.1.5.2.9.6,1.1a2.2,2.2,0,0,0,1.4.5,2.1,2.1,0,0,0,1.4-.4A1.1,1.1,0,0,0,133,179.7Z"/><path d="M136.3,171.3a1.4,1.4,0,0,1,.2-.6c.1-.2.4-.2.6-.2a.8.8,0,0,1,.7.2,1,1,0,0,1,0,1.2l-.7.2-.6-.2A1.4,1.4,0,0,1,136.3,171.3Zm1.6,10.7h-1.5v-8.5h1.5Z"/><path d="M145.4,182a2,2,0,0,1-.2-.9,3.3,3.3,0,0,1-2.4,1,3,3,0,0,1-2.1-.7,2.2,2.2,0,0,1-.8-1.8,2.6,2.6,0,0,1,1-2,4.8,4.8,0,0,1,2.9-.7h1.4v-.7a1.7,1.7,0,0,0-.5-1.2,1.7,1.7,0,0,0-1.3-.5,2.5,2.5,0,0,0-1.3.4,1.2,1.2,0,0,0-.6,1h-1.4a1.9,1.9,0,0,1,.4-1.2,3.4,3.4,0,0,1,1.3-1,4.3,4.3,0,0,1,1.7-.3,3.1,3.1,0,0,1,2.2.7,2.5,2.5,0,0,1,.9,2V180a5,5,0,0,0,.3,1.9h-1.5Zm-2.4-1.1a2.2,2.2,0,0,0,1.3-.4,2,2,0,0,0,.9-.9v-1.7H144c-1.7,0-2.6.5-2.6,1.5a1.2,1.2,0,0,0,.4,1.1A1.6,1.6,0,0,0,143,180.9Z"/><path d="M153.8,179.7a1.4,1.4,0,0,0-.5-.9,3.2,3.2,0,0,0-1.5-.5l-1.7-.6a2.1,2.1,0,0,1-1-.8,1.7,1.7,0,0,1-.3-1,2.3,2.3,0,0,1,.9-1.8,3.2,3.2,0,0,1,2.2-.7,3.6,3.6,0,0,1,2.4.7,2.5,2.5,0,0,1,.9,1.9h-1.5a1.4,1.4,0,0,0-.5-1,1.8,1.8,0,0,0-1.3-.4,2.1,2.1,0,0,0-1.2.3,1,1,0,0,0-.4.9.8.8,0,0,0,.4.8,4.1,4.1,0,0,0,1.5.5l1.7.6a2.1,2.1,0,0,1,1,.8,2,2,0,0,1,.3,1.1,2.3,2.3,0,0,1-.9,1.9,4.1,4.1,0,0,1-2.3.6,4.8,4.8,0,0,1-1.8-.3,4,4,0,0,1-1.2-1,2.4,2.4,0,0,1-.5-1.4H150a1.3,1.3,0,0,0,.5,1.1,2.5,2.5,0,0,0,1.5.5,1.8,1.8,0,0,0,1.3-.4A1.1,1.1,0,0,0,153.8,179.7Z"/><path d="M159.1,171.5v2h1.6v1.2h-1.6v5.2a1.1,1.1,0,0,0,.2.8l.7.2h.7V182h-1.1a1.8,1.8,0,0,1-1.5-.5,2.9,2.9,0,0,1-.5-1.7v-5.2h-1.5v-1.2h1.5v-2Z"/><path d="M162.4,171.3a.7.7,0,0,1,.2-.6c.1-.2.3-.2.6-.2s.5,0,.6.2a.7.7,0,0,1,0,1.2l-.6.2-.6-.2A.7.7,0,0,1,162.4,171.3Zm1.5,10.7h-1.4v-8.5h1.4Z"/><path d="M169.6,181a2.4,2.4,0,0,0,1.4-.5,1.4,1.4,0,0,0,.6-1.2H173a2.4,2.4,0,0,1-.5,1.4,3.6,3.6,0,0,1-1.3,1.1,4.1,4.1,0,0,1-1.6.3,3.3,3.3,0,0,1-2.7-1.1,4.6,4.6,0,0,1-1-3.2v-.2a5.1,5.1,0,0,1,.4-2.2,3.7,3.7,0,0,1,1.3-1.5,4.2,4.2,0,0,1,2-.5,3.8,3.8,0,0,1,2.4.8,3.5,3.5,0,0,1,1,2.2h-1.4a1.6,1.6,0,0,0-.6-1.3,1.7,1.7,0,0,0-1.4-.5,1.9,1.9,0,0,0-1.7.8,3.7,3.7,0,0,0-.6,2.3v.2a3.7,3.7,0,0,0,.6,2.3A2.1,2.1,0,0,0,169.6,181Z"/><path d="M178.9,183h-1.3l4.8-12.4h1.2Z"/><path d="M189.8,182v-7.3h-1.3v-1.2h1.3v-.8a2.9,2.9,0,0,1,.8-2.1,2.5,2.5,0,0,1,2-.8l1,.2v1.1h-.8a1.2,1.2,0,0,0-1,.4,1.2,1.2,0,0,0-.4,1.1v.9h1.8v1.2h-1.8V182Z"/><path d="M196.2,182h-1.4V170h1.4Z"/><path d="M202.1,182.1a3.4,3.4,0,0,1-2.8-1.1,3.7,3.7,0,0,1-1.1-3v-.3a4,4,0,0,1,.5-2.2,3.4,3.4,0,0,1,1.3-1.6,4.1,4.1,0,0,1,1.9-.5,2.8,2.8,0,0,1,2.5,1.1,4.1,4.1,0,0,1,1,3.1v.6h-5.8a3.3,3.3,0,0,0,.8,2,2.1,2.1,0,0,0,1.7.8,2.3,2.3,0,0,0,1.3-.3,4.3,4.3,0,0,0,1-.9l.8.7A3.4,3.4,0,0,1,202.1,182.1Zm-.2-7.5a2,2,0,0,0-1.5.6,3,3,0,0,0-.7,1.8h4.2a2.2,2.2,0,0,0-.6-1.7A1.7,1.7,0,0,0,201.9,174.6Z"/><path d="M209.9,176.6l1.8-3.1h1.7l-2.7,4.2,2.8,4.3h-1.7l-1.9-3.2-2,3.2h-1.6l2.8-4.3-2.8-4.2H208Z"/><path d="M215,171.3a.7.7,0,0,1,.2-.6c.1-.2.3-.2.6-.2a.8.8,0,0,1,.7.2,1,1,0,0,1,0,1.2l-.7.2-.6-.2A.7.7,0,0,1,215,171.3Zm1.5,10.7h-1.4v-8.5h1.4Z"/><path d="M226,177.9a5.2,5.2,0,0,1-.9,3.1,2.8,2.8,0,0,1-2.4,1.1,3,3,0,0,1-2.5-1.1v1h-1.4V170h1.5v4.5a2.8,2.8,0,0,1,2.4-1.1,3,3,0,0,1,2.4,1.1,5.3,5.3,0,0,1,.9,3.2Zm-1.4-.2a3.7,3.7,0,0,0-.6-2.3,2,2,0,0,0-1.7-.8,2.2,2.2,0,0,0-2,1.3v3.7a2.1,2.1,0,0,0,2.1,1.3,1.7,1.7,0,0,0,1.6-.8A3.8,3.8,0,0,0,224.6,177.7Z"/><path d="M229.4,182h-1.5V170h1.5Z"/><path d="M235.2,182.1a3.6,3.6,0,0,1-2.8-1.1,4.1,4.1,0,0,1-1.1-3v-.3a5.1,5.1,0,0,1,.5-2.2,3.6,3.6,0,0,1,1.4-1.6,3.7,3.7,0,0,1,1.8-.5,3,3,0,0,1,2.6,1.1,4.6,4.6,0,0,1,.9,3.1v.6h-5.7a2.7,2.7,0,0,0,.7,2,2.5,2.5,0,0,0,1.8.8,2.8,2.8,0,0,0,1.3-.3l.9-.9.9.7A3.5,3.5,0,0,1,235.2,182.1Zm-.2-7.5a1.8,1.8,0,0,0-1.4.6,3,3,0,0,0-.8,1.8h4.3a3.4,3.4,0,0,0-.6-1.7A2,2,0,0,0,235,174.6Z"/></g></svg>