<svg xmlns="http://www.w3.org/2000/svg" width="300" height="300" viewBox="0 0 300 300"><g id="Layer_1" data-name="Layer 1"><rect width="300" height="300" fill="#e6e7e8"/></g><g id="Layer_3" data-name="Layer 3"><path d="M74.7,38V18.2h6.1a10.5,10.5,0,0,1,4.7,1.1,8.8,8.8,0,0,1,3.2,3.4,11,11,0,0,1,1.1,4.9v.9a10.2,10.2,0,0,1-1.1,5,8.5,8.5,0,0,1-3.2,3.3A9.4,9.4,0,0,1,80.8,38Zm4.1-16.5V34.7h1.9a4.3,4.3,0,0,0,3.7-1.6,7,7,0,0,0,1.3-4.4V27.6A7,7,0,0,0,84.4,23a4.3,4.3,0,0,0-3.6-1.5Z"/><path d="M104.7,29.4H96.9v5.3h9.2V38H92.8V18.2h13.3v3.3H96.9v4.7h7.8Z"/><path d="M118.8,32.8a2,2,0,0,0-.9-1.8,11.7,11.7,0,0,0-2.9-1.3,23.5,23.5,0,0,1-3.4-1.4c-2.2-1.2-3.3-2.8-3.3-4.9a4.7,4.7,0,0,1,.9-2.8,5.4,5.4,0,0,1,2.6-2,9.2,9.2,0,0,1,3.8-.7,7.9,7.9,0,0,1,3.8.8,5.8,5.8,0,0,1,2.5,2.1,5.3,5.3,0,0,1,1,3.2h-4.1a2.6,2.6,0,0,0-.9-2.1,3.6,3.6,0,0,0-2.4-.8,3.7,3.7,0,0,0-2.3.7,1.8,1.8,0,0,0-.8,1.6,2.1,2.1,0,0,0,.9,1.7,14.1,14.1,0,0,0,2.9,1.2,13.4,13.4,0,0,1,5.1,2.6,5.3,5.3,0,0,1,1.6,3.9,4.8,4.8,0,0,1-2,4,8.2,8.2,0,0,1-5.2,1.5,9.6,9.6,0,0,1-4.2-.9,6.6,6.6,0,0,1-2.9-2.3,6,6,0,0,1-.9-3.3h4.1c0,2.1,1.3,3.2,3.9,3.2a3.6,3.6,0,0,0,2.2-.6A1.8,1.8,0,0,0,118.8,32.8Z"/><path d="M130,38h-4.1V18.2H130Z"/><path d="M149.4,35.5a6.4,6.4,0,0,1-3.1,2,12.3,12.3,0,0,1-4.4.8,8.2,8.2,0,0,1-7.6-4.4,11.2,11.2,0,0,1-1-5V27.5a11.3,11.3,0,0,1,1-5.1,6.9,6.9,0,0,1,2.9-3.4,8.7,8.7,0,0,1,4.4-1.1,8.4,8.4,0,0,1,5.5,1.7,6.9,6.9,0,0,1,2.3,4.9h-3.9a3.9,3.9,0,0,0-1.2-2.5,4.2,4.2,0,0,0-2.6-.8,3.5,3.5,0,0,0-3.2,1.6,8,8,0,0,0-1.1,4.6v1.3a7.8,7.8,0,0,0,1.2,4.7,4.1,4.1,0,0,0,3.5,1.6,4.5,4.5,0,0,0,3.3-1V30.6h-3.8v-3h7.8Z"/><path d="M168.9,38h-4.1l-8-13.1V38h-4V18.2h4l8,13v-13h4.1Z"/><path d="M184.4,29.4h-7.9v5.3h9.2V38H172.4V18.2h13.3v3.3h-9.2v4.7h7.9Z"/><path d="M195.5,30.7h-3.3V38h-4.1V18.2h7.4a8.7,8.7,0,0,1,5.4,1.5,5.4,5.4,0,0,1,1.9,4.5,5.8,5.8,0,0,1-.9,3.3,5.2,5.2,0,0,1-2.6,2.2l4.3,8.1V38h-4.4Zm-3.3-3.3h3.3a3.2,3.2,0,0,0,2.4-.8,2.5,2.5,0,0,0,.8-2.1,2.6,2.6,0,0,0-.8-2.2,2.9,2.9,0,0,0-2.4-.8h-3.3Z"/><path d="M221.7,30.1a5.3,5.3,0,0,1-3.6,1.5,5.5,5.5,0,0,1-4.3-1.8,7.5,7.5,0,0,1-1.5-4.9,8.6,8.6,0,0,1,.8-3.6,6.4,6.4,0,0,1,2.4-2.5,6.7,6.7,0,0,1,3.4-.9,6,6,0,0,1,3.5,1,6.7,6.7,0,0,1,2.4,2.8,10.8,10.8,0,0,1,.8,4.2v1.5c0,3.3-.8,5.9-2.4,7.7a9.8,9.8,0,0,1-7,3.1h-1V34.9h.9C219.5,34.7,221.4,33.1,221.7,30.1ZM219,28.6a3.1,3.1,0,0,0,1.7-.5,2.9,2.9,0,0,0,1-1.2V25.3a4.6,4.6,0,0,0-.8-3.1,2.1,2.1,0,0,0-2-1.1,2.2,2.2,0,0,0-1.9,1,4.4,4.4,0,0,0-.8,2.8,4.4,4.4,0,0,0,.7,2.6A2.5,2.5,0,0,0,219,28.6Z"/><path d="M16.6,77.5V87c0,1.6-.8,2.4-2.2,2.4h-.9V88.1h.6a1,1,0,0,0,.8-.3c.2-.2.2-.5.2-.9V77.5ZM15,75.3a1.4,1.4,0,0,1,.2-.6.7.7,0,0,1,.6-.2.8.8,0,0,1,.7.2,1,1,0,0,1,0,1.2l-.7.2-.6-.2A1.4,1.4,0,0,1,15,75.3Z"/><path d="M18.5,81.7a5.1,5.1,0,0,1,.5-2.2,3.6,3.6,0,0,1,1.4-1.6,4.2,4.2,0,0,1,2-.5,3.8,3.8,0,0,1,2.8,1.2,4.6,4.6,0,0,1,1,3.2h0a5.4,5.4,0,0,1-.4,2.2,5,5,0,0,1-1.4,1.5,3.5,3.5,0,0,1-2,.5A3.8,3.8,0,0,1,19.6,85a4.8,4.8,0,0,1-1.1-3.2Zm1.5.2a3.8,3.8,0,0,0,.6,2.2,2.3,2.3,0,0,0,1.8.9,2,2,0,0,0,1.7-.9,3.6,3.6,0,0,0,.7-2.4,3.5,3.5,0,0,0-.7-2.3,2.1,2.1,0,0,0-1.7-.8,2.5,2.5,0,0,0-1.8.8A4.4,4.4,0,0,0,20,81.9Z"/><path d="M35.2,81.9a5.2,5.2,0,0,1-.9,3.1,2.8,2.8,0,0,1-2.4,1.1A2.8,2.8,0,0,1,29.4,85v1H28V74h1.5v4.5a2.8,2.8,0,0,1,2.4-1.1,3,3,0,0,1,2.4,1.1,5.3,5.3,0,0,1,.9,3.2Zm-1.4-.2a3.7,3.7,0,0,0-.6-2.3,2,2,0,0,0-1.7-.8,2.2,2.2,0,0,0-2,1.3v3.7a2.1,2.1,0,0,0,2.1,1.3,1.8,1.8,0,0,0,1.6-.8A3.8,3.8,0,0,0,33.8,81.7Z"/><path d="M41.3,87H40l4.8-12.4H46Z"/><path d="M52.9,77.5v1.1a3.2,3.2,0,0,1,2.6-1.2q2.7,0,2.7,3V86H56.7V80.4a2,2,0,0,0-.4-1.4,2.2,2.2,0,0,0-1.3-.4,1.9,1.9,0,0,0-1.2.4,2.7,2.7,0,0,0-.8,1v6H51.5V77.5Z"/><path d="M63.9,86.1A3.4,3.4,0,0,1,61.1,85,4.1,4.1,0,0,1,60,82v-.3a5.1,5.1,0,0,1,.5-2.2,3.4,3.4,0,0,1,1.3-1.6,4.1,4.1,0,0,1,1.9-.5,3.1,3.1,0,0,1,2.6,1.1,4.6,4.6,0,0,1,.9,3.1v.6H61.4a3.3,3.3,0,0,0,.8,2,2.1,2.1,0,0,0,1.7.8,2.3,2.3,0,0,0,1.3-.3,4.3,4.3,0,0,0,1-.9l.9.7A3.6,3.6,0,0,1,63.9,86.1Zm-.2-7.5a2,2,0,0,0-1.5.6,3,3,0,0,0-.7,1.8h4.2a2.2,2.2,0,0,0-.6-1.7A1.7,1.7,0,0,0,63.7,78.6Z"/><path d="M70.8,75.5v2h1.6v1.2H70.8v5.2a1.9,1.9,0,0,0,.2.8l.7.2h.7V86H71.3a2,2,0,0,1-1.5-.5,2.9,2.9,0,0,1-.4-1.7V78.7H67.8V77.5h1.6v-2Z"/><path d="M81.5,84l1.7-6.5h1.4L82.2,86H81l-2.1-6.4-2,6.4H75.8l-2.5-8.5h1.4l1.7,6.4,2-6.4h1.1Z"/><path d="M85.7,81.7a5.1,5.1,0,0,1,.5-2.2,3.6,3.6,0,0,1,1.4-1.6,3.8,3.8,0,0,1,1.9-.5,3.5,3.5,0,0,1,2.8,1.2,4.6,4.6,0,0,1,1.1,3.2h0a5.4,5.4,0,0,1-.5,2.2,3.7,3.7,0,0,1-1.3,1.5,3.5,3.5,0,0,1-2,.5A3.8,3.8,0,0,1,86.8,85a4.8,4.8,0,0,1-1.1-3.2Zm1.5.2a3.8,3.8,0,0,0,.6,2.2,2,2,0,0,0,1.8.9,2,2,0,0,0,1.7-.9,4.3,4.3,0,0,0,.7-2.4,4.2,4.2,0,0,0-.7-2.3,2.2,2.2,0,0,0-1.8-.8,2.3,2.3,0,0,0-1.7.8A4.4,4.4,0,0,0,87.2,81.9Z"/><path d="M99.3,78.8h-.7A1.8,1.8,0,0,0,96.7,80v6H95.2V77.5h1.4v1a2.5,2.5,0,0,1,2.1-1.1h.6Z"/><path d="M103,82.1l-.9.9v3h-1.5V74h1.5v7.2l.8-.9,2.6-2.8h1.7L104,81.1l3.6,4.9h-1.7Z"/><path d="M108.7,75.3a.9.9,0,0,1,.3-.6c.1-.2.3-.2.6-.2s.5,0,.6.2a.8.8,0,0,1,0,1.2l-.6.2-.6-.2A.9.9,0,0,1,108.7,75.3ZM110.3,86h-1.4V77.5h1.4Z"/><path d="M114,77.5v1.1a3.2,3.2,0,0,1,2.6-1.2c1.7,0,2.7,1,2.7,3V86h-1.5V80.4a2,2,0,0,0-.4-1.4,2.2,2.2,0,0,0-1.3-.4,1.7,1.7,0,0,0-1.2.4,2,2,0,0,0-.8,1v6h-1.5V77.5Z"/><path d="M121.1,81.7a5.3,5.3,0,0,1,.9-3.2,3,3,0,0,1,2.4-1.1,2.8,2.8,0,0,1,2.5,1.1v-1h1.3v8.3a3.1,3.1,0,0,1-3.5,3.5,3.7,3.7,0,0,1-1.8-.4,3,3,0,0,1-1.4-1l.8-.9a2.7,2.7,0,0,0,2.3,1.1,2.1,2.1,0,0,0,2.2-2.2v-.8a3,3,0,0,1-2.4,1A3,3,0,0,1,122,85,5.4,5.4,0,0,1,121.1,81.7Zm1.5.2a4.5,4.5,0,0,0,.5,2.2,2.1,2.1,0,0,0,1.7.8,2.1,2.1,0,0,0,2-1.2V79.8a2.2,2.2,0,0,0-2-1.2,2.1,2.1,0,0,0-1.7.8A5.5,5.5,0,0,0,122.6,81.9Z"/><path d="M22.6,122.4l1.6-6.5h1.4l-2.4,8.5H22L20,118l-2,6.4H16.8l-2.5-8.5h1.5l1.6,6.4,2-6.4h1.2Z"/><path d="M30.6,124.5a3.6,3.6,0,0,1-2.8-1.1,4,4,0,0,1-1-3v-.3a5.1,5.1,0,0,1,.4-2.2,4.4,4.4,0,0,1,1.4-1.6,3.7,3.7,0,0,1,1.8-.5,3,3,0,0,1,2.6,1.1,4.6,4.6,0,0,1,.9,3.1v.6H28.2a3.2,3.2,0,0,0,.7,2,2.5,2.5,0,0,0,1.8.8,2.8,2.8,0,0,0,1.3-.3,2.6,2.6,0,0,0,.9-.9l.9.7A3.5,3.5,0,0,1,30.6,124.5Zm-.2-7.5a2,2,0,0,0-1.4.6,3,3,0,0,0-.8,1.8h4.3a3.4,3.4,0,0,0-.6-1.7A2,2,0,0,0,30.4,117Z"/><path d="M42.8,120.3a5.2,5.2,0,0,1-.9,3.1,2.8,2.8,0,0,1-2.4,1.1,2.8,2.8,0,0,1-2.5-1.1v1H35.6v-12H37v4.5a2.8,2.8,0,0,1,2.5-1.1,3,3,0,0,1,2.4,1.1,5.3,5.3,0,0,1,.9,3.2Zm-1.5-.2a3.7,3.7,0,0,0-.6-2.3,1.8,1.8,0,0,0-1.6-.8,2.3,2.3,0,0,0-2.1,1.3V122a2.3,2.3,0,0,0,2.1,1.3,1.7,1.7,0,0,0,1.6-.8A3.8,3.8,0,0,0,41.3,120.1Z"/><path d="M48.8,125.4H47.6L52.3,113h1.3Z"/><path d="M66.2,120.3a5.9,5.9,0,0,1-.8,3.1,2.8,2.8,0,0,1-2.4,1.1,2.8,2.8,0,0,1-2.5-1.1v1H59.1v-12h1.4v4.5a2.8,2.8,0,0,1,2.4-1.1,3.1,3.1,0,0,1,2.5,1.1,6.1,6.1,0,0,1,.8,3.2Zm-1.4-.2a3.7,3.7,0,0,0-.6-2.3,1.9,1.9,0,0,0-1.6-.8,2.2,2.2,0,0,0-2.1,1.3V122a2.3,2.3,0,0,0,2.1,1.3,1.7,1.7,0,0,0,1.6-.8A3.8,3.8,0,0,0,64.8,120.1Z"/><path d="M72.1,117.2h-.7a1.9,1.9,0,0,0-1.9,1.2v6H68.1v-8.5h1.4v1a2.3,2.3,0,0,1,2-1.1h.6Z"/><path d="M78.4,124.4a2,2,0,0,1-.2-.9,3.3,3.3,0,0,1-2.4,1,3,3,0,0,1-2.1-.7,2.2,2.2,0,0,1-.8-1.8,2.6,2.6,0,0,1,1-2,4.8,4.8,0,0,1,2.9-.7h1.4v-.7a1.7,1.7,0,0,0-.5-1.2,1.7,1.7,0,0,0-1.3-.5,2.5,2.5,0,0,0-1.3.4,1.2,1.2,0,0,0-.6,1H73.1a1.9,1.9,0,0,1,.4-1.2,3.4,3.4,0,0,1,1.3-1,4.3,4.3,0,0,1,1.7-.3,3.1,3.1,0,0,1,2.2.7,2.5,2.5,0,0,1,.9,2v3.9a5,5,0,0,0,.3,1.9H78.4ZM76,123.3a2.2,2.2,0,0,0,1.3-.4,2,2,0,0,0,.9-.9v-1.7H77c-1.7,0-2.6.5-2.6,1.5a1.2,1.2,0,0,0,.4,1.1A1.6,1.6,0,0,0,76,123.3Z"/><path d="M83.2,115.9V117a3,3,0,0,1,2.5-1.2q2.7,0,2.7,3v5.6H87.1v-5.6a2.6,2.6,0,0,0-.4-1.4,2.2,2.2,0,0,0-1.3-.4,2,2,0,0,0-1.3.4,2.7,2.7,0,0,0-.8,1v6H81.9v-8.5Z"/><path d="M90.3,120.1a5,5,0,0,1,1-3.1,2.9,2.9,0,0,1,2.4-1.2,2.6,2.6,0,0,1,2.3,1v-4.4h1.5v12H96.1v-.9a3,3,0,0,1-2.4,1,2.9,2.9,0,0,1-2.4-1.2,5,5,0,0,1-1-3.1Zm1.5.2a3.6,3.6,0,0,0,.6,2.2,1.9,1.9,0,0,0,1.6.8,2.1,2.1,0,0,0,2-1.2v-3.9a2.1,2.1,0,0,0-2-1.2,1.9,1.9,0,0,0-1.6.8A4.4,4.4,0,0,0,91.8,120.3Z"/><path d="M99.7,113.7a1.4,1.4,0,0,1,.2-.6.8.8,0,0,1,.7-.2c.3,0,.5,0,.6.2a1,1,0,0,1,0,1.2.8.8,0,0,1-.6.2l-.7-.2A1.4,1.4,0,0,1,99.7,113.7Zm1.6,10.7H99.8v-8.5h1.5Z"/><path d="M105,115.9V117a3.2,3.2,0,0,1,2.5-1.2c1.8,0,2.7,1,2.8,3v5.6h-1.5v-5.6a2,2,0,0,0-.4-1.4,2.2,2.2,0,0,0-1.3-.4,1.6,1.6,0,0,0-1.2.4,2.2,2.2,0,0,0-.9,1v6h-1.4v-8.5Z"/><path d="M112.1,120.1a5.3,5.3,0,0,1,.9-3.2,3,3,0,0,1,2.4-1.1,2.6,2.6,0,0,1,2.4,1.1v-1h1.3v8.3a3.7,3.7,0,0,1-.9,2.6,4,4,0,0,1-2.7.9,3.3,3.3,0,0,1-1.7-.4,3,3,0,0,1-1.4-1l.8-.9a2.5,2.5,0,0,0,2.2,1.1,2.4,2.4,0,0,0,1.7-.6,2.1,2.1,0,0,0,.6-1.6v-.8a3,3,0,0,1-2.4,1,3,3,0,0,1-2.4-1.1A5.4,5.4,0,0,1,112.1,120.1Zm1.4.2a3.6,3.6,0,0,0,.6,2.2,2.1,2.1,0,0,0,1.7.8,2.2,2.2,0,0,0,2-1.2v-3.9a2.2,2.2,0,0,0-2-1.2,2.1,2.1,0,0,0-1.7.8A4.4,4.4,0,0,0,113.5,120.3Z"/><path d="M125.7,125.4h-1.3l4.8-12.4h1.2Z"/><path d="M135.9,113.7a1.4,1.4,0,0,1,.2-.6.8.8,0,0,1,.7-.2c.3,0,.5,0,.6.2a1,1,0,0,1,0,1.2l-.6.2-.7-.2A1.4,1.4,0,0,1,135.9,113.7Zm1.6,10.7H136v-8.5h1.5Z"/><path d="M141.4,124.4h-1.5v-12h1.5Z"/><path d="M145.3,124.4h-1.5v-12h1.5Z"/><path d="M152.8,123.6a3.3,3.3,0,0,1-2.5.9,2.4,2.4,0,0,1-2-.7,3.5,3.5,0,0,1-.8-2.4v-5.5H149v5.5c0,1.3.5,1.9,1.5,1.9a2.3,2.3,0,0,0,2.3-1.2v-6.2h1.4v8.5h-1.4Z"/><path d="M161.3,122.1a1.2,1.2,0,0,0-.4-.9,3.7,3.7,0,0,0-1.6-.5l-1.7-.6a2.7,2.7,0,0,1-1-.8,1.7,1.7,0,0,1-.3-1,2.3,2.3,0,0,1,.9-1.8,3.3,3.3,0,0,1,2.3-.7,3.5,3.5,0,0,1,2.3.7,2.5,2.5,0,0,1,.9,1.9h-1.5a1.1,1.1,0,0,0-.5-1,1.6,1.6,0,0,0-1.2-.4,2.3,2.3,0,0,0-1.3.3,1,1,0,0,0-.4.9.8.8,0,0,0,.4.8l1.5.5,1.7.6a2.1,2.1,0,0,1,1,.8,1.5,1.5,0,0,1,.4,1.1,2.3,2.3,0,0,1-.9,1.9,4.5,4.5,0,0,1-2.4.6,4.8,4.8,0,0,1-1.8-.3,4,4,0,0,1-1.2-1,2.4,2.4,0,0,1-.5-1.4h1.5a1.1,1.1,0,0,0,.6,1.1,2,2,0,0,0,1.4.5,1.8,1.8,0,0,0,1.3-.4A1.1,1.1,0,0,0,161.3,122.1Z"/><path d="M166.6,113.9v2h1.6v1.2h-1.6v5.2a1.9,1.9,0,0,0,.2.8l.7.2h.7v1.2h-1.1a2,2,0,0,1-1.5-.5,2.9,2.9,0,0,1-.4-1.7v-5.2h-1.6v-1.2h1.6v-2Z"/><path d="M174,117.2h-.8a2,2,0,0,0-1.9,1.2v6h-1.4v-8.5h1.4v1a2.3,2.3,0,0,1,2-1.1h.7Z"/><path d="M180.2,124.4a2,2,0,0,1-.2-.9,3.3,3.3,0,0,1-2.4,1,3,3,0,0,1-2.1-.7,2.2,2.2,0,0,1-.8-1.8,2.6,2.6,0,0,1,1-2,4.8,4.8,0,0,1,2.9-.7H180v-.7a1.7,1.7,0,0,0-.5-1.2,1.7,1.7,0,0,0-1.3-.5,2.5,2.5,0,0,0-1.3.4,1.1,1.1,0,0,0-.5,1h-1.5a1.9,1.9,0,0,1,.4-1.2,4.5,4.5,0,0,1,1.3-1,4.3,4.3,0,0,1,1.7-.3,3.1,3.1,0,0,1,2.2.7,2.5,2.5,0,0,1,.9,2v3.9a5,5,0,0,0,.3,1.9h-1.5Zm-2.4-1.1a2.2,2.2,0,0,0,1.3-.4,2,2,0,0,0,.9-.9v-1.7h-1.2c-1.7,0-2.6.5-2.6,1.5a1.2,1.2,0,0,0,.4,1.1A1.6,1.6,0,0,0,177.8,123.3Z"/><path d="M185.6,113.9v2h1.6v1.2h-1.6v5.2a1.9,1.9,0,0,0,.2.8,1.5,1.5,0,0,0,.8.2h.6v1.2h-1.1a1.6,1.6,0,0,1-1.4-.5,2.9,2.9,0,0,1-.5-1.7v-5.2h-1.6v-1.2h1.6v-2Z"/><path d="M188.9,113.7a1.4,1.4,0,0,1,.2-.6.8.8,0,0,1,.7-.2c.2,0,.5,0,.6.2a1,1,0,0,1,0,1.2l-.6.2-.7-.2A1.4,1.4,0,0,1,188.9,113.7Zm1.6,10.7H189v-8.5h1.5Z"/><path d="M192.4,120.1a5.1,5.1,0,0,1,.5-2.2,4.2,4.2,0,0,1,1.3-1.6,4.6,4.6,0,0,1,2-.5A3.5,3.5,0,0,1,199,117a4.6,4.6,0,0,1,1.1,3.2h0a5.4,5.4,0,0,1-.5,2.2,3.7,3.7,0,0,1-1.3,1.5,3.6,3.6,0,0,1-2.1.5,3.7,3.7,0,0,1-2.7-1.1,4.8,4.8,0,0,1-1.1-3.2Zm1.5.2a3.8,3.8,0,0,0,.6,2.2,2,2,0,0,0,1.7.9,2,2,0,0,0,1.8-.9,4.3,4.3,0,0,0,.6-2.4,4.1,4.1,0,0,0-.6-2.3,2.3,2.3,0,0,0-1.8-.8,2.1,2.1,0,0,0-1.7.8A4.4,4.4,0,0,0,193.9,120.3Z"/><path d="M203.3,115.9V117a3.2,3.2,0,0,1,2.6-1.2q2.5,0,2.7,3v5.6h-1.5v-5.6a2,2,0,0,0-.4-1.4,2.2,2.2,0,0,0-1.3-.4,1.6,1.6,0,0,0-1.2.4,2,2,0,0,0-.8,1v6h-1.5v-8.5Z"/><path d="M14.8,158.5a5.3,5.3,0,0,1,.9-3.2,3,3,0,0,1,2.4-1.1,2.8,2.8,0,0,1,2.4,1.1v-1h1.3v8.3a3.4,3.4,0,0,1-1,2.6,3.6,3.6,0,0,1-2.6.9,3.9,3.9,0,0,1-1.8-.4,2.7,2.7,0,0,1-1.3-1l.7-.9a2.7,2.7,0,0,0,2.3,1.1,2,2,0,0,0,1.6-.6,2.1,2.1,0,0,0,.6-1.6v-.8a2.6,2.6,0,0,1-2.3,1,3,3,0,0,1-2.4-1.1A5.4,5.4,0,0,1,14.8,158.5Zm1.4.2a3.6,3.6,0,0,0,.6,2.2,1.9,1.9,0,0,0,1.6.8,2.1,2.1,0,0,0,2-1.2v-3.9a2.1,2.1,0,0,0-2-1.2,1.9,1.9,0,0,0-1.6.8A4.4,4.4,0,0,0,16.2,158.7Z"/><path d="M23.7,158.5a5.1,5.1,0,0,1,.5-2.2,4.2,4.2,0,0,1,1.3-1.6,4.6,4.6,0,0,1,2-.5,3.5,3.5,0,0,1,2.8,1.2,4.6,4.6,0,0,1,1.1,3.2h0a5.4,5.4,0,0,1-.5,2.2,4.7,4.7,0,0,1-1.3,1.5,3.6,3.6,0,0,1-2.1.5,3.7,3.7,0,0,1-2.7-1.1,4.3,4.3,0,0,1-1.1-3.2Zm1.4.2a3.8,3.8,0,0,0,.7,2.2,2,2,0,0,0,1.7.9,2,2,0,0,0,1.8-.9,4.3,4.3,0,0,0,.6-2.4,4.1,4.1,0,0,0-.6-2.3,2.3,2.3,0,0,0-1.8-.8,2.1,2.1,0,0,0-1.7.8A4.4,4.4,0,0,0,25.1,158.7Z"/><path d="M38.4,162.8a6.4,6.4,0,0,1-.2-.9,3.3,3.3,0,0,1-2.4,1,2.7,2.7,0,0,1-2-.7,1.9,1.9,0,0,1-.8-1.8,2.3,2.3,0,0,1,1-2,4.5,4.5,0,0,1,2.8-.7h1.4V157a1.7,1.7,0,0,0-.5-1.2,1.7,1.7,0,0,0-1.3-.5,2.8,2.8,0,0,0-1.3.4,1.4,1.4,0,0,0-.5,1H33.1a2.1,2.1,0,0,1,.5-1.2,4,4,0,0,1,1.2-1,4.7,4.7,0,0,1,1.7-.3,3.3,3.3,0,0,1,2.3.7,2.8,2.8,0,0,1,.8,2v3.9a5,5,0,0,0,.3,1.9H38.4ZM36,161.7a2,2,0,0,0,1.3-.4,2,2,0,0,0,.9-.9v-1.7H37.1q-2.7,0-2.7,1.5c0,.5.1.9.5,1.1A1.4,1.4,0,0,0,36,161.7Z"/><path d="M43.5,162.8H42v-12h1.5Z"/><path d="M48.8,158.5H45v-1.1h3.8Z"/><path d="M49.8,158.5a5.1,5.1,0,0,1,.5-2.2,3.6,3.6,0,0,1,1.4-1.6,3.8,3.8,0,0,1,1.9-.5,3.5,3.5,0,0,1,2.8,1.2,4.2,4.2,0,0,1,1.1,3.2h0a4.2,4.2,0,0,1-.5,2.2,3.7,3.7,0,0,1-1.3,1.5,3.5,3.5,0,0,1-2,.5,3.8,3.8,0,0,1-2.8-1.1,4.8,4.8,0,0,1-1.1-3.2Zm1.5.2a3.8,3.8,0,0,0,.6,2.2,2.1,2.1,0,0,0,1.8.9,2,2,0,0,0,1.7-.9,4.3,4.3,0,0,0,.7-2.4,4.2,4.2,0,0,0-.7-2.3,2.2,2.2,0,0,0-1.8-.8,2.3,2.3,0,0,0-1.7.8A4.4,4.4,0,0,0,51.3,158.7Z"/><path d="M63.4,155.6h-.7a1.8,1.8,0,0,0-1.9,1.2v6H59.3v-8.5h1.4v1a2.2,2.2,0,0,1,2-1.1h.6Z"/><path d="M64.7,152.1a.9.9,0,0,1,.3-.6c.1-.2.3-.2.6-.2s.5,0,.6.2a.7.7,0,0,1,0,1.2.8.8,0,0,1-.6.2l-.6-.2A.9.9,0,0,1,64.7,152.1Zm1.6,10.7H64.9v-8.5h1.4Z"/><path d="M72.1,162.9a3.6,3.6,0,0,1-2.8-1.1,4,4,0,0,1-1-3v-.3a5.1,5.1,0,0,1,.4-2.2,4.4,4.4,0,0,1,1.4-1.6,3.7,3.7,0,0,1,1.8-.5,3,3,0,0,1,2.6,1.1,4.6,4.6,0,0,1,.9,3.1v.6H69.7a3.2,3.2,0,0,0,.7,2,2.5,2.5,0,0,0,1.8.8,2.8,2.8,0,0,0,1.3-.3,2.6,2.6,0,0,0,.9-.9l.9.7A3.5,3.5,0,0,1,72.1,162.9Zm-.2-7.5a2,2,0,0,0-1.4.6,3,3,0,0,0-.8,1.8H74a3.4,3.4,0,0,0-.6-1.7A2,2,0,0,0,71.9,155.4Z"/><path d="M78.5,154.3v1.1a3.2,3.2,0,0,1,2.5-1.2q2.7,0,2.7,3v5.6H82.3v-5.6a2,2,0,0,0-.4-1.4,2.2,2.2,0,0,0-1.3-.4,1.6,1.6,0,0,0-1.2.4,2.2,2.2,0,0,0-.9,1v6H77.1v-8.5Z"/><path d="M87.9,152.3v2h1.6v1.2H87.9v5.2a1.9,1.9,0,0,0,.2.8l.7.2h.7v1.2H88.4a1.8,1.8,0,0,1-1.5-.5,2.9,2.9,0,0,1-.5-1.7v-5.2H84.9v-1.2h1.5v-2Z"/><path d="M94.7,162.9a3.4,3.4,0,0,1-2.8-1.1,3.7,3.7,0,0,1-1.1-3v-.3a4,4,0,0,1,.5-2.2,3.4,3.4,0,0,1,1.3-1.6,4.1,4.1,0,0,1,1.9-.5,2.8,2.8,0,0,1,2.5,1.1,4.6,4.6,0,0,1,1,3.1v.6H92.2a2.8,2.8,0,0,0,.8,2,2.1,2.1,0,0,0,1.7.8,2.5,2.5,0,0,0,1.3-.3,4.3,4.3,0,0,0,1-.9l.8.7A3.4,3.4,0,0,1,94.7,162.9Zm-.2-7.5a2,2,0,0,0-1.5.6,3,3,0,0,0-.7,1.8h4.2a2.2,2.2,0,0,0-.6-1.7A1.7,1.7,0,0,0,94.5,155.4Z"/><path d="M99.3,158.5a5,5,0,0,1,.9-3.1,2.9,2.9,0,0,1,2.4-1.2,3,3,0,0,1,2.4,1v-4.4h1.4v12h-1.3v-.9a3,3,0,0,1-2.4,1,2.9,2.9,0,0,1-2.4-1.2,5,5,0,0,1-.9-3.1Zm1.4.2a3.6,3.6,0,0,0,.6,2.2,2.1,2.1,0,0,0,1.7.8,2.2,2.2,0,0,0,2-1.2v-3.9a2.2,2.2,0,0,0-2-1.2,2.1,2.1,0,0,0-1.7.8A4.4,4.4,0,0,0,100.7,158.7Z"/><path d="M112.9,163.8h-1.2l4.7-12.4h1.2Z"/><path d="M123.2,152.1a.7.7,0,0,1,.2-.6c.1-.2.3-.2.6-.2a.8.8,0,0,1,.7.2,1,1,0,0,1,0,1.2l-.7.2-.6-.2A.7.7,0,0,1,123.2,152.1Zm1.5,10.7h-1.4v-8.5h1.4Z"/><path d="M128.4,154.3v1.1a3,3,0,0,1,2.5-1.2q2.7,0,2.7,3v5.6h-1.4v-5.6a2.6,2.6,0,0,0-.5-1.4,1.9,1.9,0,0,0-1.2-.4,2,2,0,0,0-1.3.4,2.7,2.7,0,0,0-.8,1v6H127v-8.5Z"/><path d="M135.5,158.5a5,5,0,0,1,.9-3.1,3.2,3.2,0,0,1,2.5-1.2,2.9,2.9,0,0,1,2.3,1v-4.4h1.5v12h-1.4v-.9a3,3,0,0,1-2.5,1,3.1,3.1,0,0,1-2.4-1.2,5,5,0,0,1-.9-3.1Zm1.5.2a3.6,3.6,0,0,0,.6,2.2,1.9,1.9,0,0,0,1.6.8,2.1,2.1,0,0,0,2-1.2v-3.9a2.1,2.1,0,0,0-2-1.2,1.9,1.9,0,0,0-1.6.8A4.4,4.4,0,0,0,137,158.7Z"/><path d="M148.4,162.9a3.6,3.6,0,0,1-2.8-1.1,4.1,4.1,0,0,1-1.1-3v-.3a5.1,5.1,0,0,1,.5-2.2,3.6,3.6,0,0,1,1.4-1.6,3.7,3.7,0,0,1,1.8-.5,3,3,0,0,1,2.6,1.1,4.6,4.6,0,0,1,.9,3.1v.6H146a2.7,2.7,0,0,0,.7,2,2.5,2.5,0,0,0,1.8.8,2.8,2.8,0,0,0,1.3-.3,7.6,7.6,0,0,0,.9-.9l.9.7A3.5,3.5,0,0,1,148.4,162.9Zm-.2-7.5a1.8,1.8,0,0,0-1.4.6,3,3,0,0,0-.8,1.8h4.3a3.4,3.4,0,0,0-.6-1.7A2,2,0,0,0,148.2,155.4Z"/><path d="M160.5,158.7a5.2,5.2,0,0,1-.9,3.1,2.8,2.8,0,0,1-2.4,1.1,3.2,3.2,0,0,1-2.4-.9v4h-1.4V154.3h1.3v1a2.8,2.8,0,0,1,2.4-1.1,3,3,0,0,1,2.4,1.1,5.3,5.3,0,0,1,.9,3.2Zm-1.4-.2a3.9,3.9,0,0,0-.6-2.3,2.1,2.1,0,0,0-1.7-.8,2.2,2.2,0,0,0-2,1.2v4a2.2,2.2,0,0,0,2,1.2,2.1,2.1,0,0,0,1.7-.9A3.8,3.8,0,0,0,159.1,158.5Z"/><path d="M165.9,162.9a3.4,3.4,0,0,1-2.8-1.1,3.7,3.7,0,0,1-1.1-3v-.3a4,4,0,0,1,.5-2.2,3.4,3.4,0,0,1,1.3-1.6,4.1,4.1,0,0,1,1.9-.5,2.8,2.8,0,0,1,2.5,1.1,4.1,4.1,0,0,1,1,3.1v.6h-5.8a3.3,3.3,0,0,0,.8,2,2.1,2.1,0,0,0,1.7.8,2.5,2.5,0,0,0,1.3-.3,4.3,4.3,0,0,0,1-.9l.8.7A3.4,3.4,0,0,1,165.9,162.9Zm-.2-7.5a2,2,0,0,0-1.5.6,3,3,0,0,0-.7,1.8h4.2a2.2,2.2,0,0,0-.6-1.7A1.7,1.7,0,0,0,165.7,155.4Z"/><path d="M172.2,154.3v1.1a3.2,3.2,0,0,1,2.6-1.2q2.7,0,2.7,3v5.6H176v-5.6a2,2,0,0,0-.4-1.4,2.2,2.2,0,0,0-1.3-.4,1.9,1.9,0,0,0-1.2.4,2,2,0,0,0-.8,1v6h-1.5v-8.5Z"/><path d="M179.3,158.5a5,5,0,0,1,.9-3.1,2.9,2.9,0,0,1,2.4-1.2,3,3,0,0,1,2.4,1v-4.4h1.4v12h-1.3v-.9a2.7,2.7,0,0,1-2.4,1,2.9,2.9,0,0,1-2.4-1.2,5,5,0,0,1-.9-3.1Zm1.5.2a3.6,3.6,0,0,0,.5,2.2,2.1,2.1,0,0,0,1.7.8,2.1,2.1,0,0,0,2-1.2v-3.9a2.1,2.1,0,0,0-2-1.2,2.1,2.1,0,0,0-1.7.8A4.4,4.4,0,0,0,180.8,158.7Z"/><path d="M192.2,162.9a3.4,3.4,0,0,1-2.8-1.1,4.1,4.1,0,0,1-1.1-3v-.3a5.1,5.1,0,0,1,.5-2.2,3.2,3.2,0,0,1,3.2-2.1,3,3,0,0,1,2.6,1.1,4.6,4.6,0,0,1,.9,3.1v.6h-5.7a2.7,2.7,0,0,0,.7,2,2.3,2.3,0,0,0,1.8.8,2.8,2.8,0,0,0,1.3-.3l.9-.9.9.7A3.5,3.5,0,0,1,192.2,162.9Zm-.2-7.5a2,2,0,0,0-1.5.6,3,3,0,0,0-.7,1.8H194a2.2,2.2,0,0,0-.6-1.7A1.7,1.7,0,0,0,192,155.4Z"/><path d="M198.5,154.3v1.1a3,3,0,0,1,2.5-1.2q2.7,0,2.7,3v5.6h-1.4v-5.6a2,2,0,0,0-.5-1.4,1.9,1.9,0,0,0-1.2-.4,2,2,0,0,0-1.3.4,2.7,2.7,0,0,0-.8,1v6h-1.4v-8.5Z"/><path d="M207.9,152.3v2h1.6v1.2h-1.6v5.2a1.1,1.1,0,0,0,.3.8,1,1,0,0,0,.7.2h.7v1.2h-1.1a1.7,1.7,0,0,1-1.5-.5,2.9,2.9,0,0,1-.5-1.7v-5.2H205v-1.2h1.5v-2Z"/><path d="M215.5,163.8h-1.3l4.8-12.4h1.2Z"/><path d="M20,179.7a1.2,1.2,0,0,0-.4-.9,3.7,3.7,0,0,0-1.6-.5l-1.7-.6a2.7,2.7,0,0,1-1-.8,1.7,1.7,0,0,1-.3-1,2.3,2.3,0,0,1,.9-1.8,3.3,3.3,0,0,1,2.3-.7,3.5,3.5,0,0,1,2.3.7,2.5,2.5,0,0,1,.9,1.9H19.9a1.1,1.1,0,0,0-.5-1,1.6,1.6,0,0,0-1.2-.4,2.3,2.3,0,0,0-1.3.3,1,1,0,0,0-.4.9.8.8,0,0,0,.4.8,6.4,6.4,0,0,0,1.5.5l1.7.6a2.1,2.1,0,0,1,1,.8,1.5,1.5,0,0,1,.4,1.1,2.3,2.3,0,0,1-.9,1.9,4.3,4.3,0,0,1-2.4.6,4.8,4.8,0,0,1-1.8-.3,4,4,0,0,1-1.2-1,2.4,2.4,0,0,1-.5-1.4h1.5a1.1,1.1,0,0,0,.6,1.1,2,2,0,0,0,1.4.5,1.7,1.7,0,0,0,1.3-.4A.9.9,0,0,0,20,179.7Z"/><path d="M25.3,171.5v2h1.6v1.2H25.3v5.2a1.9,1.9,0,0,0,.2.8l.7.2h.7V182H25.8a1.6,1.6,0,0,1-1.4-.5,2.3,2.3,0,0,1-.5-1.7v-5.2H22.3v-1.2h1.6v-2Z"/><path d="M32.7,174.8h-.8A2,2,0,0,0,30,176v6H28.6v-8.5H30v1a2.3,2.3,0,0,1,2-1.1h.7Z"/><path d="M38.9,182a2,2,0,0,1-.2-.9,3.3,3.3,0,0,1-2.4,1,3,3,0,0,1-2.1-.7,2.2,2.2,0,0,1-.8-1.8,2.6,2.6,0,0,1,1-2,4.8,4.8,0,0,1,2.9-.7h1.4v-.7a1.7,1.7,0,0,0-.5-1.2,1.7,1.7,0,0,0-1.3-.5,2.5,2.5,0,0,0-1.3.4,1.1,1.1,0,0,0-.5,1H33.6a2.1,2.1,0,0,1,.5-1.2,4,4,0,0,1,1.2-1,4.3,4.3,0,0,1,1.7-.3,3.5,3.5,0,0,1,2.3.7,2.8,2.8,0,0,1,.8,2V180a5,5,0,0,0,.3,1.9H38.9Zm-2.4-1.1a2.2,2.2,0,0,0,1.3-.4,2,2,0,0,0,.9-.9v-1.7H37.5c-1.7,0-2.6.5-2.6,1.5a1.2,1.2,0,0,0,.4,1.1A1.6,1.6,0,0,0,36.5,180.9Z"/><path d="M44.3,171.5v2h1.6v1.2H44.3v5.2a1.9,1.9,0,0,0,.2.8l.8.2H46V182H44.8a1.6,1.6,0,0,1-1.4-.5,2.9,2.9,0,0,1-.5-1.7v-5.2H41.4v-1.2h1.5v-2Z"/><path d="M51.1,182.1a3.6,3.6,0,0,1-2.8-1.1,4.1,4.1,0,0,1-1.1-3v-.3a5.1,5.1,0,0,1,.5-2.2,3.6,3.6,0,0,1,1.4-1.6,3.7,3.7,0,0,1,1.8-.5,3,3,0,0,1,2.6,1.1,4.6,4.6,0,0,1,.9,3.1v.6H48.7a2.7,2.7,0,0,0,.7,2,2.5,2.5,0,0,0,1.8.8,2.8,2.8,0,0,0,1.3-.3l.9-.9.9.7A3.5,3.5,0,0,1,51.1,182.1Zm-.2-7.5a1.8,1.8,0,0,0-1.4.6,3,3,0,0,0-.8,1.8H53a3.4,3.4,0,0,0-.6-1.7A2,2,0,0,0,50.9,174.6Z"/><path d="M55.7,177.7a5.3,5.3,0,0,1,.9-3.2,3.4,3.4,0,0,1,2.5-1.1,2.8,2.8,0,0,1,2.4,1.1v-1h1.3v8.3a3.4,3.4,0,0,1-1,2.6,3.6,3.6,0,0,1-2.6.9,3.9,3.9,0,0,1-1.8-.4,2.7,2.7,0,0,1-1.3-1l.7-.9a2.7,2.7,0,0,0,2.3,1.1,2.1,2.1,0,0,0,2.2-2.2v-.8a2.8,2.8,0,0,1-2.3,1,3,3,0,0,1-2.4-1.1A4.8,4.8,0,0,1,55.7,177.7Zm1.5.2a3.6,3.6,0,0,0,.6,2.2,1.9,1.9,0,0,0,1.6.8,2.1,2.1,0,0,0,2-1.2v-3.9a2.1,2.1,0,0,0-2-1.2,1.9,1.9,0,0,0-1.6.8A4.4,4.4,0,0,0,57.2,177.9Z"/><path d="M65.1,171.3a.7.7,0,0,1,.2-.6c.1-.2.3-.2.6-.2a.8.8,0,0,1,.7.2,1,1,0,0,1,0,1.2l-.7.2-.6-.2A.7.7,0,0,1,65.1,171.3ZM66.6,182H65.2v-8.5h1.4Z"/><path d="M72.3,181a2.4,2.4,0,0,0,1.4-.5,1.4,1.4,0,0,0,.6-1.2h1.4a2.4,2.4,0,0,1-.5,1.4,4.3,4.3,0,0,1-1.2,1.1,5.1,5.1,0,0,1-1.7.3,3.3,3.3,0,0,1-2.7-1.1,4.6,4.6,0,0,1-1-3.2v-.2a5.1,5.1,0,0,1,.4-2.2,4.7,4.7,0,0,1,1.3-1.5,4.2,4.2,0,0,1,2-.5,3.6,3.6,0,0,1,2.4.8,3.5,3.5,0,0,1,1,2.2H74.3a1.6,1.6,0,0,0-.6-1.3,1.7,1.7,0,0,0-1.4-.5,1.9,1.9,0,0,0-1.7.8,3.7,3.7,0,0,0-.6,2.3v.2a3.7,3.7,0,0,0,.6,2.3A2.1,2.1,0,0,0,72.3,181Z"/><path d="M81.6,183H80.3l4.8-12.4h1.2Z"/><path d="M93.8,171.5v2h1.6v1.2H93.8v5.2a1.9,1.9,0,0,0,.2.8l.7.2h.7V182H94.3a2,2,0,0,1-1.5-.5,2.9,2.9,0,0,1-.5-1.7v-5.2H90.8v-1.2h1.5v-2Z"/><path d="M100.6,182.1a3.4,3.4,0,0,1-2.8-1.1,3.7,3.7,0,0,1-1.1-3v-.3a4,4,0,0,1,.5-2.2,3.4,3.4,0,0,1,1.3-1.6,4.1,4.1,0,0,1,1.9-.5,2.8,2.8,0,0,1,2.5,1.1,4.1,4.1,0,0,1,1,3.1v.6H98.1a3.3,3.3,0,0,0,.8,2,2.1,2.1,0,0,0,1.7.8,2.3,2.3,0,0,0,1.3-.3,4.3,4.3,0,0,0,1-.9l.9.7A3.6,3.6,0,0,1,100.6,182.1Zm-.2-7.5a2,2,0,0,0-1.5.6,3,3,0,0,0-.7,1.8h4.2a2.2,2.2,0,0,0-.6-1.7A1.7,1.7,0,0,0,100.4,174.6Z"/><path d="M110.8,182a4.6,4.6,0,0,1-.3-.9,3,3,0,0,1-2.4,1,2.7,2.7,0,0,1-2-.7,2.2,2.2,0,0,1-.8-1.8,2.3,2.3,0,0,1,1-2,4.7,4.7,0,0,1,2.8-.7h1.4v-.7a1.6,1.6,0,0,0-.4-1.2,2,2,0,0,0-1.4-.5,2.8,2.8,0,0,0-1.3.4,1.4,1.4,0,0,0-.5,1h-1.4a1.9,1.9,0,0,1,.4-1.2,4,4,0,0,1,1.2-1,4.7,4.7,0,0,1,1.7-.3,3.2,3.2,0,0,1,2.3.7,2.9,2.9,0,0,1,.9,2V180a5,5,0,0,0,.3,1.9h-1.5Zm-2.4-1.1a1.9,1.9,0,0,0,1.2-.4,2,2,0,0,0,.9-.9v-1.7h-1.1q-2.7,0-2.7,1.5a1.3,1.3,0,0,0,.5,1.1A1.6,1.6,0,0,0,108.4,180.9Z"/><path d="M115.6,173.5v1a3.1,3.1,0,0,1,2.5-1.1,2.6,2.6,0,0,1,2.5,1.3,2,2,0,0,1,1.1-.9,2.5,2.5,0,0,1,1.6-.4c1.8,0,2.7,1,2.8,2.9V182h-1.5v-5.6a1.7,1.7,0,0,0-.4-1.3,1.8,1.8,0,0,0-1.4-.5,1.9,1.9,0,0,0-1.3.5,1.5,1.5,0,0,0-.6,1.3V182h-1.5v-5.5c0-1.3-.6-1.9-1.8-1.9a1.9,1.9,0,0,0-1.9,1.2V182h-1.5v-8.5Z"/><path d="M131.3,177.7h-3.8v-1.1h3.8Z"/><path d="M132.3,177.7a5.1,5.1,0,0,1,.5-2.2,4.2,4.2,0,0,1,1.3-1.6,4.6,4.6,0,0,1,2-.5,3.5,3.5,0,0,1,2.8,1.2,4.6,4.6,0,0,1,1.1,3.2h0a5.4,5.4,0,0,1-.5,2.2,4.7,4.7,0,0,1-1.3,1.5,3.6,3.6,0,0,1-2.1.5,3.7,3.7,0,0,1-2.7-1.1,4.3,4.3,0,0,1-1.1-3.2Zm1.4.2a3.8,3.8,0,0,0,.7,2.2,2,2,0,0,0,1.7.9,2,2,0,0,0,1.8-.9,4.3,4.3,0,0,0,.6-2.4,4.1,4.1,0,0,0-.6-2.3,2.3,2.3,0,0,0-1.8-.8,2.1,2.1,0,0,0-1.7.8A4.4,4.4,0,0,0,133.7,177.9Z"/><path d="M145.9,174.8h-.7a2,2,0,0,0-2,1.2v6h-1.4v-8.5h1.4v1a2.4,2.4,0,0,1,2-1.1h.7Z"/><path d="M147.2,171.3a1.4,1.4,0,0,1,.2-.6.8.8,0,0,1,.7-.2c.3,0,.5,0,.6.2a1,1,0,0,1,0,1.2l-.6.2-.7-.2A1.4,1.4,0,0,1,147.2,171.3Zm1.6,10.7h-1.5v-8.5h1.5Z"/><path d="M154.6,182.1a3.6,3.6,0,0,1-2.8-1.1,4.1,4.1,0,0,1-1.1-3v-.3a5.1,5.1,0,0,1,.5-2.2,3.6,3.6,0,0,1,1.4-1.6,3.7,3.7,0,0,1,1.8-.5,3,3,0,0,1,2.6,1.1,4.6,4.6,0,0,1,.9,3.1v.6h-5.7a2.7,2.7,0,0,0,.7,2,2.5,2.5,0,0,0,1.8.8,2.8,2.8,0,0,0,1.3-.3l.9-.9.9.7A3.5,3.5,0,0,1,154.6,182.1Zm-.2-7.5a1.7,1.7,0,0,0-1.4.6,3,3,0,0,0-.8,1.8h4.3a3.4,3.4,0,0,0-.6-1.7A2,2,0,0,0,154.4,174.6Z"/><path d="M160.9,173.5v1.1a3,3,0,0,1,2.5-1.2q2.7,0,2.7,3V182h-1.4v-5.6a2.6,2.6,0,0,0-.4-1.4,2.2,2.2,0,0,0-1.3-.4,2,2,0,0,0-1.3.4,2.7,2.7,0,0,0-.8,1v6h-1.4v-8.5Z"/><path d="M170.4,171.5v2h1.5v1.2h-1.5v5.2a1.1,1.1,0,0,0,.2.8l.7.2h.7V182h-1.1a1.7,1.7,0,0,1-1.5-.5,2.9,2.9,0,0,1-.5-1.7v-5.2h-1.5v-1.2h1.5v-2Z"/><path d="M177.1,182.1a3.7,3.7,0,0,1-2.8-1.1,4,4,0,0,1-1-3v-.3a5.1,5.1,0,0,1,.4-2.2,4.4,4.4,0,0,1,1.4-1.6,4.1,4.1,0,0,1,1.9-.5,2.8,2.8,0,0,1,2.5,1.1,4.6,4.6,0,0,1,.9,3.1v.6h-5.7a3.2,3.2,0,0,0,.7,2,2.6,2.6,0,0,0,3.1.5,2.6,2.6,0,0,0,.9-.9l.9.7A3.4,3.4,0,0,1,177.1,182.1Zm-.1-7.5a2,2,0,0,0-1.5.6,2.5,2.5,0,0,0-.7,1.8H179a3.4,3.4,0,0,0-.6-1.7A1.8,1.8,0,0,0,177,174.6Z"/><path d="M181.8,177.7a5,5,0,0,1,.9-3.1,2.9,2.9,0,0,1,2.4-1.2,2.6,2.6,0,0,1,2.3,1V170h1.5v12h-1.3v-.9a3,3,0,0,1-2.4,1,2.9,2.9,0,0,1-2.4-1.2,5,5,0,0,1-.9-3.1Zm1.4.2a3.6,3.6,0,0,0,.6,2.2,1.9,1.9,0,0,0,1.6.8,2.1,2.1,0,0,0,2-1.2v-3.9a2.1,2.1,0,0,0-2-1.2,1.9,1.9,0,0,0-1.6.8A4.4,4.4,0,0,0,183.2,177.9Z"/><path d="M195.4,183h-1.3l4.8-12.4h1.2Z"/><path d="M210.9,182a2,2,0,0,1-.2-.9,3.3,3.3,0,0,1-2.5,1,2.7,2.7,0,0,1-2-.7,2.2,2.2,0,0,1-.8-1.8,2.3,2.3,0,0,1,1-2,4.7,4.7,0,0,1,2.8-.7h1.4v-.7a1.6,1.6,0,0,0-.4-1.2,2,2,0,0,0-1.4-.5,2.8,2.8,0,0,0-1.3.4,1.4,1.4,0,0,0-.5,1h-1.4a1.9,1.9,0,0,1,.4-1.2,4,4,0,0,1,1.2-1,5.1,5.1,0,0,1,1.7-.3,3.2,3.2,0,0,1,2.3.7,2.5,2.5,0,0,1,.9,2V180a5,5,0,0,0,.3,1.9h-1.5Zm-2.4-1.1a2.4,2.4,0,0,0,1.3-.4,1.4,1.4,0,0,0,.8-.9v-1.7h-1.1q-2.7,0-2.7,1.5a1.3,1.3,0,0,0,.5,1.1A1.6,1.6,0,0,0,208.5,180.9Z"/><path d="M215.9,182h-1.4V170h1.4Z"/><path d="M222.3,174.8h-.7a1.9,1.9,0,0,0-1.9,1.2v6h-1.5v-8.5h1.4v1a2.2,2.2,0,0,1,2-1.1h.6Z"/><path d="M228.9,181.2a3.3,3.3,0,0,1-2.5.9,2.8,2.8,0,0,1-2.1-.7,4,4,0,0,1-.7-2.4v-5.5h1.5V179c0,1.3.5,1.9,1.5,1.9a2.1,2.1,0,0,0,2.2-1.2v-6.2h1.5V182h-1.4Z"/><path d="M232.5,171.3a.7.7,0,0,1,.2-.6c.1-.2.3-.2.6-.2a.8.8,0,0,1,.7.2,1,1,0,0,1,0,1.2l-.7.2-.6-.2A.7.7,0,0,1,232.5,171.3ZM234,182h-1.4v-8.5H234Z"/><path d="M241.3,179.7a1.4,1.4,0,0,0-.5-.9,3.7,3.7,0,0,0-1.5-.5l-1.8-.6a2.4,2.4,0,0,1-.9-.8,1.7,1.7,0,0,1-.3-1,2.3,2.3,0,0,1,.9-1.8,3.1,3.1,0,0,1,2.2-.7,3.3,3.3,0,0,1,2.3.7,2.5,2.5,0,0,1,.9,1.9h-1.4a1.4,1.4,0,0,0-.5-1,2,2,0,0,0-1.3-.4,2.1,2.1,0,0,0-1.2.3,1.1,1.1,0,0,0-.5.9,1,1,0,0,0,.4.8,6.4,6.4,0,0,0,1.5.5l1.8.6a2.7,2.7,0,0,1,1,.8,2,2,0,0,1,.3,1.1,2.3,2.3,0,0,1-.9,1.9,4.1,4.1,0,0,1-2.3.6,4.8,4.8,0,0,1-1.8-.3,3.4,3.4,0,0,1-1.3-1,2.3,2.3,0,0,1-.4-1.4h1.4a1.7,1.7,0,0,0,.6,1.1,2.5,2.5,0,0,0,1.5.5,2,2,0,0,0,1.3-.4A1.1,1.1,0,0,0,241.3,179.7Z"/><path d="M246.6,171.5v2h1.5v1.2h-1.5v5.2a1.1,1.1,0,0,0,.2.8,1,1,0,0,0,.7.2h.7V182h-1.1a1.7,1.7,0,0,1-1.5-.5,2.9,2.9,0,0,1-.5-1.7v-5.2h-1.5v-1.2h1.5v-2Z"/><path d="M249.8,171.3a1.4,1.4,0,0,1,.2-.6.8.8,0,0,1,.7-.2c.3,0,.5,0,.6.2a1,1,0,0,1,0,1.2l-.6.2-.7-.2A1.4,1.4,0,0,1,249.8,171.3Zm1.6,10.7h-1.5v-8.5h1.5Z"/><path d="M257.1,181a1.9,1.9,0,0,0,1.3-.5,1.9,1.9,0,0,0,.7-1.2h1.4a3.4,3.4,0,0,1-.5,1.4,6.9,6.9,0,0,1-1.3,1.1,4.1,4.1,0,0,1-1.6.3,3.4,3.4,0,0,1-2.8-1.1,5.1,5.1,0,0,1-1-3.2v-.2a5.1,5.1,0,0,1,.5-2.2,3.7,3.7,0,0,1,1.3-1.5,3.9,3.9,0,0,1,2-.5,3.6,3.6,0,0,1,2.3.8,3.1,3.1,0,0,1,1.1,2.2h-1.4a2.6,2.6,0,0,0-.6-1.3,2.2,2.2,0,0,0-3.1.3,3.7,3.7,0,0,0-.6,2.3v.2a3.7,3.7,0,0,0,.6,2.3A2,2,0,0,0,257.1,181Z"/></g></svg>