<svg xmlns="http://www.w3.org/2000/svg" width="300" height="300" viewBox="0 0 300 300"><g id="Layer_1" data-name="Layer 1"><rect width="300" height="300" fill="#e6e7e8"/></g><g id="Layer_3" data-name="Layer 3"><path d="M66.7,38V18.2h6.1a10.5,10.5,0,0,1,4.7,1.1,8.8,8.8,0,0,1,3.2,3.4,11,11,0,0,1,1.1,4.9v.9a10.2,10.2,0,0,1-1.1,5,8.5,8.5,0,0,1-3.2,3.3A9.4,9.4,0,0,1,72.8,38Zm4.1-16.5V34.7h1.9a4.3,4.3,0,0,0,3.7-1.6,7,7,0,0,0,1.3-4.4V27.6A7,7,0,0,0,76.4,23a4.3,4.3,0,0,0-3.6-1.5Z"/><path d="M96.7,29.4H88.9v5.3h9.2V38H84.8V18.2H98.1v3.3H88.9v4.7h7.8Z"/><path d="M110.8,32.8a2,2,0,0,0-.9-1.8,11.7,11.7,0,0,0-2.9-1.3,23.5,23.5,0,0,1-3.4-1.4c-2.2-1.2-3.3-2.8-3.3-4.9a4.7,4.7,0,0,1,.9-2.8,5.4,5.4,0,0,1,2.6-2,9.2,9.2,0,0,1,3.8-.7,7.9,7.9,0,0,1,3.8.8,5.8,5.8,0,0,1,2.5,2.1,5.3,5.3,0,0,1,1,3.2h-4.1a2.6,2.6,0,0,0-.9-2.1,3.6,3.6,0,0,0-2.4-.8,3.7,3.7,0,0,0-2.3.7,1.8,1.8,0,0,0-.8,1.6,2.1,2.1,0,0,0,.9,1.7,14.1,14.1,0,0,0,2.9,1.2,13.4,13.4,0,0,1,5.1,2.6,5.3,5.3,0,0,1,1.6,3.9,4.8,4.8,0,0,1-2,4,8.2,8.2,0,0,1-5.2,1.5,9.6,9.6,0,0,1-4.2-.9,6.6,6.6,0,0,1-2.9-2.3,6,6,0,0,1-.9-3.3h4.1c0,2.1,1.3,3.2,3.9,3.2a3.6,3.6,0,0,0,2.2-.6A1.8,1.8,0,0,0,110.8,32.8Z"/><path d="M122,38h-4.1V18.2H122Z"/><path d="M141.4,35.5a6.4,6.4,0,0,1-3.1,2,12.3,12.3,0,0,1-4.4.8,8.2,8.2,0,0,1-7.6-4.4,11.2,11.2,0,0,1-1-5V27.5a11.3,11.3,0,0,1,1-5.1,6.9,6.9,0,0,1,2.9-3.4,8.7,8.7,0,0,1,4.4-1.1,8.4,8.4,0,0,1,5.5,1.7,6.9,6.9,0,0,1,2.3,4.9h-3.9a3.9,3.9,0,0,0-1.2-2.5,4.2,4.2,0,0,0-2.6-.8,3.5,3.5,0,0,0-3.2,1.6,8,8,0,0,0-1.1,4.6v1.3a7.8,7.8,0,0,0,1.2,4.7,4.1,4.1,0,0,0,3.5,1.6,4.5,4.5,0,0,0,3.3-1V30.6h-3.8v-3h7.8Z"/><path d="M160.9,38h-4.1l-8-13.1V38h-4V18.2h4l8,13v-13h4.1Z"/><path d="M176.4,29.4h-7.9v5.3h9.2V38H164.4V18.2h13.3v3.3h-9.2v4.7h7.9Z"/><path d="M187.5,30.7h-3.3V38h-4.1V18.2h7.4a8.7,8.7,0,0,1,5.4,1.5,5.4,5.4,0,0,1,1.9,4.5,5.8,5.8,0,0,1-.9,3.3,5.2,5.2,0,0,1-2.6,2.2l4.3,8.1V38h-4.4Zm-3.3-3.3h3.3a3.2,3.2,0,0,0,2.4-.8,2.5,2.5,0,0,0,.8-2.1,2.6,2.6,0,0,0-.8-2.2,2.9,2.9,0,0,0-2.4-.8h-3.3Z"/><path d="M218,38H204.4V35.3l6.5-6.8a16.8,16.8,0,0,0,1.9-2.6,4.1,4.1,0,0,0,.6-2,3.3,3.3,0,0,0-.6-2.1,2.5,2.5,0,0,0-1.9-.7,2.6,2.6,0,0,0-2.1.9,3.6,3.6,0,0,0-.8,2.4h-3.9a6.2,6.2,0,0,1,.8-3.3,6.4,6.4,0,0,1,2.5-2.4,7.8,7.8,0,0,1,3.5-.8,6.9,6.9,0,0,1,4.8,1.5,5.1,5.1,0,0,1,1.7,4.1,6.7,6.7,0,0,1-.8,3,15.7,15.7,0,0,1-2.6,3.6l-4.5,4.7H218Z"/><path d="M224.4,26.3h2.1a3.2,3.2,0,0,0,2.3-.7,3.2,3.2,0,0,0,.7-2,2.9,2.9,0,0,0-.7-1.9,3.2,3.2,0,0,0-2-.6,3.1,3.1,0,0,0-1.9.6,1.9,1.9,0,0,0-.8,1.6h-3.9a4.7,4.7,0,0,1,.9-2.8,4.8,4.8,0,0,1,2.3-1.9,7.2,7.2,0,0,1,3.3-.7,7.4,7.4,0,0,1,4.9,1.5,5.1,5.1,0,0,1,1.8,4.1,4.1,4.1,0,0,1-.8,2.5,5.5,5.5,0,0,1-2.2,1.8,4.8,4.8,0,0,1,2.5,1.8,4.4,4.4,0,0,1,.8,2.8,5.3,5.3,0,0,1-1.9,4.3,8.2,8.2,0,0,1-5.1,1.6,7.3,7.3,0,0,1-4.8-1.6,4.9,4.9,0,0,1-1.9-4.1h3.9a2.5,2.5,0,0,0,.8,1.8,3.5,3.5,0,0,0,4.3-.1,2.4,2.4,0,0,0,.8-1.9q0-3-3.3-3h-2.1Z"/><path d="M16.5,77.5v1.1A3.2,3.2,0,0,1,19,77.4q2.7,0,2.7,3V86H20.3V80.4a2,2,0,0,0-.4-1.4,2.2,2.2,0,0,0-1.3-.4,1.6,1.6,0,0,0-1.2.4,2.2,2.2,0,0,0-.9,1v6H15.1V77.5Z"/><path d="M27.4,86.1A3.7,3.7,0,0,1,24.6,85a4,4,0,0,1-1-3v-.3a5.1,5.1,0,0,1,.4-2.2,4.4,4.4,0,0,1,1.4-1.6,4.1,4.1,0,0,1,1.9-.5,3,3,0,0,1,2.5,1.1,4.6,4.6,0,0,1,.9,3.1v.6H25a3.2,3.2,0,0,0,.7,2,2.6,2.6,0,0,0,3.1.5,2.6,2.6,0,0,0,.9-.9l.9.7A3.5,3.5,0,0,1,27.4,86.1Zm-.1-7.5a2,2,0,0,0-1.5.6A3,3,0,0,0,25,81h4.3a3.4,3.4,0,0,0-.6-1.7A1.8,1.8,0,0,0,27.3,78.6Z"/><path d="M34.4,75.5v2h1.5v1.2H34.4v5.2a1.1,1.1,0,0,0,.2.8l.7.2H36V86H34.9a1.7,1.7,0,0,1-1.5-.5,2.9,2.9,0,0,1-.5-1.7V78.7H31.4V77.5h1.5v-2Z"/><path d="M45.1,84l1.6-6.5h1.5L45.7,86H44.5l-2-6.4-2,6.4H39.3l-2.4-8.5h1.4L40,83.9l1.9-6.4h1.2Z"/><path d="M49.3,81.7a4,4,0,0,1,.5-2.2,3.4,3.4,0,0,1,1.3-1.6,4.6,4.6,0,0,1,2-.5,3.5,3.5,0,0,1,2.8,1.2A4.6,4.6,0,0,1,57,81.8h0a5.4,5.4,0,0,1-.5,2.2,4,4,0,0,1-1.4,1.5,3.1,3.1,0,0,1-2,.5A3.9,3.9,0,0,1,50.3,85a4.7,4.7,0,0,1-1-3.2Zm1.4.2a3.2,3.2,0,0,0,.7,2.2,2,2,0,0,0,1.7.9,2.1,2.1,0,0,0,1.8-.9,4.3,4.3,0,0,0,.6-2.4,4.1,4.1,0,0,0-.6-2.3,2.5,2.5,0,0,0-1.8-.8,2.1,2.1,0,0,0-1.7.8A3.7,3.7,0,0,0,50.7,81.9Z"/><path d="M62.9,78.8h-.8A2,2,0,0,0,60.2,80v6H58.8V77.5h1.4v1a2.3,2.3,0,0,1,2-1.1h.7Z"/><path d="M66.5,82.1l-.9.9v3H64.2V74h1.4v7.2l.8-.9L69,77.5h1.8l-3.3,3.6L71.2,86H69.5Z"/><path d="M72.3,75.3a1.4,1.4,0,0,1,.2-.6.8.8,0,0,1,.7-.2c.2,0,.5,0,.6.2a1,1,0,0,1,0,1.2l-.6.2-.7-.2A1.4,1.4,0,0,1,72.3,75.3ZM73.9,86H72.4V77.5h1.5Z"/><path d="M77.5,77.5v1.1a3,3,0,0,1,2.5-1.2q2.7,0,2.7,3V86H81.4V80.4A2.6,2.6,0,0,0,81,79a2.2,2.2,0,0,0-1.3-.4,1.6,1.6,0,0,0-1.2.4,2.2,2.2,0,0,0-.9,1v6H76.2V77.5Z"/><path d="M84.7,81.7a5.3,5.3,0,0,1,.9-3.2A3,3,0,0,1,88,77.4a2.8,2.8,0,0,1,2.4,1.1v-1h1.3v8.3a3.4,3.4,0,0,1-1,2.6,3.6,3.6,0,0,1-2.6.9,3.9,3.9,0,0,1-1.8-.4,2.7,2.7,0,0,1-1.3-1l.7-.9a2.8,2.8,0,0,0,2.3,1.1,2.4,2.4,0,0,0,1.7-.6,2.1,2.1,0,0,0,.6-1.6v-.8a3,3,0,0,1-2.4,1A3,3,0,0,1,85.6,85,5.4,5.4,0,0,1,84.7,81.7Zm1.4.2a3.6,3.6,0,0,0,.6,2.2,1.9,1.9,0,0,0,1.6.8,2.2,2.2,0,0,0,2.1-1.2V79.8a2.3,2.3,0,0,0-2-1.2,2.1,2.1,0,0,0-1.7.8A4.4,4.4,0,0,0,86.1,81.9Z"/><path d="M20.3,123.6a3.2,3.2,0,0,1-2.5.9,2.4,2.4,0,0,1-2-.7,3.4,3.4,0,0,1-.7-2.4v-5.5h1.4v5.5c0,1.3.5,1.9,1.6,1.9a2.2,2.2,0,0,0,2.2-1.2v-6.2h1.4v8.5H20.3Z"/><path d="M23.9,113.7a1.4,1.4,0,0,1,.2-.6.8.8,0,0,1,.7-.2c.3,0,.5,0,.6.2a1,1,0,0,1,0,1.2.8.8,0,0,1-.6.2l-.7-.2A1.4,1.4,0,0,1,23.9,113.7Zm1.6,10.7H24v-8.5h1.5Z"/><path d="M32,125.4H30.8L35.6,113h1.2Z"/><path d="M43.7,115.9v1a3,3,0,0,1,2.5-1.1,2.3,2.3,0,0,1,2.4,1.3,3.1,3.1,0,0,1,1.1-.9,2.9,2.9,0,0,1,1.6-.4c1.9,0,2.8,1,2.9,2.9v5.7H52.7v-5.6a1.7,1.7,0,0,0-.4-1.3,1.8,1.8,0,0,0-1.4-.5,1.9,1.9,0,0,0-1.3.5,1.5,1.5,0,0,0-.6,1.3v5.6H47.5v-5.5c0-1.3-.6-1.9-1.8-1.9a1.8,1.8,0,0,0-1.9,1.2v6.2H42.3v-8.5Z"/><path d="M56,120.1a5.1,5.1,0,0,1,.4-2.2,4.4,4.4,0,0,1,1.4-1.6,4.2,4.2,0,0,1,2-.5,3.6,3.6,0,0,1,2.8,1.2,4.6,4.6,0,0,1,1,3.2h0a5.4,5.4,0,0,1-.4,2.2,4,4,0,0,1-1.4,1.5,3.3,3.3,0,0,1-2,.5,3.9,3.9,0,0,1-2.8-1.1,4.7,4.7,0,0,1-1-3.2Zm1.4.2a3.2,3.2,0,0,0,.7,2.2,2,2,0,0,0,1.7.9,2.3,2.3,0,0,0,1.8-.9,4.3,4.3,0,0,0,.6-2.4,3.5,3.5,0,0,0-.7-2.3,2.2,2.2,0,0,0-3.4,0A3.7,3.7,0,0,0,57.4,120.3Z"/><path d="M67.4,113.9v2H69v1.2H67.4v5.2a1.9,1.9,0,0,0,.2.8,1.5,1.5,0,0,0,.8.2H69v1.2H67.9a1.6,1.6,0,0,1-1.4-.5,2.3,2.3,0,0,1-.5-1.7v-5.2H64.4v-1.2H66v-2Z"/><path d="M70.7,113.7a1.4,1.4,0,0,1,.2-.6.7.7,0,0,1,.6-.2.8.8,0,0,1,.7.2,1,1,0,0,1,0,1.2l-.7.2-.6-.2A1.4,1.4,0,0,1,70.7,113.7Zm1.6,10.7H70.8v-8.5h1.5Z"/><path d="M74.2,120.1a5.1,5.1,0,0,1,.5-2.2,4.2,4.2,0,0,1,1.3-1.6,4.6,4.6,0,0,1,2-.5,3.5,3.5,0,0,1,2.8,1.2,4.6,4.6,0,0,1,1.1,3.2h0a5.4,5.4,0,0,1-.5,2.2,4.7,4.7,0,0,1-1.3,1.5,3.6,3.6,0,0,1-2.1.5,3.7,3.7,0,0,1-2.7-1.1,4.3,4.3,0,0,1-1.1-3.2Zm1.4.2a3.8,3.8,0,0,0,.7,2.2,2,2,0,0,0,1.7.9,2,2,0,0,0,1.8-.9,4.3,4.3,0,0,0,.6-2.4,4.1,4.1,0,0,0-.6-2.3A2.3,2.3,0,0,0,78,117a2.1,2.1,0,0,0-1.7.8A4.4,4.4,0,0,0,75.6,120.3Z"/><path d="M85.1,115.9V117a3.2,3.2,0,0,1,2.5-1.2q2.7,0,2.7,3v5.6H88.9v-5.6a2,2,0,0,0-.4-1.4,2.2,2.2,0,0,0-1.3-.4,1.6,1.6,0,0,0-1.2.4,2.2,2.2,0,0,0-.9,1v6H83.7v-8.5Z"/><path d="M96.8,125.4H95.5l4.8-12.4h1.2Z"/><path d="M114.2,120.3a5.2,5.2,0,0,1-.9,3.1,2.8,2.8,0,0,1-2.4,1.1,3.2,3.2,0,0,1-2.4-.9v4H107V115.9h1.4v1a2.8,2.8,0,0,1,2.5-1.1,3,3,0,0,1,2.4,1.1,5.3,5.3,0,0,1,.9,3.2Zm-1.5-.2a3.9,3.9,0,0,0-.6-2.3,1.9,1.9,0,0,0-1.6-.8,2.1,2.1,0,0,0-2,1.2v4a2.1,2.1,0,0,0,2,1.2,1.8,1.8,0,0,0,1.6-.9A3.8,3.8,0,0,0,112.7,120.1Z"/><path d="M120.1,117.2h-.7a1.8,1.8,0,0,0-1.9,1.2v6H116v-8.5h1.4v1a2.5,2.5,0,0,1,2.1-1.1h.6Z"/><path d="M121.4,113.7a.9.9,0,0,1,.3-.6c.1-.2.3-.2.6-.2s.5,0,.6.2a1,1,0,0,1,0,1.2l-.6.2a.8.8,0,0,1-.6-.2A.9.9,0,0,1,121.4,113.7Zm1.6,10.7h-1.4v-8.5H123Z"/><path d="M126.7,115.9V117a3.2,3.2,0,0,1,2.6-1.2q2.5,0,2.7,3v5.6h-1.5v-5.6a2,2,0,0,0-.4-1.4,2.2,2.2,0,0,0-1.3-.4,1.7,1.7,0,0,0-1.2.4,2,2,0,0,0-.8,1v6h-1.5v-8.5Z"/><path d="M136.1,113.9v2h1.6v1.2h-1.6v5.2a1.9,1.9,0,0,0,.2.8l.7.2h.7v1.2h-1.1a2,2,0,0,1-1.5-.5,2.9,2.9,0,0,1-.4-1.7v-5.2h-1.6v-1.2h1.6v-2Z"/><path d="M14.8,158.5a5.3,5.3,0,0,1,.9-3.2,3,3,0,0,1,2.4-1.1,2.8,2.8,0,0,1,2.4,1.1v-1h1.3v8.3a3.4,3.4,0,0,1-1,2.6,3.6,3.6,0,0,1-2.6.9,3.9,3.9,0,0,1-1.8-.4,2.7,2.7,0,0,1-1.3-1l.7-.9a2.7,2.7,0,0,0,2.3,1.1,2,2,0,0,0,1.6-.6,2.1,2.1,0,0,0,.6-1.6v-.8a2.6,2.6,0,0,1-2.3,1,3,3,0,0,1-2.4-1.1A5.4,5.4,0,0,1,14.8,158.5Zm1.4.2a3.6,3.6,0,0,0,.6,2.2,1.9,1.9,0,0,0,1.6.8,2.1,2.1,0,0,0,2-1.2v-3.9a2.1,2.1,0,0,0-2-1.2,1.9,1.9,0,0,0-1.6.8A4.4,4.4,0,0,0,16.2,158.7Z"/><path d="M23.7,158.5a5.1,5.1,0,0,1,.5-2.2,4.2,4.2,0,0,1,1.3-1.6,4.6,4.6,0,0,1,2-.5,3.5,3.5,0,0,1,2.8,1.2,4.6,4.6,0,0,1,1.1,3.2h0a5.4,5.4,0,0,1-.5,2.2,4.7,4.7,0,0,1-1.3,1.5,3.6,3.6,0,0,1-2.1.5,3.7,3.7,0,0,1-2.7-1.1,4.3,4.3,0,0,1-1.1-3.2Zm1.4.2a3.8,3.8,0,0,0,.7,2.2,2,2,0,0,0,1.7.9,2,2,0,0,0,1.8-.9,4.3,4.3,0,0,0,.6-2.4,4.1,4.1,0,0,0-.6-2.3,2.3,2.3,0,0,0-1.8-.8,2.1,2.1,0,0,0-1.7.8A4.4,4.4,0,0,0,25.1,158.7Z"/><path d="M38.4,162.8a6.4,6.4,0,0,1-.2-.9,3.3,3.3,0,0,1-2.4,1,2.7,2.7,0,0,1-2-.7,1.9,1.9,0,0,1-.8-1.8,2.3,2.3,0,0,1,1-2,4.5,4.5,0,0,1,2.8-.7h1.4V157a1.7,1.7,0,0,0-.5-1.2,1.7,1.7,0,0,0-1.3-.5,2.8,2.8,0,0,0-1.3.4,1.4,1.4,0,0,0-.5,1H33.1a2.1,2.1,0,0,1,.5-1.2,4,4,0,0,1,1.2-1,4.7,4.7,0,0,1,1.7-.3,3.3,3.3,0,0,1,2.3.7,2.8,2.8,0,0,1,.8,2v3.9a5,5,0,0,0,.3,1.9H38.4ZM36,161.7a2,2,0,0,0,1.3-.4,2,2,0,0,0,.9-.9v-1.7H37.1q-2.7,0-2.7,1.5c0,.5.1.9.5,1.1A1.4,1.4,0,0,0,36,161.7Z"/><path d="M43.5,162.8H42v-12h1.5Z"/><path d="M48.8,158.5H45v-1.1h3.8Z"/><path d="M49.8,158.5a5.1,5.1,0,0,1,.5-2.2,3.6,3.6,0,0,1,1.4-1.6,3.8,3.8,0,0,1,1.9-.5,3.5,3.5,0,0,1,2.8,1.2,4.2,4.2,0,0,1,1.1,3.2h0a4.2,4.2,0,0,1-.5,2.2,3.7,3.7,0,0,1-1.3,1.5,3.5,3.5,0,0,1-2,.5,3.8,3.8,0,0,1-2.8-1.1,4.8,4.8,0,0,1-1.1-3.2Zm1.5.2a3.8,3.8,0,0,0,.6,2.2,2.1,2.1,0,0,0,1.8.9,2,2,0,0,0,1.7-.9,4.3,4.3,0,0,0,.7-2.4,4.2,4.2,0,0,0-.7-2.3,2.2,2.2,0,0,0-1.8-.8,2.3,2.3,0,0,0-1.7.8A4.4,4.4,0,0,0,51.3,158.7Z"/><path d="M63.4,155.6h-.7a1.8,1.8,0,0,0-1.9,1.2v6H59.3v-8.5h1.4v1a2.2,2.2,0,0,1,2-1.1h.6Z"/><path d="M64.7,152.1a.9.9,0,0,1,.3-.6c.1-.2.3-.2.6-.2s.5,0,.6.2a.7.7,0,0,1,0,1.2.8.8,0,0,1-.6.2l-.6-.2A.9.9,0,0,1,64.7,152.1Zm1.6,10.7H64.9v-8.5h1.4Z"/><path d="M72.1,162.9a3.6,3.6,0,0,1-2.8-1.1,4,4,0,0,1-1-3v-.3a5.1,5.1,0,0,1,.4-2.2,4.4,4.4,0,0,1,1.4-1.6,3.7,3.7,0,0,1,1.8-.5,3,3,0,0,1,2.6,1.1,4.6,4.6,0,0,1,.9,3.1v.6H69.7a3.2,3.2,0,0,0,.7,2,2.5,2.5,0,0,0,1.8.8,2.8,2.8,0,0,0,1.3-.3,2.6,2.6,0,0,0,.9-.9l.9.7A3.5,3.5,0,0,1,72.1,162.9Zm-.2-7.5a2,2,0,0,0-1.4.6,3,3,0,0,0-.8,1.8H74a3.4,3.4,0,0,0-.6-1.7A2,2,0,0,0,71.9,155.4Z"/><path d="M78.5,154.3v1.1a3.2,3.2,0,0,1,2.5-1.2q2.7,0,2.7,3v5.6H82.3v-5.6a2,2,0,0,0-.4-1.4,2.2,2.2,0,0,0-1.3-.4,1.6,1.6,0,0,0-1.2.4,2.2,2.2,0,0,0-.9,1v6H77.1v-8.5Z"/><path d="M87.9,152.3v2h1.6v1.2H87.9v5.2a1.9,1.9,0,0,0,.2.8l.7.2h.7v1.2H88.4a1.8,1.8,0,0,1-1.5-.5,2.9,2.9,0,0,1-.5-1.7v-5.2H84.9v-1.2h1.5v-2Z"/><path d="M94.7,162.9a3.4,3.4,0,0,1-2.8-1.1,3.7,3.7,0,0,1-1.1-3v-.3a4,4,0,0,1,.5-2.2,3.4,3.4,0,0,1,1.3-1.6,4.1,4.1,0,0,1,1.9-.5,2.8,2.8,0,0,1,2.5,1.1,4.6,4.6,0,0,1,1,3.1v.6H92.2a2.8,2.8,0,0,0,.8,2,2.1,2.1,0,0,0,1.7.8,2.5,2.5,0,0,0,1.3-.3,4.3,4.3,0,0,0,1-.9l.8.7A3.4,3.4,0,0,1,94.7,162.9Zm-.2-7.5a2,2,0,0,0-1.5.6,3,3,0,0,0-.7,1.8h4.2a2.2,2.2,0,0,0-.6-1.7A1.7,1.7,0,0,0,94.5,155.4Z"/><path d="M99.3,158.5a5,5,0,0,1,.9-3.1,2.9,2.9,0,0,1,2.4-1.2,3,3,0,0,1,2.4,1v-4.4h1.4v12h-1.3v-.9a3,3,0,0,1-2.4,1,2.9,2.9,0,0,1-2.4-1.2,5,5,0,0,1-.9-3.1Zm1.4.2a3.6,3.6,0,0,0,.6,2.2,2.1,2.1,0,0,0,1.7.8,2.2,2.2,0,0,0,2-1.2v-3.9a2.2,2.2,0,0,0-2-1.2,2.1,2.1,0,0,0-1.7.8A4.4,4.4,0,0,0,100.7,158.7Z"/><path d="M112.9,163.8h-1.2l4.7-12.4h1.2Z"/><path d="M123.2,152.1a.7.7,0,0,1,.2-.6c.1-.2.3-.2.6-.2a.8.8,0,0,1,.7.2,1,1,0,0,1,0,1.2l-.7.2-.6-.2A.7.7,0,0,1,123.2,152.1Zm1.5,10.7h-1.4v-8.5h1.4Z"/><path d="M128.4,154.3v1.1a3,3,0,0,1,2.5-1.2q2.7,0,2.7,3v5.6h-1.4v-5.6a2.6,2.6,0,0,0-.5-1.4,1.9,1.9,0,0,0-1.2-.4,2,2,0,0,0-1.3.4,2.7,2.7,0,0,0-.8,1v6H127v-8.5Z"/><path d="M135.5,158.5a5,5,0,0,1,.9-3.1,3.2,3.2,0,0,1,2.5-1.2,2.9,2.9,0,0,1,2.3,1v-4.4h1.5v12h-1.4v-.9a3,3,0,0,1-2.5,1,3.1,3.1,0,0,1-2.4-1.2,5,5,0,0,1-.9-3.1Zm1.5.2a3.6,3.6,0,0,0,.6,2.2,1.9,1.9,0,0,0,1.6.8,2.1,2.1,0,0,0,2-1.2v-3.9a2.1,2.1,0,0,0-2-1.2,1.9,1.9,0,0,0-1.6.8A4.4,4.4,0,0,0,137,158.7Z"/><path d="M148.4,162.9a3.6,3.6,0,0,1-2.8-1.1,4.1,4.1,0,0,1-1.1-3v-.3a5.1,5.1,0,0,1,.5-2.2,3.6,3.6,0,0,1,1.4-1.6,3.7,3.7,0,0,1,1.8-.5,3,3,0,0,1,2.6,1.1,4.6,4.6,0,0,1,.9,3.1v.6H146a2.7,2.7,0,0,0,.7,2,2.5,2.5,0,0,0,1.8.8,2.8,2.8,0,0,0,1.3-.3,7.6,7.6,0,0,0,.9-.9l.9.7A3.5,3.5,0,0,1,148.4,162.9Zm-.2-7.5a1.8,1.8,0,0,0-1.4.6,3,3,0,0,0-.8,1.8h4.3a3.4,3.4,0,0,0-.6-1.7A2,2,0,0,0,148.2,155.4Z"/><path d="M160.5,158.7a5.2,5.2,0,0,1-.9,3.1,2.8,2.8,0,0,1-2.4,1.1,3.2,3.2,0,0,1-2.4-.9v4h-1.4V154.3h1.3v1a2.8,2.8,0,0,1,2.4-1.1,3,3,0,0,1,2.4,1.1,5.3,5.3,0,0,1,.9,3.2Zm-1.4-.2a3.9,3.9,0,0,0-.6-2.3,2.1,2.1,0,0,0-1.7-.8,2.2,2.2,0,0,0-2,1.2v4a2.2,2.2,0,0,0,2,1.2,2.1,2.1,0,0,0,1.7-.9A3.8,3.8,0,0,0,159.1,158.5Z"/><path d="M165.9,162.9a3.4,3.4,0,0,1-2.8-1.1,3.7,3.7,0,0,1-1.1-3v-.3a4,4,0,0,1,.5-2.2,3.4,3.4,0,0,1,1.3-1.6,4.1,4.1,0,0,1,1.9-.5,2.8,2.8,0,0,1,2.5,1.1,4.1,4.1,0,0,1,1,3.1v.6h-5.8a3.3,3.3,0,0,0,.8,2,2.1,2.1,0,0,0,1.7.8,2.5,2.5,0,0,0,1.3-.3,4.3,4.3,0,0,0,1-.9l.8.7A3.4,3.4,0,0,1,165.9,162.9Zm-.2-7.5a2,2,0,0,0-1.5.6,3,3,0,0,0-.7,1.8h4.2a2.2,2.2,0,0,0-.6-1.7A1.7,1.7,0,0,0,165.7,155.4Z"/><path d="M172.2,154.3v1.1a3.2,3.2,0,0,1,2.6-1.2q2.7,0,2.7,3v5.6H176v-5.6a2,2,0,0,0-.4-1.4,2.2,2.2,0,0,0-1.3-.4,1.9,1.9,0,0,0-1.2.4,2,2,0,0,0-.8,1v6h-1.5v-8.5Z"/><path d="M179.3,158.5a5,5,0,0,1,.9-3.1,2.9,2.9,0,0,1,2.4-1.2,3,3,0,0,1,2.4,1v-4.4h1.4v12h-1.3v-.9a2.7,2.7,0,0,1-2.4,1,2.9,2.9,0,0,1-2.4-1.2,5,5,0,0,1-.9-3.1Zm1.5.2a3.6,3.6,0,0,0,.5,2.2,2.1,2.1,0,0,0,1.7.8,2.1,2.1,0,0,0,2-1.2v-3.9a2.1,2.1,0,0,0-2-1.2,2.1,2.1,0,0,0-1.7.8A4.4,4.4,0,0,0,180.8,158.7Z"/><path d="M192.2,162.9a3.4,3.4,0,0,1-2.8-1.1,4.1,4.1,0,0,1-1.1-3v-.3a5.1,5.1,0,0,1,.5-2.2,3.2,3.2,0,0,1,3.2-2.1,3,3,0,0,1,2.6,1.1,4.6,4.6,0,0,1,.9,3.1v.6h-5.7a2.7,2.7,0,0,0,.7,2,2.3,2.3,0,0,0,1.8.8,2.8,2.8,0,0,0,1.3-.3l.9-.9.9.7A3.5,3.5,0,0,1,192.2,162.9Zm-.2-7.5a2,2,0,0,0-1.5.6,3,3,0,0,0-.7,1.8H194a2.2,2.2,0,0,0-.6-1.7A1.7,1.7,0,0,0,192,155.4Z"/><path d="M198.5,154.3v1.1a3,3,0,0,1,2.5-1.2q2.7,0,2.7,3v5.6h-1.4v-5.6a2,2,0,0,0-.5-1.4,1.9,1.9,0,0,0-1.2-.4,2,2,0,0,0-1.3.4,2.7,2.7,0,0,0-.8,1v6h-1.4v-8.5Z"/><path d="M207.9,152.3v2h1.6v1.2h-1.6v5.2a1.1,1.1,0,0,0,.3.8,1,1,0,0,0,.7.2h.7v1.2h-1.1a1.7,1.7,0,0,1-1.5-.5,2.9,2.9,0,0,1-.5-1.7v-5.2H205v-1.2h1.5v-2Z"/><path d="M215.5,163.8h-1.3l4.8-12.4h1.2Z"/><path d="M20,179.7a1.2,1.2,0,0,0-.4-.9,3.7,3.7,0,0,0-1.6-.5l-1.7-.6a2.7,2.7,0,0,1-1-.8,1.7,1.7,0,0,1-.3-1,2.3,2.3,0,0,1,.9-1.8,3.3,3.3,0,0,1,2.3-.7,3.5,3.5,0,0,1,2.3.7,2.5,2.5,0,0,1,.9,1.9H19.9a1.1,1.1,0,0,0-.5-1,1.6,1.6,0,0,0-1.2-.4,2.3,2.3,0,0,0-1.3.3,1,1,0,0,0-.4.9.8.8,0,0,0,.4.8,6.4,6.4,0,0,0,1.5.5l1.7.6a2.1,2.1,0,0,1,1,.8,1.5,1.5,0,0,1,.4,1.1,2.3,2.3,0,0,1-.9,1.9,4.3,4.3,0,0,1-2.4.6,4.8,4.8,0,0,1-1.8-.3,4,4,0,0,1-1.2-1,2.4,2.4,0,0,1-.5-1.4h1.5a1.1,1.1,0,0,0,.6,1.1,2,2,0,0,0,1.4.5,1.7,1.7,0,0,0,1.3-.4A.9.9,0,0,0,20,179.7Z"/><path d="M25.3,171.5v2h1.6v1.2H25.3v5.2a1.9,1.9,0,0,0,.2.8l.7.2h.7V182H25.8a1.6,1.6,0,0,1-1.4-.5,2.3,2.3,0,0,1-.5-1.7v-5.2H22.3v-1.2h1.6v-2Z"/><path d="M32.7,174.8h-.8A2,2,0,0,0,30,176v6H28.6v-8.5H30v1a2.3,2.3,0,0,1,2-1.1h.7Z"/><path d="M38.9,182a2,2,0,0,1-.2-.9,3.3,3.3,0,0,1-2.4,1,3,3,0,0,1-2.1-.7,2.2,2.2,0,0,1-.8-1.8,2.6,2.6,0,0,1,1-2,4.8,4.8,0,0,1,2.9-.7h1.4v-.7a1.7,1.7,0,0,0-.5-1.2,1.7,1.7,0,0,0-1.3-.5,2.5,2.5,0,0,0-1.3.4,1.1,1.1,0,0,0-.5,1H33.6a2.1,2.1,0,0,1,.5-1.2,4,4,0,0,1,1.2-1,4.3,4.3,0,0,1,1.7-.3,3.5,3.5,0,0,1,2.3.7,2.8,2.8,0,0,1,.8,2V180a5,5,0,0,0,.3,1.9H38.9Zm-2.4-1.1a2.2,2.2,0,0,0,1.3-.4,2,2,0,0,0,.9-.9v-1.7H37.5c-1.7,0-2.6.5-2.6,1.5a1.2,1.2,0,0,0,.4,1.1A1.6,1.6,0,0,0,36.5,180.9Z"/><path d="M44.3,171.5v2h1.6v1.2H44.3v5.2a1.9,1.9,0,0,0,.2.8l.8.2H46V182H44.8a1.6,1.6,0,0,1-1.4-.5,2.9,2.9,0,0,1-.5-1.7v-5.2H41.4v-1.2h1.5v-2Z"/><path d="M51.1,182.1a3.6,3.6,0,0,1-2.8-1.1,4.1,4.1,0,0,1-1.1-3v-.3a5.1,5.1,0,0,1,.5-2.2,3.6,3.6,0,0,1,1.4-1.6,3.7,3.7,0,0,1,1.8-.5,3,3,0,0,1,2.6,1.1,4.6,4.6,0,0,1,.9,3.1v.6H48.7a2.7,2.7,0,0,0,.7,2,2.5,2.5,0,0,0,1.8.8,2.8,2.8,0,0,0,1.3-.3l.9-.9.9.7A3.5,3.5,0,0,1,51.1,182.1Zm-.2-7.5a1.8,1.8,0,0,0-1.4.6,3,3,0,0,0-.8,1.8H53a3.4,3.4,0,0,0-.6-1.7A2,2,0,0,0,50.9,174.6Z"/><path d="M55.7,177.7a5.3,5.3,0,0,1,.9-3.2,3.4,3.4,0,0,1,2.5-1.1,2.8,2.8,0,0,1,2.4,1.1v-1h1.3v8.3a3.4,3.4,0,0,1-1,2.6,3.6,3.6,0,0,1-2.6.9,3.9,3.9,0,0,1-1.8-.4,2.7,2.7,0,0,1-1.3-1l.7-.9a2.7,2.7,0,0,0,2.3,1.1,2.1,2.1,0,0,0,2.2-2.2v-.8a2.8,2.8,0,0,1-2.3,1,3,3,0,0,1-2.4-1.1A4.8,4.8,0,0,1,55.7,177.7Zm1.5.2a3.6,3.6,0,0,0,.6,2.2,1.9,1.9,0,0,0,1.6.8,2.1,2.1,0,0,0,2-1.2v-3.9a2.1,2.1,0,0,0-2-1.2,1.9,1.9,0,0,0-1.6.8A4.4,4.4,0,0,0,57.2,177.9Z"/><path d="M65.1,171.3a.7.7,0,0,1,.2-.6c.1-.2.3-.2.6-.2a.8.8,0,0,1,.7.2,1,1,0,0,1,0,1.2l-.7.2-.6-.2A.7.7,0,0,1,65.1,171.3ZM66.6,182H65.2v-8.5h1.4Z"/><path d="M72.3,181a2.4,2.4,0,0,0,1.4-.5,1.4,1.4,0,0,0,.6-1.2h1.4a2.4,2.4,0,0,1-.5,1.4,4.3,4.3,0,0,1-1.2,1.1,5.1,5.1,0,0,1-1.7.3,3.3,3.3,0,0,1-2.7-1.1,4.6,4.6,0,0,1-1-3.2v-.2a5.1,5.1,0,0,1,.4-2.2,4.7,4.7,0,0,1,1.3-1.5,4.2,4.2,0,0,1,2-.5,3.6,3.6,0,0,1,2.4.8,3.5,3.5,0,0,1,1,2.2H74.3a1.6,1.6,0,0,0-.6-1.3,1.7,1.7,0,0,0-1.4-.5,1.9,1.9,0,0,0-1.7.8,3.7,3.7,0,0,0-.6,2.3v.2a3.7,3.7,0,0,0,.6,2.3A2.1,2.1,0,0,0,72.3,181Z"/><path d="M81.6,183H80.3l4.8-12.4h1.2Z"/><path d="M93.8,171.5v2h1.6v1.2H93.8v5.2a1.9,1.9,0,0,0,.2.8l.7.2h.7V182H94.3a2,2,0,0,1-1.5-.5,2.9,2.9,0,0,1-.5-1.7v-5.2H90.8v-1.2h1.5v-2Z"/><path d="M100.6,182.1a3.4,3.4,0,0,1-2.8-1.1,3.7,3.7,0,0,1-1.1-3v-.3a4,4,0,0,1,.5-2.2,3.4,3.4,0,0,1,1.3-1.6,4.1,4.1,0,0,1,1.9-.5,2.8,2.8,0,0,1,2.5,1.1,4.1,4.1,0,0,1,1,3.1v.6H98.1a3.3,3.3,0,0,0,.8,2,2.1,2.1,0,0,0,1.7.8,2.3,2.3,0,0,0,1.3-.3,4.3,4.3,0,0,0,1-.9l.9.7A3.6,3.6,0,0,1,100.6,182.1Zm-.2-7.5a2,2,0,0,0-1.5.6,3,3,0,0,0-.7,1.8h4.2a2.2,2.2,0,0,0-.6-1.7A1.7,1.7,0,0,0,100.4,174.6Z"/><path d="M110.8,182a4.6,4.6,0,0,1-.3-.9,3,3,0,0,1-2.4,1,2.7,2.7,0,0,1-2-.7,2.2,2.2,0,0,1-.8-1.8,2.3,2.3,0,0,1,1-2,4.7,4.7,0,0,1,2.8-.7h1.4v-.7a1.6,1.6,0,0,0-.4-1.2,2,2,0,0,0-1.4-.5,2.8,2.8,0,0,0-1.3.4,1.4,1.4,0,0,0-.5,1h-1.4a1.9,1.9,0,0,1,.4-1.2,4,4,0,0,1,1.2-1,4.7,4.7,0,0,1,1.7-.3,3.2,3.2,0,0,1,2.3.7,2.9,2.9,0,0,1,.9,2V180a5,5,0,0,0,.3,1.9h-1.5Zm-2.4-1.1a1.9,1.9,0,0,0,1.2-.4,2,2,0,0,0,.9-.9v-1.7h-1.1q-2.7,0-2.7,1.5a1.3,1.3,0,0,0,.5,1.1A1.6,1.6,0,0,0,108.4,180.9Z"/><path d="M115.6,173.5v1a3.1,3.1,0,0,1,2.5-1.1,2.6,2.6,0,0,1,2.5,1.3,2,2,0,0,1,1.1-.9,2.5,2.5,0,0,1,1.6-.4c1.8,0,2.7,1,2.8,2.9V182h-1.5v-5.6a1.7,1.7,0,0,0-.4-1.3,1.8,1.8,0,0,0-1.4-.5,1.9,1.9,0,0,0-1.3.5,1.5,1.5,0,0,0-.6,1.3V182h-1.5v-5.5c0-1.3-.6-1.9-1.8-1.9a1.9,1.9,0,0,0-1.9,1.2V182h-1.5v-8.5Z"/><path d="M131.3,177.7h-3.8v-1.1h3.8Z"/><path d="M132.3,177.7a5.1,5.1,0,0,1,.5-2.2,4.2,4.2,0,0,1,1.3-1.6,4.6,4.6,0,0,1,2-.5,3.5,3.5,0,0,1,2.8,1.2,4.6,4.6,0,0,1,1.1,3.2h0a5.4,5.4,0,0,1-.5,2.2,4.7,4.7,0,0,1-1.3,1.5,3.6,3.6,0,0,1-2.1.5,3.7,3.7,0,0,1-2.7-1.1,4.3,4.3,0,0,1-1.1-3.2Zm1.4.2a3.8,3.8,0,0,0,.7,2.2,2,2,0,0,0,1.7.9,2,2,0,0,0,1.8-.9,4.3,4.3,0,0,0,.6-2.4,4.1,4.1,0,0,0-.6-2.3,2.3,2.3,0,0,0-1.8-.8,2.1,2.1,0,0,0-1.7.8A4.4,4.4,0,0,0,133.7,177.9Z"/><path d="M145.9,174.8h-.7a2,2,0,0,0-2,1.2v6h-1.4v-8.5h1.4v1a2.4,2.4,0,0,1,2-1.1h.7Z"/><path d="M147.2,171.3a1.4,1.4,0,0,1,.2-.6.8.8,0,0,1,.7-.2c.3,0,.5,0,.6.2a1,1,0,0,1,0,1.2l-.6.2-.7-.2A1.4,1.4,0,0,1,147.2,171.3Zm1.6,10.7h-1.5v-8.5h1.5Z"/><path d="M154.6,182.1a3.6,3.6,0,0,1-2.8-1.1,4.1,4.1,0,0,1-1.1-3v-.3a5.1,5.1,0,0,1,.5-2.2,3.6,3.6,0,0,1,1.4-1.6,3.7,3.7,0,0,1,1.8-.5,3,3,0,0,1,2.6,1.1,4.6,4.6,0,0,1,.9,3.1v.6h-5.7a2.7,2.7,0,0,0,.7,2,2.5,2.5,0,0,0,1.8.8,2.8,2.8,0,0,0,1.3-.3l.9-.9.9.7A3.5,3.5,0,0,1,154.6,182.1Zm-.2-7.5a1.7,1.7,0,0,0-1.4.6,3,3,0,0,0-.8,1.8h4.3a3.4,3.4,0,0,0-.6-1.7A2,2,0,0,0,154.4,174.6Z"/><path d="M160.9,173.5v1.1a3,3,0,0,1,2.5-1.2q2.7,0,2.7,3V182h-1.4v-5.6a2.6,2.6,0,0,0-.4-1.4,2.2,2.2,0,0,0-1.3-.4,2,2,0,0,0-1.3.4,2.7,2.7,0,0,0-.8,1v6h-1.4v-8.5Z"/><path d="M170.4,171.5v2h1.5v1.2h-1.5v5.2a1.1,1.1,0,0,0,.2.8l.7.2h.7V182h-1.1a1.7,1.7,0,0,1-1.5-.5,2.9,2.9,0,0,1-.5-1.7v-5.2h-1.5v-1.2h1.5v-2Z"/><path d="M177.1,182.1a3.7,3.7,0,0,1-2.8-1.1,4,4,0,0,1-1-3v-.3a5.1,5.1,0,0,1,.4-2.2,4.4,4.4,0,0,1,1.4-1.6,4.1,4.1,0,0,1,1.9-.5,2.8,2.8,0,0,1,2.5,1.1,4.6,4.6,0,0,1,.9,3.1v.6h-5.7a3.2,3.2,0,0,0,.7,2,2.6,2.6,0,0,0,3.1.5,2.6,2.6,0,0,0,.9-.9l.9.7A3.4,3.4,0,0,1,177.1,182.1Zm-.1-7.5a2,2,0,0,0-1.5.6,2.5,2.5,0,0,0-.7,1.8H179a3.4,3.4,0,0,0-.6-1.7A1.8,1.8,0,0,0,177,174.6Z"/><path d="M181.8,177.7a5,5,0,0,1,.9-3.1,2.9,2.9,0,0,1,2.4-1.2,2.6,2.6,0,0,1,2.3,1V170h1.5v12h-1.3v-.9a3,3,0,0,1-2.4,1,2.9,2.9,0,0,1-2.4-1.2,5,5,0,0,1-.9-3.1Zm1.4.2a3.6,3.6,0,0,0,.6,2.2,1.9,1.9,0,0,0,1.6.8,2.1,2.1,0,0,0,2-1.2v-3.9a2.1,2.1,0,0,0-2-1.2,1.9,1.9,0,0,0-1.6.8A4.4,4.4,0,0,0,183.2,177.9Z"/><path d="M195.4,183h-1.3l4.8-12.4h1.2Z"/><path d="M210.9,182a2,2,0,0,1-.2-.9,3.3,3.3,0,0,1-2.5,1,2.7,2.7,0,0,1-2-.7,2.2,2.2,0,0,1-.8-1.8,2.3,2.3,0,0,1,1-2,4.7,4.7,0,0,1,2.8-.7h1.4v-.7a1.6,1.6,0,0,0-.4-1.2,2,2,0,0,0-1.4-.5,2.8,2.8,0,0,0-1.3.4,1.4,1.4,0,0,0-.5,1h-1.4a1.9,1.9,0,0,1,.4-1.2,4,4,0,0,1,1.2-1,5.1,5.1,0,0,1,1.7-.3,3.2,3.2,0,0,1,2.3.7,2.5,2.5,0,0,1,.9,2V180a5,5,0,0,0,.3,1.9h-1.5Zm-2.4-1.1a2.4,2.4,0,0,0,1.3-.4,1.4,1.4,0,0,0,.8-.9v-1.7h-1.1q-2.7,0-2.7,1.5a1.3,1.3,0,0,0,.5,1.1A1.6,1.6,0,0,0,208.5,180.9Z"/><path d="M215.9,182h-1.4V170h1.4Z"/><path d="M220.2,171.5v2h1.6v1.2h-1.6v5.2a1.9,1.9,0,0,0,.2.8l.7.2h.7V182h-1.1a2,2,0,0,1-1.5-.5,2.9,2.9,0,0,1-.5-1.7v-5.2h-1.5v-1.2h1.5v-2Z"/><path d="M227.5,174.8h-.7a1.9,1.9,0,0,0-1.9,1.2v6h-1.4v-8.5h1.4v1a2.3,2.3,0,0,1,2-1.1h.6Z"/><path d="M234.1,181.2a3.3,3.3,0,0,1-2.5.9,2.4,2.4,0,0,1-2-.7,3.5,3.5,0,0,1-.8-2.4v-5.5h1.5V179c0,1.3.5,1.9,1.5,1.9a2.1,2.1,0,0,0,2.2-1.2v-6.2h1.5V182h-1.4Z"/><path d="M237.7,171.3a1.4,1.4,0,0,1,.2-.6.7.7,0,0,1,.6-.2.8.8,0,0,1,.7.2,1,1,0,0,1,0,1.2l-.7.2-.6-.2A1.4,1.4,0,0,1,237.7,171.3Zm1.6,10.7h-1.5v-8.5h1.5Z"/><path d="M246.5,179.7a1.8,1.8,0,0,0-.4-.9,4.3,4.3,0,0,0-1.6-.5l-1.7-.6a2.1,2.1,0,0,1-1-.8,1.7,1.7,0,0,1-.3-1,2.3,2.3,0,0,1,.9-1.8,3.2,3.2,0,0,1,2.2-.7,3.6,3.6,0,0,1,2.4.7,2.5,2.5,0,0,1,.9,1.9h-1.5a1.4,1.4,0,0,0-.5-1,1.8,1.8,0,0,0-1.3-.4,2.1,2.1,0,0,0-1.2.3,1,1,0,0,0-.4.9.8.8,0,0,0,.4.8,4.1,4.1,0,0,0,1.5.5l1.7.6a2.1,2.1,0,0,1,1,.8,2,2,0,0,1,.3,1.1,2.3,2.3,0,0,1-.9,1.9,4.1,4.1,0,0,1-2.3.6,4.8,4.8,0,0,1-1.8-.3,4,4,0,0,1-1.2-1,2.4,2.4,0,0,1-.5-1.4h1.5a1.3,1.3,0,0,0,.5,1.1,2.5,2.5,0,0,0,1.5.5,1.8,1.8,0,0,0,1.3-.4A1.1,1.1,0,0,0,246.5,179.7Z"/><path d="M251.8,171.5v2h1.6v1.2h-1.6v5.2a1.9,1.9,0,0,0,.2.8l.7.2h.7V182h-1.1a1.8,1.8,0,0,1-1.5-.5,2.9,2.9,0,0,1-.5-1.7v-5.2h-1.5v-1.2h1.5v-2Z"/><path d="M255.1,171.3a.7.7,0,0,1,.2-.6c.1-.2.3-.2.6-.2s.5,0,.6.2a.7.7,0,0,1,0,1.2l-.6.2-.6-.2A.7.7,0,0,1,255.1,171.3Zm1.5,10.7h-1.4v-8.5h1.4Z"/><path d="M262.3,181a2.4,2.4,0,0,0,1.4-.5,1.4,1.4,0,0,0,.6-1.2h1.4a2.4,2.4,0,0,1-.5,1.4,3.6,3.6,0,0,1-1.3,1.1,4.1,4.1,0,0,1-1.6.3,3.3,3.3,0,0,1-2.7-1.1,4.6,4.6,0,0,1-1-3.2v-.2a5.1,5.1,0,0,1,.4-2.2,3.7,3.7,0,0,1,1.3-1.5,4.2,4.2,0,0,1,2-.5,3.8,3.8,0,0,1,2.4.8,3.5,3.5,0,0,1,1,2.2h-1.4a1.6,1.6,0,0,0-.6-1.3,1.7,1.7,0,0,0-1.4-.5,1.9,1.9,0,0,0-1.7.8,3.7,3.7,0,0,0-.6,2.3v.2a3.7,3.7,0,0,0,.6,2.3A2.1,2.1,0,0,0,262.3,181Z"/></g></svg>