<svg xmlns="http://www.w3.org/2000/svg" width="300" height="300" viewBox="0 0 300 300"><g id="Layer_1" data-name="Layer 1"><rect width="300" height="300" fill="#e6e7e8"/></g><g id="Layer_3" data-name="Layer 3"><path d="M74.7,38V18.2h6.1a10.5,10.5,0,0,1,4.7,1.1,8.8,8.8,0,0,1,3.2,3.4,11,11,0,0,1,1.1,4.9v.9a10.2,10.2,0,0,1-1.1,5,8.5,8.5,0,0,1-3.2,3.3A9.4,9.4,0,0,1,80.8,38Zm4.1-16.5V34.7h1.9a4.3,4.3,0,0,0,3.7-1.6,7,7,0,0,0,1.3-4.4V27.6A7,7,0,0,0,84.4,23a4.3,4.3,0,0,0-3.6-1.5Z"/><path d="M104.7,29.4H96.9v5.3h9.2V38H92.8V18.2h13.3v3.3H96.9v4.7h7.8Z"/><path d="M118.8,32.8a2,2,0,0,0-.9-1.8,11.7,11.7,0,0,0-2.9-1.3,23.5,23.5,0,0,1-3.4-1.4c-2.2-1.2-3.3-2.8-3.3-4.9a4.7,4.7,0,0,1,.9-2.8,5.4,5.4,0,0,1,2.6-2,9.2,9.2,0,0,1,3.8-.7,7.9,7.9,0,0,1,3.8.8,5.8,5.8,0,0,1,2.5,2.1,5.3,5.3,0,0,1,1,3.2h-4.1a2.6,2.6,0,0,0-.9-2.1,3.6,3.6,0,0,0-2.4-.8,3.7,3.7,0,0,0-2.3.7,1.8,1.8,0,0,0-.8,1.6,2.1,2.1,0,0,0,.9,1.7,14.1,14.1,0,0,0,2.9,1.2,13.4,13.4,0,0,1,5.1,2.6,5.3,5.3,0,0,1,1.6,3.9,4.8,4.8,0,0,1-2,4,8.2,8.2,0,0,1-5.2,1.5,9.6,9.6,0,0,1-4.2-.9,6.6,6.6,0,0,1-2.9-2.3,6,6,0,0,1-.9-3.3h4.1c0,2.1,1.3,3.2,3.9,3.2a3.6,3.6,0,0,0,2.2-.6A1.8,1.8,0,0,0,118.8,32.8Z"/><path d="M130,38h-4.1V18.2H130Z"/><path d="M149.4,35.5a6.4,6.4,0,0,1-3.1,2,12.3,12.3,0,0,1-4.4.8,8.2,8.2,0,0,1-7.6-4.4,11.2,11.2,0,0,1-1-5V27.5a11.3,11.3,0,0,1,1-5.1,6.9,6.9,0,0,1,2.9-3.4,8.7,8.7,0,0,1,4.4-1.1,8.4,8.4,0,0,1,5.5,1.7,6.9,6.9,0,0,1,2.3,4.9h-3.9a3.9,3.9,0,0,0-1.2-2.5,4.2,4.2,0,0,0-2.6-.8,3.5,3.5,0,0,0-3.2,1.6,8,8,0,0,0-1.1,4.6v1.3a7.8,7.8,0,0,0,1.2,4.7,4.1,4.1,0,0,0,3.5,1.6,4.5,4.5,0,0,0,3.3-1V30.6h-3.8v-3h7.8Z"/><path d="M168.9,38h-4.1l-8-13.1V38h-4V18.2h4l8,13v-13h4.1Z"/><path d="M184.4,29.4h-7.9v5.3h9.2V38H172.4V18.2h13.3v3.3h-9.2v4.7h7.9Z"/><path d="M195.5,30.7h-3.3V38h-4.1V18.2h7.4a8.7,8.7,0,0,1,5.4,1.5,5.4,5.4,0,0,1,1.9,4.5,5.8,5.8,0,0,1-.9,3.3,5.2,5.2,0,0,1-2.6,2.2l4.3,8.1V38h-4.4Zm-3.3-3.3h3.3a3.2,3.2,0,0,0,2.4-.8,2.5,2.5,0,0,0,.8-2.1,2.6,2.6,0,0,0-.8-2.2,2.9,2.9,0,0,0-2.4-.8h-3.3Z"/><path d="M222,38h-3.9V22.8l-4.7,1.5V21.1l8.2-3h.4Z"/><path d="M19.2,78.8h-.7a2,2,0,0,0-2,1.2v6H15.1V77.5h1.4v1a2.4,2.4,0,0,1,2-1.1h.7Z"/><path d="M23.9,86.1A3.4,3.4,0,0,1,21.1,85,4.1,4.1,0,0,1,20,82v-.3a5.1,5.1,0,0,1,.5-2.2,3.4,3.4,0,0,1,1.3-1.6,4.1,4.1,0,0,1,1.9-.5,3.1,3.1,0,0,1,2.6,1.1,4.6,4.6,0,0,1,.9,3.1v.6H21.4a3.3,3.3,0,0,0,.8,2,2.1,2.1,0,0,0,1.7.8,2.3,2.3,0,0,0,1.3-.3,4.3,4.3,0,0,0,1-.9l.9.7A3.6,3.6,0,0,1,23.9,86.1Zm-.2-7.5a2,2,0,0,0-1.5.6,3,3,0,0,0-.7,1.8h4.2a2.2,2.2,0,0,0-.6-1.7A1.7,1.7,0,0,0,23.7,78.6Z"/><path d="M31.5,84l2.1-6.5h1.5l-3,8.5H31l-3.1-8.5h1.5Z"/><path d="M36.5,75.3a1.4,1.4,0,0,1,.2-.6.7.7,0,0,1,.6-.2.8.8,0,0,1,.7.2,1,1,0,0,1,0,1.2l-.7.2-.6-.2A1.4,1.4,0,0,1,36.5,75.3ZM38.1,86H36.6V77.5h1.5Z"/><path d="M43.9,86.1A3.4,3.4,0,0,1,41.1,85,4.1,4.1,0,0,1,40,82v-.3a5.1,5.1,0,0,1,.5-2.2,3.4,3.4,0,0,1,1.3-1.6,4.1,4.1,0,0,1,1.9-.5,3.1,3.1,0,0,1,2.6,1.1,4.6,4.6,0,0,1,.9,3.1v.6H41.4a3.3,3.3,0,0,0,.8,2A2.2,2.2,0,0,0,44,85a2.8,2.8,0,0,0,1.3-.3,7.6,7.6,0,0,0,.9-.9l.9.7A3.5,3.5,0,0,1,43.9,86.1Zm-.2-7.5a2,2,0,0,0-1.5.6,3,3,0,0,0-.7,1.8h4.2a2.2,2.2,0,0,0-.6-1.7A1.7,1.7,0,0,0,43.7,78.6Z"/><path d="M56.3,84,58,77.5h1.4L56.9,86H55.8l-2.1-6.4-2,6.4H50.5l-2.4-8.5h1.4l1.7,6.4,2-6.4h1.1Z"/><path d="M65.1,87H63.9l4.7-12.4h1.3Z"/><path d="M76.9,77.5V87c0,1.6-.8,2.4-2.2,2.4h-.9V88.1h.6a1,1,0,0,0,.8-.3,2,2,0,0,0,.2-.9V77.5Zm-1.6-2.2a1.4,1.4,0,0,1,.2-.6c.1-.2.3-.2.6-.2a.8.8,0,0,1,.7.2,1,1,0,0,1,0,1.2l-.7.2-.6-.2A1.4,1.4,0,0,1,75.3,75.3Z"/><path d="M78.8,81.7a5.1,5.1,0,0,1,.5-2.2,3.6,3.6,0,0,1,1.4-1.6,3.9,3.9,0,0,1,2-.5,3.4,3.4,0,0,1,2.7,1.2,4.2,4.2,0,0,1,1.1,3.2h0a4.2,4.2,0,0,1-.5,2.2,3.7,3.7,0,0,1-1.3,1.5,3.5,3.5,0,0,1-2,.5A3.8,3.8,0,0,1,79.9,85a4.8,4.8,0,0,1-1.1-3.2Zm1.5.2a3.8,3.8,0,0,0,.6,2.2,2.1,2.1,0,0,0,1.8.9,2,2,0,0,0,1.7-.9,3.6,3.6,0,0,0,.7-2.4,3.5,3.5,0,0,0-.7-2.3,2.1,2.1,0,0,0-1.7-.8,2.3,2.3,0,0,0-1.8.8A4.4,4.4,0,0,0,80.3,81.9Z"/><path d="M95.5,81.9a5.2,5.2,0,0,1-.9,3.1,2.8,2.8,0,0,1-2.4,1.1A2.8,2.8,0,0,1,89.7,85v1H88.3V74h1.5v4.5a2.8,2.8,0,0,1,2.4-1.1,3,3,0,0,1,2.4,1.1,5.3,5.3,0,0,1,.9,3.2ZM94,81.7a4.6,4.6,0,0,0-.5-2.3,2.1,2.1,0,0,0-1.7-.8,2.2,2.2,0,0,0-2,1.3v3.7a2,2,0,0,0,2,1.3,1.9,1.9,0,0,0,1.7-.8A4.8,4.8,0,0,0,94,81.7Z"/><path d="M101.6,87h-1.3l4.8-12.4h1.2Z"/><path d="M113.2,77.5v1.1a3.2,3.2,0,0,1,2.6-1.2q2.7,0,2.7,3V86H117V80.4a2,2,0,0,0-.4-1.4,2.2,2.2,0,0,0-1.3-.4,1.7,1.7,0,0,0-1.2.4,2,2,0,0,0-.8,1v6h-1.5V77.5Z"/><path d="M124.2,86.1a3.4,3.4,0,0,1-2.8-1.1,3.7,3.7,0,0,1-1.1-3v-.3a4,4,0,0,1,.5-2.2,3.4,3.4,0,0,1,1.3-1.6,4.1,4.1,0,0,1,1.9-.5,2.8,2.8,0,0,1,2.5,1.1,4.6,4.6,0,0,1,1,3.1v.6h-5.8a2.8,2.8,0,0,0,.8,2,2.1,2.1,0,0,0,1.7.8,2.5,2.5,0,0,0,1.3-.3,4.3,4.3,0,0,0,1-.9l.8.7A3.4,3.4,0,0,1,124.2,86.1Zm-.2-7.5a2,2,0,0,0-1.5.6,3,3,0,0,0-.7,1.8H126a2.2,2.2,0,0,0-.6-1.7A1.7,1.7,0,0,0,124,78.6Z"/><path d="M131.1,75.5v2h1.6v1.2h-1.6v5.2a1.9,1.9,0,0,0,.2.8l.7.2h.7V86h-1.1a1.8,1.8,0,0,1-1.5-.5,2.9,2.9,0,0,1-.5-1.7V78.7h-1.5V77.5h1.5v-2Z"/><path d="M141.8,84l1.7-6.5h1.4L142.4,86h-1.1l-2.1-6.4-2,6.4H136l-2.4-8.5H135l1.7,6.4,2-6.4h1.1Z"/><path d="M146,81.7a5.1,5.1,0,0,1,.5-2.2,4.2,4.2,0,0,1,1.3-1.6,4.6,4.6,0,0,1,2-.5,3.5,3.5,0,0,1,2.8,1.2,4.6,4.6,0,0,1,1.1,3.2h0a5.4,5.4,0,0,1-.5,2.2,4.7,4.7,0,0,1-1.3,1.5,3.6,3.6,0,0,1-2.1.5,3.7,3.7,0,0,1-2.7-1.1,4.3,4.3,0,0,1-1.1-3.2Zm1.4.2a3.8,3.8,0,0,0,.7,2.2,2,2,0,0,0,1.7.9,2,2,0,0,0,1.8-.9,4.3,4.3,0,0,0,.6-2.4,4.1,4.1,0,0,0-.6-2.3,2.3,2.3,0,0,0-1.8-.8,2.1,2.1,0,0,0-1.7.8A4.4,4.4,0,0,0,147.4,81.9Z"/><path d="M159.6,78.8h-.7a2,2,0,0,0-2,1.2v6h-1.4V77.5h1.4v1a2.4,2.4,0,0,1,2-1.1h.7Z"/><path d="M163.3,82.1l-.9.9v3h-1.5V74h1.5v7.2l.7-.9,2.7-2.8h1.7l-3.3,3.6,3.7,4.9h-1.7Z"/><path d="M169,75.3a1.4,1.4,0,0,1,.2-.6.8.8,0,0,1,.7-.2c.3,0,.5,0,.6.2a1,1,0,0,1,0,1.2l-.6.2-.7-.2A1.4,1.4,0,0,1,169,75.3ZM170.6,86h-1.5V77.5h1.5Z"/><path d="M174.3,77.5v1.1a3.2,3.2,0,0,1,2.6-1.2q2.5,0,2.7,3V86h-1.5V80.4a2,2,0,0,0-.4-1.4,2.2,2.2,0,0,0-1.3-.4,1.6,1.6,0,0,0-1.2.4,2,2,0,0,0-.8,1v6h-1.5V77.5Z"/><path d="M181.4,81.7a5.3,5.3,0,0,1,.9-3.2,3,3,0,0,1,2.4-1.1,2.6,2.6,0,0,1,2.4,1.1v-1h1.3v8.3a3.7,3.7,0,0,1-.9,2.6,4,4,0,0,1-2.7.9,3.3,3.3,0,0,1-1.7-.4,3,3,0,0,1-1.4-1l.8-.9a2.5,2.5,0,0,0,2.2,1.1,2.4,2.4,0,0,0,1.7-.6,2.1,2.1,0,0,0,.6-1.6v-.8a3,3,0,0,1-2.4,1,3,3,0,0,1-2.4-1.1A5.4,5.4,0,0,1,181.4,81.7Zm1.4.2a3.6,3.6,0,0,0,.6,2.2,2.1,2.1,0,0,0,1.7.8,2.1,2.1,0,0,0,2-1.2V79.8a2.2,2.2,0,0,0-2-1.2,2.1,2.1,0,0,0-1.7.8A4.4,4.4,0,0,0,182.8,81.9Z"/><path d="M22.6,122.4l1.6-6.5h1.4l-2.4,8.5H22L20,118l-2,6.4H16.8l-2.5-8.5h1.5l1.6,6.4,2-6.4h1.2Z"/><path d="M30.6,124.5a3.6,3.6,0,0,1-2.8-1.1,4,4,0,0,1-1-3v-.3a5.1,5.1,0,0,1,.4-2.2,4.4,4.4,0,0,1,1.4-1.6,3.7,3.7,0,0,1,1.8-.5,3,3,0,0,1,2.6,1.1,4.6,4.6,0,0,1,.9,3.1v.6H28.2a3.2,3.2,0,0,0,.7,2,2.5,2.5,0,0,0,1.8.8,2.8,2.8,0,0,0,1.3-.3,2.6,2.6,0,0,0,.9-.9l.9.7A3.5,3.5,0,0,1,30.6,124.5Zm-.2-7.5a2,2,0,0,0-1.4.6,3,3,0,0,0-.8,1.8h4.3a3.4,3.4,0,0,0-.6-1.7A2,2,0,0,0,30.4,117Z"/><path d="M42.8,120.3a5.2,5.2,0,0,1-.9,3.1,2.8,2.8,0,0,1-2.4,1.1,2.8,2.8,0,0,1-2.5-1.1v1H35.6v-12H37v4.5a2.8,2.8,0,0,1,2.5-1.1,3,3,0,0,1,2.4,1.1,5.3,5.3,0,0,1,.9,3.2Zm-1.5-.2a3.7,3.7,0,0,0-.6-2.3,1.8,1.8,0,0,0-1.6-.8,2.3,2.3,0,0,0-2.1,1.3V122a2.3,2.3,0,0,0,2.1,1.3,1.7,1.7,0,0,0,1.6-.8A3.8,3.8,0,0,0,41.3,120.1Z"/><path d="M48.8,125.4H47.6L52.3,113h1.3Z"/><path d="M64.3,123.6a3.3,3.3,0,0,1-2.5.9,2.4,2.4,0,0,1-2-.7,3.4,3.4,0,0,1-.7-2.4v-5.5h1.4v5.5c0,1.3.5,1.9,1.6,1.9a2.2,2.2,0,0,0,2.2-1.2v-6.2h1.4v8.5H64.3Z"/><path d="M67.9,113.7a1.4,1.4,0,0,1,.2-.6.8.8,0,0,1,.7-.2c.2,0,.5,0,.6.2a1,1,0,0,1,0,1.2l-.6.2-.7-.2A1.4,1.4,0,0,1,67.9,113.7Zm1.6,10.7H68v-8.5h1.5Z"/><path d="M76,125.4H74.8L79.5,113h1.3Z"/><path d="M93.5,120.3a5.2,5.2,0,0,1-.9,3.1,2.8,2.8,0,0,1-2.4,1.1,2.8,2.8,0,0,1-2.5-1.1v1H86.3v-12h1.5v4.5a2.6,2.6,0,0,1,2.4-1.1,3,3,0,0,1,2.4,1.1,5.3,5.3,0,0,1,.9,3.2Zm-1.5-.2a3.7,3.7,0,0,0-.6-2.3,1.8,1.8,0,0,0-1.6-.8,2.2,2.2,0,0,0-2,1.3V122a2,2,0,0,0,2,1.3,1.6,1.6,0,0,0,1.6-.8A3.8,3.8,0,0,0,92,120.1Z"/><path d="M99.4,117.2h-.7a2,2,0,0,0-2,1.2v6H95.3v-8.5h1.4v1a2.4,2.4,0,0,1,2-1.1h.7Z"/><path d="M105.6,124.4a6.4,6.4,0,0,1-.2-.9,3.3,3.3,0,0,1-2.4,1,3.1,3.1,0,0,1-2.1-.7,2.2,2.2,0,0,1-.8-1.8,2.6,2.6,0,0,1,1-2,5,5,0,0,1,2.9-.7h1.4v-.7a1.7,1.7,0,0,0-.5-1.2,1.7,1.7,0,0,0-1.3-.5,2.5,2.5,0,0,0-1.3.4,1.1,1.1,0,0,0-.5,1h-1.5a2.1,2.1,0,0,1,.5-1.2,4,4,0,0,1,1.2-1,4.7,4.7,0,0,1,1.7-.3,3.5,3.5,0,0,1,2.3.7,2.8,2.8,0,0,1,.8,2v3.9a5,5,0,0,0,.3,1.9h-1.5Zm-2.4-1.1a2,2,0,0,0,1.3-.4,2,2,0,0,0,.9-.9v-1.7h-1.2c-1.7,0-2.6.5-2.6,1.5a1.2,1.2,0,0,0,.4,1.1A1.6,1.6,0,0,0,103.2,123.3Z"/><path d="M110.5,115.9V117a3,3,0,0,1,2.5-1.2q2.7,0,2.7,3v5.6h-1.4v-5.6a2.6,2.6,0,0,0-.4-1.4,2.2,2.2,0,0,0-1.3-.4,1.6,1.6,0,0,0-1.2.4,2.2,2.2,0,0,0-.9,1v6h-1.4v-8.5Z"/><path d="M117.6,120.1a5,5,0,0,1,.9-3.1,2.9,2.9,0,0,1,2.4-1.2,3,3,0,0,1,2.4,1v-4.4h1.4v12h-1.3v-.9a3,3,0,0,1-2.4,1,2.9,2.9,0,0,1-2.4-1.2,5,5,0,0,1-.9-3.1Zm1.4.2a3.6,3.6,0,0,0,.6,2.2,1.9,1.9,0,0,0,1.6.8,2.2,2.2,0,0,0,2.1-1.2v-3.9a2.2,2.2,0,0,0-2-1.2,2.1,2.1,0,0,0-1.7.8A4.4,4.4,0,0,0,119,120.3Z"/><path d="M126.9,113.7a.9.9,0,0,1,.3-.6c.1-.2.3-.2.6-.2s.5,0,.6.2a.8.8,0,0,1,0,1.2l-.6.2a.8.8,0,0,1-.6-.2A.9.9,0,0,1,126.9,113.7Zm1.6,10.7h-1.4v-8.5h1.4Z"/><path d="M132.2,115.9V117a3.2,3.2,0,0,1,2.6-1.2q2.7,0,2.7,3v5.6H136v-5.6a2,2,0,0,0-.4-1.4,2.2,2.2,0,0,0-1.3-.4,1.7,1.7,0,0,0-1.2.4,2,2,0,0,0-.8,1v6h-1.5v-8.5Z"/><path d="M139.3,120.1a5.3,5.3,0,0,1,.9-3.2,3,3,0,0,1,2.4-1.1,2.8,2.8,0,0,1,2.5,1.1v-1h1.3v8.3a3.1,3.1,0,0,1-3.5,3.5,3.9,3.9,0,0,1-1.8-.4,3,3,0,0,1-1.4-1l.8-.9a2.7,2.7,0,0,0,2.3,1.1,2.1,2.1,0,0,0,2.2-2.2v-.8a3,3,0,0,1-2.4,1,3,3,0,0,1-2.4-1.1A5.4,5.4,0,0,1,139.3,120.1Zm1.5.2a4.5,4.5,0,0,0,.5,2.2,2.1,2.1,0,0,0,1.7.8,2.1,2.1,0,0,0,2-1.2v-3.9a2.1,2.1,0,0,0-2-1.2,1.8,1.8,0,0,0-1.6.8A4.4,4.4,0,0,0,140.8,120.3Z"/><path d="M20.3,162.8a6.4,6.4,0,0,1-.2-.9,3.3,3.3,0,0,1-2.4,1,2.7,2.7,0,0,1-2-.7,1.9,1.9,0,0,1-.8-1.8,2.3,2.3,0,0,1,1-2,4.5,4.5,0,0,1,2.8-.7h1.4V157a1.7,1.7,0,0,0-.5-1.2,1.7,1.7,0,0,0-1.3-.5,2.5,2.5,0,0,0-1.3.4,1.4,1.4,0,0,0-.5,1H15a2.1,2.1,0,0,1,.5-1.2,4,4,0,0,1,1.2-1,4.7,4.7,0,0,1,1.7-.3,3.3,3.3,0,0,1,2.3.7,2.8,2.8,0,0,1,.8,2v3.9a5,5,0,0,0,.3,1.9H20.3Zm-2.4-1.1a2,2,0,0,0,1.3-.4,2,2,0,0,0,.9-.9v-1.7H19q-2.7,0-2.7,1.5c0,.5.1.9.5,1.1A1.4,1.4,0,0,0,17.9,161.7Z"/><path d="M25.4,162.8H23.9v-12h1.5Z"/><path d="M29.6,152.3v2h1.6v1.2H29.6v5.2a1.1,1.1,0,0,0,.3.8,1,1,0,0,0,.7.2h.7v1.2H30.1a1.6,1.6,0,0,1-1.4-.5,2.9,2.9,0,0,1-.5-1.7v-5.2H26.7v-1.2h1.5v-2Z"/><path d="M37,155.6h-.7a1.8,1.8,0,0,0-1.9,1.2v6H32.9v-8.5h1.4v1a2.5,2.5,0,0,1,2.1-1.1H37Z"/><path d="M43.5,162a3,3,0,0,1-2.4.9,2.8,2.8,0,0,1-2.1-.7,3.4,3.4,0,0,1-.7-2.4v-5.5h1.4v5.5c0,1.3.6,1.9,1.6,1.9a2.2,2.2,0,0,0,2.2-1.2v-6.2h1.4v8.5H43.6Z"/><path d="M47.1,152.1a.9.9,0,0,1,.3-.6c.1-.2.3-.2.6-.2s.5,0,.6.2a.7.7,0,0,1,0,1.2l-.6.2-.6-.2A.9.9,0,0,1,47.1,152.1Zm1.6,10.7H47.3v-8.5h1.4Z"/><path d="M55.9,160.5a1.2,1.2,0,0,0-.4-.9,3.7,3.7,0,0,0-1.5-.5l-1.8-.6a2.4,2.4,0,0,1-.9-.8,1.7,1.7,0,0,1-.3-1,2.5,2.5,0,0,1,.8-1.8,4.1,4.1,0,0,1,4.6,0,2.5,2.5,0,0,1,.9,1.9H55.9a1.4,1.4,0,0,0-.5-1,2,2,0,0,0-1.3-.4,1.9,1.9,0,0,0-1.2.3,1.1,1.1,0,0,0-.5.9.8.8,0,0,0,.4.8l1.5.5,1.8.6a2.7,2.7,0,0,1,1,.8,2,2,0,0,1,.3,1.1,2.3,2.3,0,0,1-.9,1.9,4.3,4.3,0,0,1-2.4.6,5.7,5.7,0,0,1-1.8-.3,4,4,0,0,1-1.2-1,2.3,2.3,0,0,1-.4-1.4h1.4a1.1,1.1,0,0,0,.6,1.1,2.2,2.2,0,0,0,1.4.5,1.7,1.7,0,0,0,1.3-.4A.9.9,0,0,0,55.9,160.5Z"/><path d="M61.2,152.3v2h1.6v1.2H61.2v5.2a1.9,1.9,0,0,0,.2.8l.8.2h.7v1.2H61.7a1.6,1.6,0,0,1-1.4-.5,2.9,2.9,0,0,1-.5-1.7v-5.2H58.3v-1.2h1.5v-2Z"/><path d="M64.5,152.1a1.4,1.4,0,0,1,.2-.6.8.8,0,0,1,.7-.2c.2,0,.5,0,.6.2a1,1,0,0,1,0,1.2l-.6.2-.7-.2A1.4,1.4,0,0,1,64.5,152.1Zm1.6,10.7H64.6v-8.5h1.5Z"/><path d="M71.8,161.8a2.1,2.1,0,0,0,1.3-.5,1.9,1.9,0,0,0,.7-1.2h1.3a2.4,2.4,0,0,1-.5,1.4,4.3,4.3,0,0,1-1.2,1.1,4.5,4.5,0,0,1-1.6.3,3.4,3.4,0,0,1-2.8-1.1,4.6,4.6,0,0,1-1-3.2v-.2a5.1,5.1,0,0,1,.5-2.2,3.7,3.7,0,0,1,1.3-1.5,3.9,3.9,0,0,1,2-.5,3.6,3.6,0,0,1,2.3.8,2.7,2.7,0,0,1,1,2.2H73.8a2.1,2.1,0,0,0-.7-1.3,1.5,1.5,0,0,0-1.3-.5,1.8,1.8,0,0,0-1.7.8,3.7,3.7,0,0,0-.6,2.3v.2a3.7,3.7,0,0,0,.6,2.3A2,2,0,0,0,71.8,161.8Z"/><path d="M81,163.8H79.8l4.7-12.4h1.3Z"/><path d="M94.7,161.8a2.1,2.1,0,0,0,1.3-.5,1.9,1.9,0,0,0,.7-1.2H98a2.4,2.4,0,0,1-.5,1.4,4.3,4.3,0,0,1-1.2,1.1,4.5,4.5,0,0,1-1.6.3,3.4,3.4,0,0,1-2.8-1.1,4.6,4.6,0,0,1-1-3.2v-.2a4,4,0,0,1,.5-2.2,3.7,3.7,0,0,1,1.3-1.5,3.9,3.9,0,0,1,2-.5,3.6,3.6,0,0,1,2.3.8,3,3,0,0,1,1,2.2H96.7a2.1,2.1,0,0,0-.7-1.3,1.5,1.5,0,0,0-1.3-.5,2.1,2.1,0,0,0-1.8.8,3.7,3.7,0,0,0-.6,2.3v.2a3.7,3.7,0,0,0,.6,2.3A2.2,2.2,0,0,0,94.7,161.8Z"/><path d="M99.3,158.5a4,4,0,0,1,.5-2.2,3.4,3.4,0,0,1,1.3-1.6,4.6,4.6,0,0,1,2-.5,3.5,3.5,0,0,1,2.8,1.2,4.6,4.6,0,0,1,1.1,3.2h0a5.4,5.4,0,0,1-.5,2.2,4,4,0,0,1-1.4,1.5,3.1,3.1,0,0,1-2,.5,3.9,3.9,0,0,1-2.8-1.1,4.7,4.7,0,0,1-1-3.2Zm1.4.2a3.2,3.2,0,0,0,.7,2.2,2,2,0,0,0,1.7.9,2.1,2.1,0,0,0,1.8-.9,4.3,4.3,0,0,0,.6-2.4,4.1,4.1,0,0,0-.6-2.3,2.5,2.5,0,0,0-1.8-.8,2.1,2.1,0,0,0-1.7.8A3.7,3.7,0,0,0,100.7,158.7Z"/><path d="M110.1,154.3v1a2.8,2.8,0,0,1,2.5-1.1,2.3,2.3,0,0,1,2.4,1.3,2.4,2.4,0,0,1,1.1-.9,2.7,2.7,0,0,1,1.6-.4,2.6,2.6,0,0,1,2.8,2.9v5.7h-1.4v-5.6a2.2,2.2,0,0,0-.4-1.3,2,2,0,0,0-1.4-.5,2.2,2.2,0,0,0-1.4.5,2.3,2.3,0,0,0-.6,1.3v5.6H114v-5.5c0-1.3-.6-1.9-1.8-1.9a2,2,0,0,0-2,1.2v6.2h-1.4v-8.5Z"/><path d="M124.2,154.3v1a3,3,0,0,1,2.5-1.1,2.3,2.3,0,0,1,2.4,1.3,3.1,3.1,0,0,1,1.1-.9,2.9,2.9,0,0,1,1.6-.4c1.9,0,2.8,1,2.8,2.9v5.7h-1.4v-5.6a1.7,1.7,0,0,0-.4-1.3,2,2,0,0,0-1.4-.5,1.9,1.9,0,0,0-1.3.5,1.9,1.9,0,0,0-.7,1.3v5.6H128v-5.5c0-1.3-.6-1.9-1.8-1.9a2,2,0,0,0-2,1.2v6.2h-1.4v-8.5Z"/><path d="M142,162a3,3,0,0,1-2.4.9,2.8,2.8,0,0,1-2.1-.7,3.4,3.4,0,0,1-.7-2.4v-5.5h1.4v5.5c0,1.3.6,1.9,1.6,1.9a2.2,2.2,0,0,0,2.2-1.2v-6.2h1.4v8.5h-1.3Z"/><path d="M147,154.3v1.1a2.9,2.9,0,0,1,2.5-1.2q2.7,0,2.7,3v5.6h-1.5v-5.6a2,2,0,0,0-.4-1.4,2,2,0,0,0-1.3-.4,1.9,1.9,0,0,0-1.2.4,2.7,2.7,0,0,0-.8,1v6h-1.5v-8.5Z"/><path d="M154.5,152.1a.7.7,0,0,1,.2-.6c.1-.2.3-.2.6-.2a.8.8,0,0,1,.7.2,1,1,0,0,1,0,1.2l-.7.2-.6-.2A.7.7,0,0,1,154.5,152.1Zm1.5,10.7h-1.4v-8.5H156Z"/><path d="M161.7,161.8a2.2,2.2,0,0,0,1.4-.5,1.4,1.4,0,0,0,.6-1.2h1.4a2.4,2.4,0,0,1-.5,1.4,4.3,4.3,0,0,1-1.2,1.1,4.7,4.7,0,0,1-1.7.3,3.3,3.3,0,0,1-2.7-1.1,4.6,4.6,0,0,1-1-3.2v-.2a5.1,5.1,0,0,1,.4-2.2,4.7,4.7,0,0,1,1.3-1.5,4.6,4.6,0,0,1,2-.5,3.6,3.6,0,0,1,2.4.8,3,3,0,0,1,1,2.2h-1.4a1.6,1.6,0,0,0-.6-1.3,1.7,1.7,0,0,0-1.4-.5,1.9,1.9,0,0,0-1.7.8,3.7,3.7,0,0,0-.6,2.3v.2a3.7,3.7,0,0,0,.6,2.3A2.1,2.1,0,0,0,161.7,161.8Z"/><path d="M171.9,162.8a5.1,5.1,0,0,0-.2-.9,3,3,0,0,1-2.4,1,2.7,2.7,0,0,1-2-.7,2.2,2.2,0,0,1-.8-1.8,2.3,2.3,0,0,1,1-2,4.7,4.7,0,0,1,2.8-.7h1.4V157a1.6,1.6,0,0,0-.4-1.2,2,2,0,0,0-1.4-.5,2.8,2.8,0,0,0-1.3.4,1.4,1.4,0,0,0-.5,1h-1.4a1.9,1.9,0,0,1,.4-1.2,4,4,0,0,1,1.2-1,4.7,4.7,0,0,1,1.7-.3,3.2,3.2,0,0,1,2.3.7,2.9,2.9,0,0,1,.9,2v3.9a5,5,0,0,0,.3,1.9h-1.6Zm-2.4-1.1a2,2,0,0,0,1.3-.4,2,2,0,0,0,.9-.9v-1.7h-1.1q-2.7,0-2.7,1.5a1.3,1.3,0,0,0,.5,1.1A1.5,1.5,0,0,0,169.5,161.7Z"/><path d="M177.4,152.3v2H179v1.2h-1.6v5.2a1.9,1.9,0,0,0,.2.8l.7.2h.7v1.2h-1.1a2,2,0,0,1-1.5-.5,2.9,2.9,0,0,1-.5-1.7v-5.2h-1.5v-1.2h1.5v-2Z"/><path d="M180.7,152.1a.7.7,0,0,1,.2-.6c.1-.2.3-.2.6-.2a.8.8,0,0,1,.7.2,1,1,0,0,1,0,1.2l-.7.2a.8.8,0,0,1-.6-.2A.7.7,0,0,1,180.7,152.1Zm1.5,10.7h-1.4v-8.5h1.4Z"/><path d="M187.3,160.8l2.1-6.5h1.5l-3,8.5h-1.1l-3.1-8.5h1.5Z"/><path d="M195.7,162.9a3.6,3.6,0,0,1-2.8-1.1,4.1,4.1,0,0,1-1.1-3v-.3a5.1,5.1,0,0,1,.5-2.2,3.2,3.2,0,0,1,3.2-2.1,3,3,0,0,1,2.6,1.1,4.6,4.6,0,0,1,.9,3.1v.6h-5.7a2.7,2.7,0,0,0,.7,2,2.5,2.5,0,0,0,1.8.8,2.8,2.8,0,0,0,1.3-.3l.9-.9.9.7A3.5,3.5,0,0,1,195.7,162.9Zm-.2-7.5a2,2,0,0,0-1.5.6,3.8,3.8,0,0,0-.7,1.8h4.2a2.6,2.6,0,0,0-.5-1.7A2,2,0,0,0,195.5,155.4Z"/><path d="M204.9,163.8h-1.2l4.7-12.4h1.3Z"/><path d="M18.5,181a1.9,1.9,0,0,0,1.3-.5,1.9,1.9,0,0,0,.7-1.2h1.3a1.9,1.9,0,0,1-.5,1.4,4.3,4.3,0,0,1-1.2,1.1,4.1,4.1,0,0,1-1.6.3,3.4,3.4,0,0,1-2.8-1.1,5.1,5.1,0,0,1-1-3.2v-.2a5.1,5.1,0,0,1,.5-2.2,3.7,3.7,0,0,1,1.3-1.5,3.9,3.9,0,0,1,2-.5,3.6,3.6,0,0,1,2.3.8,2.7,2.7,0,0,1,1,2.2H20.5a2.6,2.6,0,0,0-.6-1.3,1.9,1.9,0,0,0-1.4-.5,1.8,1.8,0,0,0-1.7.8,3.7,3.7,0,0,0-.6,2.3v.2a3.7,3.7,0,0,0,.6,2.3A2,2,0,0,0,18.5,181Z"/><path d="M23.1,177.7a4,4,0,0,1,.5-2.2,4.2,4.2,0,0,1,1.3-1.6,4.6,4.6,0,0,1,2-.5,3.5,3.5,0,0,1,2.8,1.2,4.6,4.6,0,0,1,1.1,3.2h0a5.4,5.4,0,0,1-.5,2.2,4.7,4.7,0,0,1-1.3,1.5,3.6,3.6,0,0,1-2.1.5,3.7,3.7,0,0,1-2.7-1.1,4.3,4.3,0,0,1-1.1-3.2Zm1.4.2a3.8,3.8,0,0,0,.7,2.2,2,2,0,0,0,1.7.9,2,2,0,0,0,1.8-.9,4.3,4.3,0,0,0,.6-2.4,4.1,4.1,0,0,0-.6-2.3,2.3,2.3,0,0,0-1.8-.8,2.1,2.1,0,0,0-1.7.8A4.4,4.4,0,0,0,24.5,177.9Z"/><path d="M34,173.5v1.1a3.2,3.2,0,0,1,2.5-1.2q2.7,0,2.7,3V182H37.8v-5.6a2,2,0,0,0-.4-1.4,2.2,2.2,0,0,0-1.3-.4,1.6,1.6,0,0,0-1.2.4,2.2,2.2,0,0,0-.9,1v6H32.6v-8.5Z"/><path d="M46.3,179.7a1.2,1.2,0,0,0-.4-.9,3.7,3.7,0,0,0-1.5-.5l-1.8-.6a2.4,2.4,0,0,1-.9-.8,1.7,1.7,0,0,1-.3-1,2.5,2.5,0,0,1,.8-1.8,4.1,4.1,0,0,1,4.6,0,2.5,2.5,0,0,1,.9,1.9H46.3a1.4,1.4,0,0,0-.5-1,2,2,0,0,0-1.3-.4,1.9,1.9,0,0,0-1.2.3,1.1,1.1,0,0,0-.5.9.8.8,0,0,0,.4.8,6.4,6.4,0,0,0,1.5.5l1.8.6a3.9,3.9,0,0,1,1,.8,2,2,0,0,1,.3,1.1,2.3,2.3,0,0,1-.9,1.9,4.3,4.3,0,0,1-2.4.6l-1.8-.3a4,4,0,0,1-1.2-1,2.3,2.3,0,0,1-.4-1.4h1.4a1.1,1.1,0,0,0,.6,1.1,2.2,2.2,0,0,0,1.4.5,1.7,1.7,0,0,0,1.3-.4A.9.9,0,0,0,46.3,179.7Z"/><path d="M53.1,181a2.1,2.1,0,0,0,1.3-.5,1.9,1.9,0,0,0,.7-1.2h1.3a2.4,2.4,0,0,1-.5,1.4,4.3,4.3,0,0,1-1.2,1.1,4.5,4.5,0,0,1-1.6.3,3.4,3.4,0,0,1-2.8-1.1,4.6,4.6,0,0,1-1-3.2v-.2a4,4,0,0,1,.5-2.2,3.7,3.7,0,0,1,1.3-1.5,3.9,3.9,0,0,1,2-.5,3.6,3.6,0,0,1,2.3.8,3,3,0,0,1,1,2.2H55.1a2.1,2.1,0,0,0-.7-1.3,1.5,1.5,0,0,0-1.3-.5,2.1,2.1,0,0,0-1.8.8,3.7,3.7,0,0,0-.6,2.3v.2a3.7,3.7,0,0,0,.6,2.3A2.2,2.2,0,0,0,53.1,181Z"/><path d="M58.1,171.3a.7.7,0,0,1,.2-.6c.1-.2.3-.2.6-.2s.5,0,.6.2a.7.7,0,0,1,0,1.2l-.6.2-.6-.2A.7.7,0,0,1,58.1,171.3ZM59.6,182H58.2v-8.5h1.4Z"/><path d="M65.4,182.1a3.7,3.7,0,0,1-2.8-1.1,4,4,0,0,1-1-3v-.3a5.1,5.1,0,0,1,.4-2.2,4.4,4.4,0,0,1,1.4-1.6,4.1,4.1,0,0,1,1.9-.5,2.8,2.8,0,0,1,2.5,1.1,4.6,4.6,0,0,1,.9,3.1v.6H63a3.2,3.2,0,0,0,.7,2,2.6,2.6,0,0,0,3.1.5,2.6,2.6,0,0,0,.9-.9l.9.7A3.4,3.4,0,0,1,65.4,182.1Zm-.1-7.5a2,2,0,0,0-1.5.6,2.5,2.5,0,0,0-.7,1.8h4.2a3.4,3.4,0,0,0-.6-1.7A1.8,1.8,0,0,0,65.3,174.6Z"/><path d="M71.8,173.5v1.1a3.2,3.2,0,0,1,2.6-1.2q2.5,0,2.7,3V182H75.6v-5.6a2,2,0,0,0-.4-1.4,2.2,2.2,0,0,0-1.3-.4,2.2,2.2,0,0,0-2,1.4v6H70.4v-8.5Z"/><path d="M81.2,171.5v2h1.6v1.2H81.2v5.2a1.9,1.9,0,0,0,.2.8l.7.2h.7V182H81.7a2,2,0,0,1-1.5-.5,2.9,2.9,0,0,1-.4-1.7v-5.2H78.2v-1.2h1.6v-2Z"/><path d="M84.5,171.3a.7.7,0,0,1,.2-.6c.1-.2.3-.2.6-.2a.8.8,0,0,1,.7.2,1,1,0,0,1,0,1.2l-.7.2-.6-.2A.7.7,0,0,1,84.5,171.3ZM86,182H84.6v-8.5H86Z"/><path d="M88,177.7a5.1,5.1,0,0,1,.4-2.2,4.4,4.4,0,0,1,1.4-1.6,4.6,4.6,0,0,1,2-.5,3.6,3.6,0,0,1,2.8,1.2,4.6,4.6,0,0,1,1.1,3.2h0a5.4,5.4,0,0,1-.5,2.2,4,4,0,0,1-1.4,1.5,3.3,3.3,0,0,1-2,.5A3.9,3.9,0,0,1,89,181a4.7,4.7,0,0,1-1-3.2Zm1.4.2a3.2,3.2,0,0,0,.7,2.2,2,2,0,0,0,1.7.9,2.3,2.3,0,0,0,1.8-.9,4.3,4.3,0,0,0,.6-2.4,4.1,4.1,0,0,0-.6-2.3,2.5,2.5,0,0,0-1.8-.8,2.1,2.1,0,0,0-1.7.8A3.7,3.7,0,0,0,89.4,177.9Z"/><path d="M102.7,181.2a3.3,3.3,0,0,1-2.5.9,2.4,2.4,0,0,1-2-.7,3.5,3.5,0,0,1-.8-2.4v-5.5h1.5V179c0,1.3.5,1.9,1.5,1.9a2.1,2.1,0,0,0,2.2-1.2v-6.2h1.5V182h-1.4Z"/><path d="M111.2,179.7a1.2,1.2,0,0,0-.4-.9,3.7,3.7,0,0,0-1.6-.5l-1.7-.6a2.7,2.7,0,0,1-1-.8,1.7,1.7,0,0,1-.3-1,2.3,2.3,0,0,1,.9-1.8,3.3,3.3,0,0,1,2.3-.7,3.5,3.5,0,0,1,2.3.7,2.5,2.5,0,0,1,.9,1.9h-1.5a1.1,1.1,0,0,0-.5-1,1.6,1.6,0,0,0-1.2-.4,2.3,2.3,0,0,0-1.3.3,1,1,0,0,0-.4.9.8.8,0,0,0,.4.8,6.4,6.4,0,0,0,1.5.5l1.7.6a2.3,2.3,0,0,1,1.4,1.9,2.3,2.3,0,0,1-.9,1.9,4.5,4.5,0,0,1-2.4.6,4.8,4.8,0,0,1-1.8-.3,4,4,0,0,1-1.2-1,2.4,2.4,0,0,1-.5-1.4h1.5a1.1,1.1,0,0,0,.6,1.1,2,2,0,0,0,1.4.5,1.8,1.8,0,0,0,1.3-.4A1.1,1.1,0,0,0,111.2,179.7Z"/><path d="M118.8,183h-1.3l4.8-12.4h1.2Z"/><path d="M132.4,181a2.2,2.2,0,0,0,1.4-.5,1.4,1.4,0,0,0,.6-1.2h1.4a2.4,2.4,0,0,1-.5,1.4,4.3,4.3,0,0,1-1.2,1.1,4.7,4.7,0,0,1-1.7.3,3.3,3.3,0,0,1-2.7-1.1,4.6,4.6,0,0,1-1-3.2v-.2a5.1,5.1,0,0,1,.4-2.2,4.7,4.7,0,0,1,1.3-1.5,4.6,4.6,0,0,1,2-.5,3.6,3.6,0,0,1,2.4.8,3,3,0,0,1,1,2.2h-1.4a1.6,1.6,0,0,0-.6-1.3,1.7,1.7,0,0,0-1.4-.5,1.9,1.9,0,0,0-1.7.8,3.7,3.7,0,0,0-.6,2.3v.2a3.7,3.7,0,0,0,.6,2.3A2.1,2.1,0,0,0,132.4,181Z"/><path d="M137,177.7a5.1,5.1,0,0,1,.5-2.2,4.4,4.4,0,0,1,1.4-1.6,4.2,4.2,0,0,1,2-.5,3.6,3.6,0,0,1,2.8,1.2,4.6,4.6,0,0,1,1,3.2h0a5.4,5.4,0,0,1-.4,2.2,4,4,0,0,1-1.4,1.5,3.3,3.3,0,0,1-2,.5,3.9,3.9,0,0,1-2.8-1.1,4.8,4.8,0,0,1-1.1-3.2Zm1.5.2a3.2,3.2,0,0,0,.7,2.2,2.1,2.1,0,0,0,3.4,0,3.6,3.6,0,0,0,.7-2.4,3.5,3.5,0,0,0-.7-2.3,2.2,2.2,0,0,0-3.4,0A3.7,3.7,0,0,0,138.5,177.9Z"/><path d="M147.9,173.5v1.1a3,3,0,0,1,2.5-1.2q2.7,0,2.7,3V182h-1.4v-5.6a2,2,0,0,0-.5-1.4,1.9,1.9,0,0,0-1.2-.4,2,2,0,0,0-1.3.4,2.7,2.7,0,0,0-.8,1v6h-1.4v-8.5Z"/><path d="M157.3,171.5v2h1.6v1.2h-1.6v5.2a1.1,1.1,0,0,0,.3.8,1,1,0,0,0,.7.2h.7V182h-1.1a1.7,1.7,0,0,1-1.5-.5,2.9,2.9,0,0,1-.5-1.7v-5.2h-1.5v-1.2h1.5v-2Z"/><path d="M160.6,171.3a1.4,1.4,0,0,1,.2-.6.8.8,0,0,1,.7-.2c.3,0,.5,0,.6.2a1,1,0,0,1,0,1.2l-.6.2-.7-.2A1.4,1.4,0,0,1,160.6,171.3Zm1.6,10.7h-1.5v-8.5h1.5Z"/><path d="M165.9,173.5v1.1a3.2,3.2,0,0,1,2.5-1.2q2.7,0,2.7,3V182h-1.4v-5.6a2,2,0,0,0-.4-1.4,2.2,2.2,0,0,0-1.3-.4,1.6,1.6,0,0,0-1.2.4,2.2,2.2,0,0,0-.9,1v6h-1.4v-8.5Z"/><path d="M178.5,181.2a3,3,0,0,1-2.4.9,2.8,2.8,0,0,1-2.1-.7,3.4,3.4,0,0,1-.7-2.4v-5.5h1.4V179c0,1.3.6,1.9,1.6,1.9a2.2,2.2,0,0,0,2.2-1.2v-6.2h1.4V182h-1.3Z"/><path d="M181.8,177.7a5.1,5.1,0,0,1,.4-2.2,4.4,4.4,0,0,1,1.4-1.6,4.2,4.2,0,0,1,2-.5,3.6,3.6,0,0,1,2.8,1.2,4.6,4.6,0,0,1,1.1,3.2h0a5.4,5.4,0,0,1-.5,2.2,4,4,0,0,1-1.4,1.5,3.3,3.3,0,0,1-2,.5,3.9,3.9,0,0,1-2.8-1.1,4.7,4.7,0,0,1-1-3.2Zm1.4.2a3.2,3.2,0,0,0,.7,2.2,2,2,0,0,0,1.7.9,2.3,2.3,0,0,0,1.8-.9,4.3,4.3,0,0,0,.6-2.4,3.5,3.5,0,0,0-.7-2.3,2.2,2.2,0,0,0-3.4,0A3.7,3.7,0,0,0,183.2,177.9Z"/><path d="M196.5,181.2a3.3,3.3,0,0,1-2.5.9,2.8,2.8,0,0,1-2.1-.7,4,4,0,0,1-.7-2.4v-5.5h1.5V179c0,1.3.5,1.9,1.5,1.9a2.1,2.1,0,0,0,2.2-1.2v-6.2h1.5V182h-1.4Z"/><path d="M205,179.7a1.2,1.2,0,0,0-.4-.9,3.7,3.7,0,0,0-1.6-.5l-1.7-.6a2.7,2.7,0,0,1-1-.8,1.7,1.7,0,0,1-.3-1,2.3,2.3,0,0,1,.9-1.8,3.2,3.2,0,0,1,2.2-.7,3.6,3.6,0,0,1,2.4.7,2.5,2.5,0,0,1,.9,1.9h-1.5a1.1,1.1,0,0,0-.5-1,1.7,1.7,0,0,0-1.3-.4,2.1,2.1,0,0,0-1.2.3,1,1,0,0,0-.4.9.8.8,0,0,0,.4.8,6.4,6.4,0,0,0,1.5.5l1.7.6a2.3,2.3,0,0,1,1.4,1.9,2.2,2.2,0,0,1-1,1.9,3.9,3.9,0,0,1-2.3.6,4.8,4.8,0,0,1-1.8-.3,4,4,0,0,1-1.2-1,2.4,2.4,0,0,1-.5-1.4h1.5a1.1,1.1,0,0,0,.6,1.1,2,2,0,0,0,1.4.5,1.8,1.8,0,0,0,1.3-.4A1.1,1.1,0,0,0,205,179.7Z"/><path d="M213.9,182h-1.5V170h1.5Z"/><path d="M219.7,182.1a3.4,3.4,0,0,1-2.8-1.1,4.1,4.1,0,0,1-1.1-3v-.3a5.1,5.1,0,0,1,.5-2.2,3.2,3.2,0,0,1,3.2-2.1,3,3,0,0,1,2.6,1.1,4.6,4.6,0,0,1,.9,3.1v.6h-5.7a2.7,2.7,0,0,0,.7,2,2.3,2.3,0,0,0,1.8.8,2.8,2.8,0,0,0,1.3-.3l.9-.9.9.7A3.5,3.5,0,0,1,219.7,182.1Zm-.2-7.5a2,2,0,0,0-1.5.6,3,3,0,0,0-.7,1.8h4.2a2.2,2.2,0,0,0-.6-1.7A1.7,1.7,0,0,0,219.5,174.6Z"/><path d="M229.9,182a2,2,0,0,1-.2-.9,3.3,3.3,0,0,1-2.4,1,3,3,0,0,1-2.1-.7,2.2,2.2,0,0,1-.8-1.8,2.6,2.6,0,0,1,1-2,4.7,4.7,0,0,1,2.8-.7h1.4v-.7a1.6,1.6,0,0,0-.4-1.2,1.9,1.9,0,0,0-1.3-.5,2.2,2.2,0,0,0-1.3.4,1.2,1.2,0,0,0-.6,1h-1.4a1.9,1.9,0,0,1,.4-1.2,3.4,3.4,0,0,1,1.3-1,4.1,4.1,0,0,1,1.6-.3,3.2,3.2,0,0,1,2.3.7,2.5,2.5,0,0,1,.9,2V180a5,5,0,0,0,.3,1.9h-1.5Zm-2.4-1.1a2.2,2.2,0,0,0,1.3-.4,1.4,1.4,0,0,0,.8-.9v-1.7h-1.1c-1.8,0-2.6.5-2.6,1.5a1.2,1.2,0,0,0,.4,1.1A1.6,1.6,0,0,0,227.5,180.9Z"/><path d="M237.4,174.8h-.7a1.9,1.9,0,0,0-1.9,1.2v6h-1.4v-8.5h1.4v1a2.3,2.3,0,0,1,2-1.1h.6Z"/><path d="M240.1,173.5v1.1a3,3,0,0,1,2.5-1.2q2.7,0,2.7,3V182H244v-5.6a2.6,2.6,0,0,0-.4-1.4,2.2,2.2,0,0,0-1.3-.4,2,2,0,0,0-1.3.4,2.7,2.7,0,0,0-.8,1v6h-1.4v-8.5Z"/><path d="M251.1,182.1a3.6,3.6,0,0,1-2.8-1.1,4.1,4.1,0,0,1-1.1-3v-.3a5.1,5.1,0,0,1,.5-2.2,3.6,3.6,0,0,1,1.4-1.6,3.7,3.7,0,0,1,1.8-.5,3,3,0,0,1,2.6,1.1,4.6,4.6,0,0,1,.9,3.1v.6h-5.7a2.7,2.7,0,0,0,.7,2,2.5,2.5,0,0,0,1.8.8,2.8,2.8,0,0,0,1.3-.3l.9-.9.9.7A3.5,3.5,0,0,1,251.1,182.1Zm-.2-7.5a1.8,1.8,0,0,0-1.4.6,3,3,0,0,0-.8,1.8H253a3.4,3.4,0,0,0-.6-1.7A2,2,0,0,0,250.9,174.6Z"/><path d="M260.2,174.8h-.7a2,2,0,0,0-2,1.2v6h-1.4v-8.5h1.4v1a2.4,2.4,0,0,1,2-1.1h.7Z"/><path d="M265.7,183h-1.2l4.7-12.4h1.3Z"/><path d="M14.7,196.9a4.5,4.5,0,0,1,1-3.1,2.9,2.9,0,0,1,2.4-1.2,2.6,2.6,0,0,1,2.3,1v-4.4h1.5v12H20.5v-.9a3,3,0,0,1-2.4,1,2.9,2.9,0,0,1-2.4-1.2,5,5,0,0,1-1-3.1Zm1.5.2a3.6,3.6,0,0,0,.6,2.2,1.9,1.9,0,0,0,1.6.8,2.1,2.1,0,0,0,2-1.2V195a2.1,2.1,0,0,0-2-1.2,1.9,1.9,0,0,0-1.6.8A4.4,4.4,0,0,0,16.2,197.1Z"/><path d="M27.6,201.3a3.6,3.6,0,0,1-2.8-1.1,4,4,0,0,1-1-3v-.3a5.1,5.1,0,0,1,.4-2.2,4.4,4.4,0,0,1,1.4-1.6,3.7,3.7,0,0,1,1.8-.5,3,3,0,0,1,2.6,1.1,4.6,4.6,0,0,1,.9,3.1v.6H25.2a3.2,3.2,0,0,0,.7,2,2.5,2.5,0,0,0,1.8.8,2.8,2.8,0,0,0,1.3-.3,2.6,2.6,0,0,0,.9-.9l.9.7A3.5,3.5,0,0,1,27.6,201.3Zm-.2-7.5a2,2,0,0,0-1.4.6,3,3,0,0,0-.8,1.8h4.3a3.4,3.4,0,0,0-.6-1.7A2,2,0,0,0,27.4,193.8Z"/><path d="M34.6,190.7v2h1.5v1.2H34.6v5.2a1.1,1.1,0,0,0,.2.8,1,1,0,0,0,.7.2h.7v1.2H35.1a1.7,1.7,0,0,1-1.5-.5,2.9,2.9,0,0,1-.5-1.7v-5.2H31.6v-1.2h1.5v-2Z"/><path d="M43,201.2a5.1,5.1,0,0,0-.2-.9,3,3,0,0,1-2.4,1,2.7,2.7,0,0,1-2-.7,1.9,1.9,0,0,1-.8-1.8,2.3,2.3,0,0,1,1-2,4.7,4.7,0,0,1,2.8-.7h1.4v-.7a1.6,1.6,0,0,0-.4-1.2,2,2,0,0,0-1.4-.5,2.8,2.8,0,0,0-1.3.4,1.4,1.4,0,0,0-.5,1H37.8a1.9,1.9,0,0,1,.4-1.2,4,4,0,0,1,1.2-1,4.7,4.7,0,0,1,1.7-.3,3.3,3.3,0,0,1,2.3.7,2.9,2.9,0,0,1,.9,2v3.9a5,5,0,0,0,.3,1.9H43Zm-2.4-1.1a2,2,0,0,0,1.3-.4,2,2,0,0,0,.9-.9v-1.7H41.7q-2.7,0-2.7,1.5a1.3,1.3,0,0,0,.5,1.1A1.5,1.5,0,0,0,40.6,200.1Z"/><path d="M46.5,190.5a1.4,1.4,0,0,1,.2-.6.8.8,0,0,1,.7-.2c.3,0,.5,0,.6.2a1,1,0,0,1,0,1.2.8.8,0,0,1-.6.2l-.7-.2A1.4,1.4,0,0,1,46.5,190.5Zm1.6,10.7H46.6v-8.5h1.5Z"/><path d="M52,201.2H50.5v-12H52Z"/><path d="M57.3,196.9H53.5v-1.1h3.8Z"/><path d="M58.3,196.9a5.1,5.1,0,0,1,.5-2.2,3.6,3.6,0,0,1,1.4-1.6,3.9,3.9,0,0,1,2-.5,3.4,3.4,0,0,1,2.7,1.2A4.2,4.2,0,0,1,66,197h0a4.2,4.2,0,0,1-.5,2.2,3.7,3.7,0,0,1-1.3,1.5,3.5,3.5,0,0,1-2,.5,3.8,3.8,0,0,1-2.8-1.1,4.8,4.8,0,0,1-1.1-3.2Zm1.5.2a3.8,3.8,0,0,0,.6,2.2,2.1,2.1,0,0,0,1.8.9,2,2,0,0,0,1.7-.9,3.6,3.6,0,0,0,.7-2.4,3.5,3.5,0,0,0-.7-2.3,2.1,2.1,0,0,0-1.7-.8,2.3,2.3,0,0,0-1.8.8A4.4,4.4,0,0,0,59.8,197.1Z"/><path d="M71.9,194h-.7a1.9,1.9,0,0,0-1.9,1.2v6H67.8v-8.5h1.4v1a2.2,2.2,0,0,1,2-1.1h.6Z"/><path d="M73.3,190.5a.7.7,0,0,1,.2-.6c.1-.2.3-.2.6-.2s.5,0,.6.2a.7.7,0,0,1,0,1.2,1,1,0,0,1-1.2,0A.7.7,0,0,1,73.3,190.5Zm1.5,10.7H73.4v-8.5h1.4Z"/><path d="M80.6,201.3a3.7,3.7,0,0,1-2.8-1.1,4,4,0,0,1-1-3v-.3a5.1,5.1,0,0,1,.4-2.2,4.4,4.4,0,0,1,1.4-1.6,4.1,4.1,0,0,1,1.9-.5,2.8,2.8,0,0,1,2.5,1.1,4.6,4.6,0,0,1,.9,3.1v.6H78.2a3.2,3.2,0,0,0,.7,2,2.6,2.6,0,0,0,3.1.5,2.6,2.6,0,0,0,.9-.9l.9.7A3.5,3.5,0,0,1,80.6,201.3Zm-.1-7.5a2,2,0,0,0-1.5.6,2.5,2.5,0,0,0-.7,1.8h4.2a3.4,3.4,0,0,0-.6-1.7A1.8,1.8,0,0,0,80.5,193.8Z"/><path d="M87,192.7v1.1a3.2,3.2,0,0,1,2.5-1.2c1.8,0,2.7,1,2.8,3v5.6H90.8v-5.6a2,2,0,0,0-.4-1.4,2.2,2.2,0,0,0-1.3-.4,1.6,1.6,0,0,0-1.2.4,2.2,2.2,0,0,0-.9,1v6H85.6v-8.5Z"/><path d="M96.4,190.7v2H98v1.2H96.4v5.2a1.9,1.9,0,0,0,.2.8l.7.2H98v1.2H96.9a2,2,0,0,1-1.5-.5,2.9,2.9,0,0,1-.5-1.7v-5.2H93.4v-1.2h1.5v-2Z"/><path d="M103.2,201.3a3.4,3.4,0,0,1-2.8-1.1,3.7,3.7,0,0,1-1.1-3v-.3a4,4,0,0,1,.5-2.2,3.4,3.4,0,0,1,1.3-1.6,4.1,4.1,0,0,1,1.9-.5,2.8,2.8,0,0,1,2.5,1.1,4.1,4.1,0,0,1,1,3.1v.6h-5.8a3.3,3.3,0,0,0,.8,2,2.1,2.1,0,0,0,1.7.8,2.3,2.3,0,0,0,1.3-.3,4.3,4.3,0,0,0,1-.9l.9.7A3.6,3.6,0,0,1,103.2,201.3Zm-.2-7.5a2,2,0,0,0-1.5.6,3,3,0,0,0-.7,1.8H105a2.2,2.2,0,0,0-.6-1.7A1.7,1.7,0,0,0,103,193.8Z"/><path d="M107.8,196.9a5,5,0,0,1,.9-3.1,2.9,2.9,0,0,1,2.4-1.2,3,3,0,0,1,2.4,1v-4.4h1.4v12h-1.3v-.9a3,3,0,0,1-2.4,1,2.9,2.9,0,0,1-2.4-1.2,5,5,0,0,1-.9-3.1Zm1.4.2a3.6,3.6,0,0,0,.6,2.2,2.1,2.1,0,0,0,1.7.8,2.2,2.2,0,0,0,2-1.2V195a2.2,2.2,0,0,0-2-1.2,2.1,2.1,0,0,0-1.7.8A4.4,4.4,0,0,0,109.2,197.1Z"/></g></svg>