<svg xmlns="http://www.w3.org/2000/svg" width="300" height="300" viewBox="0 0 300 300"><g id="Layer_1" data-name="Layer 1"><rect width="300" height="300" fill="#e6e7e8"/></g><g id="Layer_3" data-name="Layer 3"><path d="M66.7,38V18.2h6.1a10.5,10.5,0,0,1,4.7,1.1,8.8,8.8,0,0,1,3.2,3.4,11,11,0,0,1,1.1,4.9v.9a10.2,10.2,0,0,1-1.1,5,8.5,8.5,0,0,1-3.2,3.3A9.4,9.4,0,0,1,72.8,38Zm4.1-16.5V34.7h1.9a4.3,4.3,0,0,0,3.7-1.6,7,7,0,0,0,1.3-4.4V27.6A7,7,0,0,0,76.4,23a4.3,4.3,0,0,0-3.6-1.5Z"/><path d="M96.7,29.4H88.9v5.3h9.2V38H84.8V18.2H98.1v3.3H88.9v4.7h7.8Z"/><path d="M110.8,32.8a2,2,0,0,0-.9-1.8,11.7,11.7,0,0,0-2.9-1.3,23.5,23.5,0,0,1-3.4-1.4c-2.2-1.2-3.3-2.8-3.3-4.9a4.7,4.7,0,0,1,.9-2.8,5.4,5.4,0,0,1,2.6-2,9.2,9.2,0,0,1,3.8-.7,7.9,7.9,0,0,1,3.8.8,5.8,5.8,0,0,1,2.5,2.1,5.3,5.3,0,0,1,1,3.2h-4.1a2.6,2.6,0,0,0-.9-2.1,3.6,3.6,0,0,0-2.4-.8,3.7,3.7,0,0,0-2.3.7,1.8,1.8,0,0,0-.8,1.6,2.1,2.1,0,0,0,.9,1.7,14.1,14.1,0,0,0,2.9,1.2,13.4,13.4,0,0,1,5.1,2.6,5.3,5.3,0,0,1,1.6,3.9,4.8,4.8,0,0,1-2,4,8.2,8.2,0,0,1-5.2,1.5,9.6,9.6,0,0,1-4.2-.9,6.6,6.6,0,0,1-2.9-2.3,6,6,0,0,1-.9-3.3h4.1c0,2.1,1.3,3.2,3.9,3.2a3.6,3.6,0,0,0,2.2-.6A1.8,1.8,0,0,0,110.8,32.8Z"/><path d="M122,38h-4.1V18.2H122Z"/><path d="M141.4,35.5a6.4,6.4,0,0,1-3.1,2,12.3,12.3,0,0,1-4.4.8,8.2,8.2,0,0,1-7.6-4.4,11.2,11.2,0,0,1-1-5V27.5a11.3,11.3,0,0,1,1-5.1,6.9,6.9,0,0,1,2.9-3.4,8.7,8.7,0,0,1,4.4-1.1,8.4,8.4,0,0,1,5.5,1.7,6.9,6.9,0,0,1,2.3,4.9h-3.9a3.9,3.9,0,0,0-1.2-2.5,4.2,4.2,0,0,0-2.6-.8,3.5,3.5,0,0,0-3.2,1.6,8,8,0,0,0-1.1,4.6v1.3a7.8,7.8,0,0,0,1.2,4.7,4.1,4.1,0,0,0,3.5,1.6,4.5,4.5,0,0,0,3.3-1V30.6h-3.8v-3h7.8Z"/><path d="M160.9,38h-4.1l-8-13.1V38h-4V18.2h4l8,13v-13h4.1Z"/><path d="M176.4,29.4h-7.9v5.3h9.2V38H164.4V18.2h13.3v3.3h-9.2v4.7h7.9Z"/><path d="M187.5,30.7h-3.3V38h-4.1V18.2h7.4a8.7,8.7,0,0,1,5.4,1.5,5.4,5.4,0,0,1,1.9,4.5,5.8,5.8,0,0,1-.9,3.3,5.2,5.2,0,0,1-2.6,2.2l4.3,8.1V38h-4.4Zm-3.3-3.3h3.3a3.2,3.2,0,0,0,2.4-.8,2.5,2.5,0,0,0,.8-2.1,2.6,2.6,0,0,0-.8-2.2,2.9,2.9,0,0,0-2.4-.8h-3.3Z"/><path d="M214,38h-3.9V22.8l-4.7,1.5V21.1l8.2-3h.4Z"/><path d="M233.4,23.4a4.7,4.7,0,0,1-.8,2.6,5.5,5.5,0,0,1-1.9,1.8,5.1,5.1,0,0,1,2.2,1.9,4.8,4.8,0,0,1,.9,2.9,5.1,5.1,0,0,1-1.8,4.1,8.3,8.3,0,0,1-9.8,0,5.1,5.1,0,0,1-1.8-4.1,5.5,5.5,0,0,1,.8-2.9,6,6,0,0,1,2.3-1.9,7,7,0,0,1-2-1.8,5.6,5.6,0,0,1-.7-2.6,5.1,5.1,0,0,1,1.7-4,6.7,6.7,0,0,1,4.6-1.5,6.9,6.9,0,0,1,4.6,1.5A5.1,5.1,0,0,1,233.4,23.4Zm-3.6,8.9a2.6,2.6,0,0,0-2.7-2.9,2.6,2.6,0,0,0-2,.8,2.9,2.9,0,0,0-.8,2.1,2.8,2.8,0,0,0,.8,2,2.9,2.9,0,0,0,4,0A2.6,2.6,0,0,0,229.8,32.3Zm-.4-8.7a2.6,2.6,0,0,0-.6-1.8,2.1,2.1,0,0,0-1.7-.7,2.4,2.4,0,0,0-1.7.6,2.9,2.9,0,0,0-.6,1.9,2.7,2.7,0,0,0,.6,1.9,2.2,2.2,0,0,0,3.4,0A2.7,2.7,0,0,0,229.4,23.6Z"/><path d="M16.6,77.5V87c0,1.6-.8,2.4-2.2,2.4h-.9V88.1h.6a1,1,0,0,0,.8-.3c.2-.2.2-.5.2-.9V77.5ZM15,75.3a1.4,1.4,0,0,1,.2-.6.7.7,0,0,1,.6-.2.8.8,0,0,1,.7.2,1,1,0,0,1,0,1.2l-.7.2-.6-.2A1.4,1.4,0,0,1,15,75.3Z"/><path d="M18.5,81.7a5.1,5.1,0,0,1,.5-2.2,3.6,3.6,0,0,1,1.4-1.6,4.2,4.2,0,0,1,2-.5,3.8,3.8,0,0,1,2.8,1.2,4.6,4.6,0,0,1,1,3.2h0a5.4,5.4,0,0,1-.4,2.2,5,5,0,0,1-1.4,1.5,3.5,3.5,0,0,1-2,.5A3.8,3.8,0,0,1,19.6,85a4.8,4.8,0,0,1-1.1-3.2Zm1.5.2a3.8,3.8,0,0,0,.6,2.2,2.3,2.3,0,0,0,1.8.9,2,2,0,0,0,1.7-.9,3.6,3.6,0,0,0,.7-2.4,3.5,3.5,0,0,0-.7-2.3,2.1,2.1,0,0,0-1.7-.8,2.5,2.5,0,0,0-1.8.8A4.4,4.4,0,0,0,20,81.9Z"/><path d="M35.2,81.9a5.2,5.2,0,0,1-.9,3.1,2.8,2.8,0,0,1-2.4,1.1A2.8,2.8,0,0,1,29.4,85v1H28V74h1.5v4.5a2.8,2.8,0,0,1,2.4-1.1,3,3,0,0,1,2.4,1.1,5.3,5.3,0,0,1,.9,3.2Zm-1.4-.2a3.7,3.7,0,0,0-.6-2.3,2,2,0,0,0-1.7-.8,2.2,2.2,0,0,0-2,1.3v3.7a2.1,2.1,0,0,0,2.1,1.3,1.8,1.8,0,0,0,1.6-.8A3.8,3.8,0,0,0,33.8,81.7Z"/><path d="M16.5,115.9v1a2.8,2.8,0,0,1,2.5-1.1,2.3,2.3,0,0,1,2.4,1.3,3.1,3.1,0,0,1,1.1-.9,2.9,2.9,0,0,1,1.6-.4c1.9,0,2.8,1,2.8,2.9v5.7H25.5v-5.6a1.7,1.7,0,0,0-.4-1.3,2,2,0,0,0-1.4-.5,1.9,1.9,0,0,0-1.3.5,1.9,1.9,0,0,0-.7,1.3v5.6H20.3v-5.5c0-1.3-.6-1.9-1.8-1.9a2,2,0,0,0-2,1.2v6.2H15.1v-8.5Z"/><path d="M28.7,120.1a5.1,5.1,0,0,1,.5-2.2,3.6,3.6,0,0,1,1.4-1.6,4.2,4.2,0,0,1,2-.5,3.6,3.6,0,0,1,2.8,1.2,4.6,4.6,0,0,1,1,3.2h0a5.4,5.4,0,0,1-.4,2.2,5,5,0,0,1-1.4,1.5,3.5,3.5,0,0,1-2,.5,3.8,3.8,0,0,1-2.8-1.1,4.8,4.8,0,0,1-1.1-3.2Zm1.5.2a3.8,3.8,0,0,0,.6,2.2,2.3,2.3,0,0,0,1.8.9,2,2,0,0,0,1.7-.9,3.6,3.6,0,0,0,.7-2.4,3.5,3.5,0,0,0-.7-2.3,2.1,2.1,0,0,0-1.7-.8,2.5,2.5,0,0,0-1.8.8A4.4,4.4,0,0,0,30.2,120.3Z"/><path d="M40.2,113.9v2h1.6v1.2H40.2v5.2a1.9,1.9,0,0,0,.2.8l.7.2h.7v1.2H40.7a1.6,1.6,0,0,1-1.4-.5,2.3,2.3,0,0,1-.5-1.7v-5.2H37.2v-1.2h1.6v-2Z"/><path d="M43.5,113.7a.7.7,0,0,1,.2-.6c.1-.2.3-.2.6-.2a.8.8,0,0,1,.7.2,1,1,0,0,1,0,1.2l-.7.2a.8.8,0,0,1-.6-.2A.7.7,0,0,1,43.5,113.7ZM45,124.4H43.6v-8.5H45Z"/><path d="M47,120.1a4,4,0,0,1,.5-2.2,3.4,3.4,0,0,1,1.3-1.6,4.6,4.6,0,0,1,2-.5,3.5,3.5,0,0,1,2.8,1.2,4.6,4.6,0,0,1,1.1,3.2h0a5.4,5.4,0,0,1-.5,2.2,4,4,0,0,1-1.4,1.5,3.1,3.1,0,0,1-2,.5,3.9,3.9,0,0,1-2.8-1.1,4.7,4.7,0,0,1-1-3.2Zm1.4.2a3.2,3.2,0,0,0,.7,2.2,2,2,0,0,0,1.7.9,2.1,2.1,0,0,0,1.8-.9,4.3,4.3,0,0,0,.6-2.4,4.1,4.1,0,0,0-.6-2.3,2.5,2.5,0,0,0-1.8-.8,2.1,2.1,0,0,0-1.7.8A3.7,3.7,0,0,0,48.4,120.3Z"/><path d="M57.8,115.9V117a3,3,0,0,1,2.5-1.2q2.7,0,2.7,3v5.6H61.7v-5.6a2.6,2.6,0,0,0-.4-1.4A2.2,2.2,0,0,0,60,117a1.6,1.6,0,0,0-1.2.4,2.2,2.2,0,0,0-.9,1v6H56.5v-8.5Z"/><path d="M69.6,125.4H68.3L73.1,113h1.2Z"/><path d="M79.8,113.7a1.4,1.4,0,0,1,.2-.6.8.8,0,0,1,.7-.2c.3,0,.5,0,.6.2a1,1,0,0,1,0,1.2l-.6.2-.7-.2A1.4,1.4,0,0,1,79.8,113.7Zm1.6,10.7H79.9v-8.5h1.5Z"/><path d="M85.3,124.4H83.8v-12h1.5Z"/><path d="M89.2,124.4H87.7v-12h1.5Z"/><path d="M96.7,123.6a3.3,3.3,0,0,1-2.5.9,2.4,2.4,0,0,1-2-.7,3.5,3.5,0,0,1-.8-2.4v-5.5h1.5v5.5c0,1.3.5,1.9,1.5,1.9a2.1,2.1,0,0,0,2.2-1.2v-6.2h1.5v8.5H96.7Z"/><path d="M105.2,122.1a1.2,1.2,0,0,0-.4-.9,3.7,3.7,0,0,0-1.6-.5l-1.7-.6a2.7,2.7,0,0,1-1-.8,1.7,1.7,0,0,1-.3-1,2.3,2.3,0,0,1,.9-1.8,3.3,3.3,0,0,1,2.3-.7,3.5,3.5,0,0,1,2.3.7,2.5,2.5,0,0,1,.9,1.9h-1.5a1.1,1.1,0,0,0-.5-1,1.6,1.6,0,0,0-1.2-.4,2.3,2.3,0,0,0-1.3.3,1,1,0,0,0-.4.9.8.8,0,0,0,.4.8l1.5.5,1.7.6a2.3,2.3,0,0,1,1.4,1.9,2.3,2.3,0,0,1-.9,1.9,4.5,4.5,0,0,1-2.4.6,4.8,4.8,0,0,1-1.8-.3,4,4,0,0,1-1.2-1,2.4,2.4,0,0,1-.5-1.4h1.5a1.1,1.1,0,0,0,.6,1.1,2,2,0,0,0,1.4.5,1.8,1.8,0,0,0,1.3-.4A1.1,1.1,0,0,0,105.2,122.1Z"/><path d="M110.5,113.9v2h1.6v1.2h-1.6v5.2a1.9,1.9,0,0,0,.2.8l.7.2h.7v1.2H111a2,2,0,0,1-1.5-.5,2.9,2.9,0,0,1-.4-1.7v-5.2h-1.6v-1.2h1.6v-2Z"/><path d="M117.9,117.2h-.8a2,2,0,0,0-1.9,1.2v6h-1.4v-8.5h1.4v1a2.3,2.3,0,0,1,2-1.1h.7Z"/><path d="M124.1,124.4a2,2,0,0,1-.2-.9,3.3,3.3,0,0,1-2.4,1,3,3,0,0,1-2.1-.7,2.2,2.2,0,0,1-.8-1.8,2.6,2.6,0,0,1,1-2,4.8,4.8,0,0,1,2.9-.7h1.4v-.7a1.7,1.7,0,0,0-.5-1.2,1.7,1.7,0,0,0-1.3-.5,2.5,2.5,0,0,0-1.3.4,1.1,1.1,0,0,0-.5,1h-1.5a1.9,1.9,0,0,1,.4-1.2,4.5,4.5,0,0,1,1.3-1,4.3,4.3,0,0,1,1.7-.3,3.1,3.1,0,0,1,2.2.7,2.5,2.5,0,0,1,.9,2v3.9a5,5,0,0,0,.3,1.9h-1.5Zm-2.4-1.1a2.2,2.2,0,0,0,1.3-.4,2,2,0,0,0,.9-.9v-1.7h-1.2c-1.7,0-2.6.5-2.6,1.5a1.2,1.2,0,0,0,.4,1.1A1.6,1.6,0,0,0,121.7,123.3Z"/><path d="M129.5,113.9v2h1.6v1.2h-1.6v5.2a1.9,1.9,0,0,0,.2.8,1.5,1.5,0,0,0,.8.2h.6v1.2H130a1.6,1.6,0,0,1-1.4-.5,2.9,2.9,0,0,1-.5-1.7v-5.2h-1.6v-1.2h1.6v-2Z"/><path d="M132.8,113.7a1.4,1.4,0,0,1,.2-.6.8.8,0,0,1,.7-.2c.2,0,.5,0,.6.2a1,1,0,0,1,0,1.2l-.6.2-.7-.2A1.4,1.4,0,0,1,132.8,113.7Zm1.6,10.7h-1.5v-8.5h1.5Z"/><path d="M136.3,120.1a5.1,5.1,0,0,1,.5-2.2,4.2,4.2,0,0,1,1.3-1.6,4.6,4.6,0,0,1,2-.5,3.5,3.5,0,0,1,2.8,1.2,4.6,4.6,0,0,1,1.1,3.2h0a5.4,5.4,0,0,1-.5,2.2,3.7,3.7,0,0,1-1.3,1.5,3.6,3.6,0,0,1-2.1.5,3.7,3.7,0,0,1-2.7-1.1,4.8,4.8,0,0,1-1.1-3.2Zm1.5.2a3.8,3.8,0,0,0,.6,2.2,2,2,0,0,0,1.7.9,2,2,0,0,0,1.8-.9,4.3,4.3,0,0,0,.6-2.4,4.1,4.1,0,0,0-.6-2.3,2.3,2.3,0,0,0-1.8-.8,2.1,2.1,0,0,0-1.7.8A4.4,4.4,0,0,0,137.8,120.3Z"/><path d="M147.2,115.9V117a3.2,3.2,0,0,1,2.6-1.2q2.5,0,2.7,3v5.6H151v-5.6a2,2,0,0,0-.4-1.4,2.2,2.2,0,0,0-1.3-.4,2.2,2.2,0,0,0-2,1.4v6h-1.5v-8.5Z"/><path d="M158.9,125.4h-1.3l4.8-12.4h1.2Z"/><path d="M176.3,120.3a5.2,5.2,0,0,1-.9,3.1,2.8,2.8,0,0,1-2.4,1.1,3.2,3.2,0,0,1-2.4-.9v4h-1.5V115.9h1.4v1a2.8,2.8,0,0,1,2.5-1.1,3,3,0,0,1,2.4,1.1,5.3,5.3,0,0,1,.9,3.2Zm-1.5-.2a3.9,3.9,0,0,0-.6-2.3,1.9,1.9,0,0,0-1.6-.8,2.1,2.1,0,0,0-2,1.2v4a2.1,2.1,0,0,0,2,1.2,1.8,1.8,0,0,0,1.6-.9A3.8,3.8,0,0,0,174.8,120.1Z"/><path d="M182.2,117.2h-.7a1.9,1.9,0,0,0-1.9,1.2v6h-1.5v-8.5h1.4v1a2.2,2.2,0,0,1,2-1.1h.6Z"/><path d="M183.5,113.7a.9.9,0,0,1,.3-.6c.1-.2.3-.2.6-.2s.5,0,.6.2a.7.7,0,0,1,0,1.2l-.6.2a.8.8,0,0,1-.6-.2A.9.9,0,0,1,183.5,113.7Zm1.6,10.7h-1.4v-8.5h1.4Z"/><path d="M188.8,115.9V117a3.2,3.2,0,0,1,2.6-1.2q2.7,0,2.7,3v5.6h-1.5v-5.6a2,2,0,0,0-.4-1.4,2.2,2.2,0,0,0-1.3-.4,1.9,1.9,0,0,0-1.2.4,2,2,0,0,0-.8,1v6h-1.5v-8.5Z"/><path d="M198.2,113.9v2h1.6v1.2h-1.6v5.2a1.9,1.9,0,0,0,.2.8l.7.2h.7v1.2h-1.1a1.6,1.6,0,0,1-1.4-.5,2.3,2.3,0,0,1-.5-1.7v-5.2h-1.6v-1.2h1.6v-2Z"/><path d="M20,160.5a1.2,1.2,0,0,0-.4-.9,3.7,3.7,0,0,0-1.6-.5l-1.7-.6a2.7,2.7,0,0,1-1-.8,1.7,1.7,0,0,1-.3-1,2.3,2.3,0,0,1,.9-1.8,3.3,3.3,0,0,1,2.3-.7,3.5,3.5,0,0,1,2.3.7,2.5,2.5,0,0,1,.9,1.9H19.9a1.1,1.1,0,0,0-.5-1,1.6,1.6,0,0,0-1.2-.4,2.3,2.3,0,0,0-1.3.3,1,1,0,0,0-.4.9.8.8,0,0,0,.4.8l1.5.5,1.7.6a2.1,2.1,0,0,1,1,.8,1.5,1.5,0,0,1,.4,1.1,2.3,2.3,0,0,1-.9,1.9,4.3,4.3,0,0,1-2.4.6,4.8,4.8,0,0,1-1.8-.3,4,4,0,0,1-1.2-1,2.4,2.4,0,0,1-.5-1.4h1.5a1.1,1.1,0,0,0,.6,1.1,2,2,0,0,0,1.4.5,1.7,1.7,0,0,0,1.3-.4A.9.9,0,0,0,20,160.5Z"/><path d="M25.3,152.3v2h1.6v1.2H25.3v5.2a1.9,1.9,0,0,0,.2.8l.7.2h.7v1.2H25.8a1.6,1.6,0,0,1-1.4-.5,2.3,2.3,0,0,1-.5-1.7v-5.2H22.3v-1.2h1.6v-2Z"/><path d="M32.7,155.6h-.8a2,2,0,0,0-1.9,1.2v6H28.6v-8.5H30v1a2.3,2.3,0,0,1,2-1.1h.7Z"/><path d="M38.9,162.8a2,2,0,0,1-.2-.9,3.3,3.3,0,0,1-2.4,1,3,3,0,0,1-2.1-.7,2.2,2.2,0,0,1-.8-1.8,2.6,2.6,0,0,1,1-2,4.8,4.8,0,0,1,2.9-.7h1.4V157a1.7,1.7,0,0,0-.5-1.2,1.7,1.7,0,0,0-1.3-.5,2.5,2.5,0,0,0-1.3.4,1.1,1.1,0,0,0-.5,1H33.6a2.1,2.1,0,0,1,.5-1.2,4,4,0,0,1,1.2-1,4.3,4.3,0,0,1,1.7-.3,3.5,3.5,0,0,1,2.3.7,2.8,2.8,0,0,1,.8,2v3.9a5,5,0,0,0,.3,1.9H38.9Zm-2.4-1.1a2.2,2.2,0,0,0,1.3-.4,2,2,0,0,0,.9-.9v-1.7H37.5c-1.7,0-2.6.5-2.6,1.5a1.2,1.2,0,0,0,.4,1.1A1.6,1.6,0,0,0,36.5,161.7Z"/><path d="M44.3,152.3v2h1.6v1.2H44.3v5.2a1.9,1.9,0,0,0,.2.8l.8.2H46v1.2H44.8a1.6,1.6,0,0,1-1.4-.5,2.9,2.9,0,0,1-.5-1.7v-5.2H41.4v-1.2h1.5v-2Z"/><path d="M51.1,162.9a3.6,3.6,0,0,1-2.8-1.1,4.1,4.1,0,0,1-1.1-3v-.3a5.1,5.1,0,0,1,.5-2.2,3.6,3.6,0,0,1,1.4-1.6,3.7,3.7,0,0,1,1.8-.5,3,3,0,0,1,2.6,1.1,4.6,4.6,0,0,1,.9,3.1v.6H48.7a2.7,2.7,0,0,0,.7,2,2.5,2.5,0,0,0,1.8.8,2.8,2.8,0,0,0,1.3-.3l.9-.9.9.7A3.5,3.5,0,0,1,51.1,162.9Zm-.2-7.5a1.8,1.8,0,0,0-1.4.6,3,3,0,0,0-.8,1.8H53a3.4,3.4,0,0,0-.6-1.7A2,2,0,0,0,50.9,155.4Z"/><path d="M55.7,158.5a5.3,5.3,0,0,1,.9-3.2,3.4,3.4,0,0,1,2.5-1.1,2.8,2.8,0,0,1,2.4,1.1v-1h1.3v8.3a3.4,3.4,0,0,1-1,2.6,3.6,3.6,0,0,1-2.6.9,3.9,3.9,0,0,1-1.8-.4,2.7,2.7,0,0,1-1.3-1l.7-.9a2.7,2.7,0,0,0,2.3,1.1,2.1,2.1,0,0,0,2.2-2.2v-.8a2.8,2.8,0,0,1-2.3,1,3,3,0,0,1-2.4-1.1A4.8,4.8,0,0,1,55.7,158.5Zm1.5.2a3.6,3.6,0,0,0,.6,2.2,1.9,1.9,0,0,0,1.6.8,2.1,2.1,0,0,0,2-1.2v-3.9a2.1,2.1,0,0,0-2-1.2,1.9,1.9,0,0,0-1.6.8A4.4,4.4,0,0,0,57.2,158.7Z"/><path d="M65.1,152.1a.7.7,0,0,1,.2-.6c.1-.2.3-.2.6-.2a.8.8,0,0,1,.7.2,1,1,0,0,1,0,1.2l-.7.2a.8.8,0,0,1-.6-.2A.7.7,0,0,1,65.1,152.1Zm1.5,10.7H65.2v-8.5h1.4Z"/><path d="M72.3,161.8a2.4,2.4,0,0,0,1.4-.5,1.4,1.4,0,0,0,.6-1.2h1.4a2.4,2.4,0,0,1-.5,1.4,4.3,4.3,0,0,1-1.2,1.1,5.1,5.1,0,0,1-1.7.3,3.3,3.3,0,0,1-2.7-1.1,4.6,4.6,0,0,1-1-3.2v-.2a5.1,5.1,0,0,1,.4-2.2,4.7,4.7,0,0,1,1.3-1.5,4.2,4.2,0,0,1,2-.5,3.6,3.6,0,0,1,2.4.8,3.5,3.5,0,0,1,1,2.2H74.3a1.6,1.6,0,0,0-.6-1.3,1.7,1.7,0,0,0-1.4-.5,1.9,1.9,0,0,0-1.7.8,3.7,3.7,0,0,0-.6,2.3v.2a3.7,3.7,0,0,0,.6,2.3A2.1,2.1,0,0,0,72.3,161.8Z"/><path d="M81.6,163.8H80.3l4.8-12.4h1.2Z"/><path d="M93.8,152.3v2h1.6v1.2H93.8v5.2a1.9,1.9,0,0,0,.2.8l.7.2h.7v1.2H94.3a2,2,0,0,1-1.5-.5,2.9,2.9,0,0,1-.5-1.7v-5.2H90.8v-1.2h1.5v-2Z"/><path d="M100.6,162.9a3.4,3.4,0,0,1-2.8-1.1,3.7,3.7,0,0,1-1.1-3v-.3a4,4,0,0,1,.5-2.2,3.4,3.4,0,0,1,1.3-1.6,4.1,4.1,0,0,1,1.9-.5,2.8,2.8,0,0,1,2.5,1.1,4.1,4.1,0,0,1,1,3.1v.6H98.1a3.3,3.3,0,0,0,.8,2,2.1,2.1,0,0,0,1.7.8,2.3,2.3,0,0,0,1.3-.3,4.3,4.3,0,0,0,1-.9l.9.7A3.6,3.6,0,0,1,100.6,162.9Zm-.2-7.5a2,2,0,0,0-1.5.6,3,3,0,0,0-.7,1.8h4.2a2.2,2.2,0,0,0-.6-1.7A1.7,1.7,0,0,0,100.4,155.4Z"/><path d="M110.8,162.8a4.6,4.6,0,0,1-.3-.9,3,3,0,0,1-2.4,1,2.7,2.7,0,0,1-2-.7,2.2,2.2,0,0,1-.8-1.8,2.3,2.3,0,0,1,1-2,4.7,4.7,0,0,1,2.8-.7h1.4V157a1.6,1.6,0,0,0-.4-1.2,2,2,0,0,0-1.4-.5,2.8,2.8,0,0,0-1.3.4,1.4,1.4,0,0,0-.5,1h-1.4a1.9,1.9,0,0,1,.4-1.2,4,4,0,0,1,1.2-1,4.7,4.7,0,0,1,1.7-.3,3.2,3.2,0,0,1,2.3.7,2.9,2.9,0,0,1,.9,2v3.9a5,5,0,0,0,.3,1.9h-1.5Zm-2.4-1.1a1.9,1.9,0,0,0,1.2-.4,2,2,0,0,0,.9-.9v-1.7h-1.1q-2.7,0-2.7,1.5a1.3,1.3,0,0,0,.5,1.1A1.6,1.6,0,0,0,108.4,161.7Z"/><path d="M115.6,154.3v1a3.1,3.1,0,0,1,2.5-1.1,2.6,2.6,0,0,1,2.5,1.3,2,2,0,0,1,1.1-.9,2.5,2.5,0,0,1,1.6-.4c1.8,0,2.7,1,2.8,2.9v5.7h-1.5v-5.6a1.7,1.7,0,0,0-.4-1.3,1.8,1.8,0,0,0-1.4-.5,1.9,1.9,0,0,0-1.3.5,1.5,1.5,0,0,0-.6,1.3v5.6h-1.5v-5.5c0-1.3-.6-1.9-1.8-1.9a1.9,1.9,0,0,0-1.9,1.2v6.2h-1.5v-8.5Z"/><path d="M131.3,158.5h-3.8v-1.1h3.8Z"/><path d="M132.3,158.5a5.1,5.1,0,0,1,.5-2.2,4.2,4.2,0,0,1,1.3-1.6,4.6,4.6,0,0,1,2-.5,3.5,3.5,0,0,1,2.8,1.2,4.6,4.6,0,0,1,1.1,3.2h0a5.4,5.4,0,0,1-.5,2.2,4.7,4.7,0,0,1-1.3,1.5,3.6,3.6,0,0,1-2.1.5,3.7,3.7,0,0,1-2.7-1.1,4.3,4.3,0,0,1-1.1-3.2Zm1.4.2a3.8,3.8,0,0,0,.7,2.2,2,2,0,0,0,1.7.9,2,2,0,0,0,1.8-.9,4.3,4.3,0,0,0,.6-2.4,4.1,4.1,0,0,0-.6-2.3,2.3,2.3,0,0,0-1.8-.8,2.1,2.1,0,0,0-1.7.8A4.4,4.4,0,0,0,133.7,158.7Z"/><path d="M145.9,155.6h-.7a2,2,0,0,0-2,1.2v6h-1.4v-8.5h1.4v1a2.4,2.4,0,0,1,2-1.1h.7Z"/><path d="M147.2,152.1a1.4,1.4,0,0,1,.2-.6.8.8,0,0,1,.7-.2c.3,0,.5,0,.6.2a1,1,0,0,1,0,1.2.8.8,0,0,1-.6.2l-.7-.2A1.4,1.4,0,0,1,147.2,152.1Zm1.6,10.7h-1.5v-8.5h1.5Z"/><path d="M154.6,162.9a3.6,3.6,0,0,1-2.8-1.1,4.1,4.1,0,0,1-1.1-3v-.3a5.1,5.1,0,0,1,.5-2.2,3.6,3.6,0,0,1,1.4-1.6,3.7,3.7,0,0,1,1.8-.5,3,3,0,0,1,2.6,1.1,4.6,4.6,0,0,1,.9,3.1v.6h-5.7a2.7,2.7,0,0,0,.7,2,2.5,2.5,0,0,0,1.8.8,2.8,2.8,0,0,0,1.3-.3l.9-.9.9.7A3.5,3.5,0,0,1,154.6,162.9Zm-.2-7.5a1.7,1.7,0,0,0-1.4.6,3,3,0,0,0-.8,1.8h4.3a3.4,3.4,0,0,0-.6-1.7A2,2,0,0,0,154.4,155.4Z"/><path d="M160.9,154.3v1.1a3,3,0,0,1,2.5-1.2q2.7,0,2.7,3v5.6h-1.4v-5.6a2.6,2.6,0,0,0-.4-1.4,2.2,2.2,0,0,0-1.3-.4,2,2,0,0,0-1.3.4,2.7,2.7,0,0,0-.8,1v6h-1.4v-8.5Z"/><path d="M170.4,152.3v2h1.5v1.2h-1.5v5.2a1.1,1.1,0,0,0,.2.8l.7.2h.7v1.2h-1.1a1.7,1.7,0,0,1-1.5-.5,2.9,2.9,0,0,1-.5-1.7v-5.2h-1.5v-1.2h1.5v-2Z"/><path d="M177.1,162.9a3.7,3.7,0,0,1-2.8-1.1,4,4,0,0,1-1-3v-.3a5.1,5.1,0,0,1,.4-2.2,4.4,4.4,0,0,1,1.4-1.6,4.1,4.1,0,0,1,1.9-.5,2.8,2.8,0,0,1,2.5,1.1,4.6,4.6,0,0,1,.9,3.1v.6h-5.7a3.2,3.2,0,0,0,.7,2,2.6,2.6,0,0,0,3.1.5,2.6,2.6,0,0,0,.9-.9l.9.7A3.4,3.4,0,0,1,177.1,162.9Zm-.1-7.5a2,2,0,0,0-1.5.6,2.5,2.5,0,0,0-.7,1.8H179a3.4,3.4,0,0,0-.6-1.7A1.8,1.8,0,0,0,177,155.4Z"/><path d="M181.8,158.5a5,5,0,0,1,.9-3.1,2.9,2.9,0,0,1,2.4-1.2,2.6,2.6,0,0,1,2.3,1v-4.4h1.5v12h-1.3v-.9a3,3,0,0,1-2.4,1,2.9,2.9,0,0,1-2.4-1.2,5,5,0,0,1-.9-3.1Zm1.4.2a3.6,3.6,0,0,0,.6,2.2,1.9,1.9,0,0,0,1.6.8,2.1,2.1,0,0,0,2-1.2v-3.9a2.1,2.1,0,0,0-2-1.2,1.9,1.9,0,0,0-1.6.8A4.4,4.4,0,0,0,183.2,158.7Z"/><path d="M195.4,163.8h-1.3l4.8-12.4h1.2Z"/><path d="M210.9,162.8a2,2,0,0,1-.2-.9,3.3,3.3,0,0,1-2.5,1,2.7,2.7,0,0,1-2-.7,2.2,2.2,0,0,1-.8-1.8,2.3,2.3,0,0,1,1-2,4.7,4.7,0,0,1,2.8-.7h1.4V157a1.6,1.6,0,0,0-.4-1.2,2,2,0,0,0-1.4-.5,2.8,2.8,0,0,0-1.3.4,1.4,1.4,0,0,0-.5,1h-1.4a1.9,1.9,0,0,1,.4-1.2,4,4,0,0,1,1.2-1,5.1,5.1,0,0,1,1.7-.3,3.2,3.2,0,0,1,2.3.7,2.5,2.5,0,0,1,.9,2v3.9a5,5,0,0,0,.3,1.9h-1.5Zm-2.4-1.1a2.4,2.4,0,0,0,1.3-.4,1.4,1.4,0,0,0,.8-.9v-1.7h-1.1q-2.7,0-2.7,1.5a1.3,1.3,0,0,0,.5,1.1A1.6,1.6,0,0,0,208.5,161.7Z"/><path d="M215.9,162.8h-1.4v-12h1.4Z"/><path d="M220.2,152.3v2h1.6v1.2h-1.6v5.2a1.9,1.9,0,0,0,.2.8l.7.2h.7v1.2h-1.1a2,2,0,0,1-1.5-.5,2.9,2.9,0,0,1-.5-1.7v-5.2h-1.5v-1.2h1.5v-2Z"/><path d="M227.5,155.6h-.7a1.9,1.9,0,0,0-1.9,1.2v6h-1.4v-8.5h1.4v1a2.3,2.3,0,0,1,2-1.1h.6Z"/><path d="M234.1,162a3.3,3.3,0,0,1-2.5.9,2.4,2.4,0,0,1-2-.7,3.5,3.5,0,0,1-.8-2.4v-5.5h1.5v5.5c0,1.3.5,1.9,1.5,1.9a2.1,2.1,0,0,0,2.2-1.2v-6.2h1.5v8.5h-1.4Z"/><path d="M237.7,152.1a1.4,1.4,0,0,1,.2-.6.7.7,0,0,1,.6-.2.8.8,0,0,1,.7.2,1,1,0,0,1,0,1.2l-.7.2-.6-.2A1.4,1.4,0,0,1,237.7,152.1Zm1.6,10.7h-1.5v-8.5h1.5Z"/><path d="M246.5,160.5a1.8,1.8,0,0,0-.4-.9,4.3,4.3,0,0,0-1.6-.5l-1.7-.6a2.1,2.1,0,0,1-1-.8,1.7,1.7,0,0,1-.3-1,2.3,2.3,0,0,1,.9-1.8,3.2,3.2,0,0,1,2.2-.7,3.6,3.6,0,0,1,2.4.7,2.5,2.5,0,0,1,.9,1.9h-1.5a1.4,1.4,0,0,0-.5-1,1.8,1.8,0,0,0-1.3-.4,2.1,2.1,0,0,0-1.2.3,1,1,0,0,0-.4.9.8.8,0,0,0,.4.8,4.1,4.1,0,0,0,1.5.5l1.7.6a2.1,2.1,0,0,1,1,.8,2,2,0,0,1,.3,1.1,2.3,2.3,0,0,1-.9,1.9,4.1,4.1,0,0,1-2.3.6,4.8,4.8,0,0,1-1.8-.3,4,4,0,0,1-1.2-1,2.4,2.4,0,0,1-.5-1.4h1.5a1.3,1.3,0,0,0,.5,1.1,2.5,2.5,0,0,0,1.5.5,1.8,1.8,0,0,0,1.3-.4A1.1,1.1,0,0,0,246.5,160.5Z"/><path d="M251.8,152.3v2h1.6v1.2h-1.6v5.2a1.9,1.9,0,0,0,.2.8l.7.2h.7v1.2h-1.1a1.8,1.8,0,0,1-1.5-.5,2.9,2.9,0,0,1-.5-1.7v-5.2h-1.5v-1.2h1.5v-2Z"/><path d="M255.1,152.1a.7.7,0,0,1,.2-.6c.1-.2.3-.2.6-.2s.5,0,.6.2a.7.7,0,0,1,0,1.2l-.6.2a.8.8,0,0,1-.6-.2A.7.7,0,0,1,255.1,152.1Zm1.5,10.7h-1.4v-8.5h1.4Z"/><path d="M262.3,161.8a2.4,2.4,0,0,0,1.4-.5,1.4,1.4,0,0,0,.6-1.2h1.4a2.4,2.4,0,0,1-.5,1.4,3.6,3.6,0,0,1-1.3,1.1,4.1,4.1,0,0,1-1.6.3,3.3,3.3,0,0,1-2.7-1.1,4.6,4.6,0,0,1-1-3.2v-.2a5.1,5.1,0,0,1,.4-2.2,3.7,3.7,0,0,1,1.3-1.5,4.2,4.2,0,0,1,2-.5,3.8,3.8,0,0,1,2.4.8,3.5,3.5,0,0,1,1,2.2h-1.4a1.6,1.6,0,0,0-.6-1.3,1.7,1.7,0,0,0-1.4-.5,1.9,1.9,0,0,0-1.7.8,3.7,3.7,0,0,0-.6,2.3v.2a3.7,3.7,0,0,0,.6,2.3A2.1,2.1,0,0,0,262.3,161.8Z"/><path d="M271.6,163.8h-1.3l4.8-12.4h1.2Z"/><path d="M18.5,181a1.9,1.9,0,0,0,1.3-.5,1.9,1.9,0,0,0,.7-1.2h1.3a1.9,1.9,0,0,1-.5,1.4,4.3,4.3,0,0,1-1.2,1.1,4.1,4.1,0,0,1-1.6.3,3.4,3.4,0,0,1-2.8-1.1,5.1,5.1,0,0,1-1-3.2v-.2a5.1,5.1,0,0,1,.5-2.2,3.7,3.7,0,0,1,1.3-1.5,3.9,3.9,0,0,1,2-.5,3.6,3.6,0,0,1,2.3.8,2.7,2.7,0,0,1,1,2.2H20.5a2.6,2.6,0,0,0-.6-1.3,1.9,1.9,0,0,0-1.4-.5,1.8,1.8,0,0,0-1.7.8,3.7,3.7,0,0,0-.6,2.3v.2a3.7,3.7,0,0,0,.6,2.3A2,2,0,0,0,18.5,181Z"/><path d="M23.1,177.7a4,4,0,0,1,.5-2.2,4.2,4.2,0,0,1,1.3-1.6,4.6,4.6,0,0,1,2-.5,3.5,3.5,0,0,1,2.8,1.2,4.6,4.6,0,0,1,1.1,3.2h0a5.4,5.4,0,0,1-.5,2.2,4.7,4.7,0,0,1-1.3,1.5,3.6,3.6,0,0,1-2.1.5,3.7,3.7,0,0,1-2.7-1.1,4.3,4.3,0,0,1-1.1-3.2Zm1.4.2a3.8,3.8,0,0,0,.7,2.2,2,2,0,0,0,1.7.9,2,2,0,0,0,1.8-.9,4.3,4.3,0,0,0,.6-2.4,4.1,4.1,0,0,0-.6-2.3,2.3,2.3,0,0,0-1.8-.8,2.1,2.1,0,0,0-1.7.8A4.4,4.4,0,0,0,24.5,177.9Z"/><path d="M34,173.5v1a2.8,2.8,0,0,1,2.5-1.1,2.3,2.3,0,0,1,2.4,1.3,3.1,3.1,0,0,1,1.1-.9,2.9,2.9,0,0,1,1.6-.4c1.9,0,2.8,1,2.8,2.9V182H43v-5.6a1.7,1.7,0,0,0-.4-1.3,2,2,0,0,0-1.4-.5,1.9,1.9,0,0,0-1.3.5,1.9,1.9,0,0,0-.7,1.3V182H37.8v-5.5c0-1.3-.6-1.9-1.8-1.9a2,2,0,0,0-2,1.2V182H32.6v-8.5Z"/><path d="M48,173.5v1a3,3,0,0,1,2.5-1.1,2.3,2.3,0,0,1,2.4,1.3,3.1,3.1,0,0,1,1.1-.9,2.9,2.9,0,0,1,1.6-.4c1.9,0,2.8,1,2.9,2.9V182H57v-5.6a1.7,1.7,0,0,0-.4-1.3,1.8,1.8,0,0,0-1.4-.5,1.9,1.9,0,0,0-1.3.5,1.5,1.5,0,0,0-.6,1.3V182H51.8v-5.5c0-1.3-.6-1.9-1.8-1.9a1.9,1.9,0,0,0-1.9,1.2V182H46.6v-8.5Z"/><path d="M65.9,181.2a3.3,3.3,0,0,1-2.5.9,2.8,2.8,0,0,1-2.1-.7,4,4,0,0,1-.7-2.4v-5.5h1.5V179c0,1.3.5,1.9,1.5,1.9a2.1,2.1,0,0,0,2.2-1.2v-6.2h1.5V182H65.9Z"/><path d="M70.8,173.5v1.1a3,3,0,0,1,2.5-1.2q2.7,0,2.7,3V182H74.7v-5.6a2,2,0,0,0-.5-1.4,1.9,1.9,0,0,0-1.2-.4,2,2,0,0,0-1.3.4,2.7,2.7,0,0,0-.8,1v6H69.5v-8.5Z"/><path d="M78.3,171.3a1.4,1.4,0,0,1,.2-.6.7.7,0,0,1,.6-.2.8.8,0,0,1,.7.2,1,1,0,0,1,0,1.2l-.7.2-.6-.2A1.4,1.4,0,0,1,78.3,171.3ZM79.9,182H78.4v-8.5h1.5Z"/><path d="M85.6,181a2.1,2.1,0,0,0,1.3-.5,1.9,1.9,0,0,0,.7-1.2h1.3a2.4,2.4,0,0,1-.5,1.4,4.3,4.3,0,0,1-1.2,1.1,4.5,4.5,0,0,1-1.6.3,3.4,3.4,0,0,1-2.8-1.1,4.6,4.6,0,0,1-1-3.2v-.2a4,4,0,0,1,.5-2.2,3.7,3.7,0,0,1,1.3-1.5,3.9,3.9,0,0,1,2-.5,3.6,3.6,0,0,1,2.3.8,3,3,0,0,1,1,2.2H87.6a2.1,2.1,0,0,0-.7-1.3,1.5,1.5,0,0,0-1.3-.5,2.1,2.1,0,0,0-1.8.8,3.7,3.7,0,0,0-.6,2.3v.2a3.7,3.7,0,0,0,.6,2.3A2.2,2.2,0,0,0,85.6,181Z"/><path d="M95.8,182a2,2,0,0,1-.2-.9,3.3,3.3,0,0,1-2.4,1,2.8,2.8,0,0,1-2.1-.7,2.2,2.2,0,0,1-.8-1.8,2.3,2.3,0,0,1,1-2,4.7,4.7,0,0,1,2.8-.7h1.4v-.7a1.6,1.6,0,0,0-.4-1.2,1.9,1.9,0,0,0-1.3-.5,2.2,2.2,0,0,0-1.3.4,1.2,1.2,0,0,0-.6,1H90.5a1.9,1.9,0,0,1,.4-1.2,4,4,0,0,1,1.2-1,5.1,5.1,0,0,1,1.7-.3,3.2,3.2,0,0,1,2.3.7,2.5,2.5,0,0,1,.9,2V180a5,5,0,0,0,.3,1.9H95.8Zm-2.4-1.1a2.2,2.2,0,0,0,1.3-.4,1.4,1.4,0,0,0,.8-.9v-1.7H94.4c-1.8,0-2.6.5-2.6,1.5a1.2,1.2,0,0,0,.4,1.1A1.6,1.6,0,0,0,93.4,180.9Z"/><path d="M101.2,171.5v2h1.6v1.2h-1.6v5.2a1.9,1.9,0,0,0,.2.8l.7.2h.7V182h-1.1a1.6,1.6,0,0,1-1.4-.5,2.3,2.3,0,0,1-.5-1.7v-5.2H98.2v-1.2h1.6v-2Z"/><path d="M104.5,171.3a1.4,1.4,0,0,1,.2-.6c.1-.2.4-.2.6-.2a.8.8,0,0,1,.7.2,1,1,0,0,1,0,1.2l-.7.2-.6-.2A1.4,1.4,0,0,1,104.5,171.3ZM106,182h-1.4v-8.5H106Z"/><path d="M111.1,180l2.1-6.5h1.5l-3,8.5h-1.1l-3.1-8.5H109Z"/><path d="M119.5,182.1a3.6,3.6,0,0,1-2.8-1.1,4.1,4.1,0,0,1-1.1-3v-.3a5.1,5.1,0,0,1,.5-2.2,3.6,3.6,0,0,1,1.4-1.6,3.7,3.7,0,0,1,1.8-.5,3,3,0,0,1,2.6,1.1,4.6,4.6,0,0,1,.9,3.1v.6h-5.7a3.2,3.2,0,0,0,.7,2,2.5,2.5,0,0,0,1.8.8,2.8,2.8,0,0,0,1.3-.3c.3-.3.7-.5.9-.9l.9.7A3.5,3.5,0,0,1,119.5,182.1Zm-.2-7.5a2,2,0,0,0-1.4.6,3,3,0,0,0-.8,1.8h4.3a3.4,3.4,0,0,0-.6-1.7A2,2,0,0,0,119.3,174.6Z"/><path d="M128.7,183h-1.2l4.7-12.4h1.3Z"/><path d="M142.4,181a1.9,1.9,0,0,0,1.3-.5,1.9,1.9,0,0,0,.7-1.2h1.4a3.4,3.4,0,0,1-.5,1.4,6.9,6.9,0,0,1-1.3,1.1,4.1,4.1,0,0,1-1.6.3,3.4,3.4,0,0,1-2.8-1.1,5.1,5.1,0,0,1-1-3.2v-.2a5.1,5.1,0,0,1,.5-2.2,3.7,3.7,0,0,1,1.3-1.5,3.9,3.9,0,0,1,2-.5,3.6,3.6,0,0,1,2.3.8,3.1,3.1,0,0,1,1.1,2.2h-1.4a2.6,2.6,0,0,0-.6-1.3,1.9,1.9,0,0,0-1.4-.5,1.8,1.8,0,0,0-1.7.8,3.7,3.7,0,0,0-.6,2.3v.2a3.7,3.7,0,0,0,.6,2.3A2,2,0,0,0,142.4,181Z"/><path d="M147,177.7a5.1,5.1,0,0,1,.5-2.2,4.2,4.2,0,0,1,1.3-1.6,4.6,4.6,0,0,1,2-.5,3.5,3.5,0,0,1,2.8,1.2,4.6,4.6,0,0,1,1.1,3.2h0a5.4,5.4,0,0,1-.5,2.2,4.7,4.7,0,0,1-1.3,1.5,3.6,3.6,0,0,1-2.1.5,3.7,3.7,0,0,1-2.7-1.1,4.3,4.3,0,0,1-1.1-3.2Zm1.4.2a3.8,3.8,0,0,0,.7,2.2,2,2,0,0,0,1.7.9,2,2,0,0,0,1.8-.9,4.3,4.3,0,0,0,.6-2.4,4.1,4.1,0,0,0-.6-2.3,2.3,2.3,0,0,0-1.8-.8,2.1,2.1,0,0,0-1.7.8A4.4,4.4,0,0,0,148.4,177.9Z"/><path d="M157.9,173.5v1.1a3.2,3.2,0,0,1,2.5-1.2q2.7,0,2.7,3V182h-1.4v-5.6a2,2,0,0,0-.4-1.4,2.2,2.2,0,0,0-1.3-.4,1.6,1.6,0,0,0-1.2.4,2.2,2.2,0,0,0-.9,1v6h-1.4v-8.5Z"/><path d="M170.2,179.7a1.2,1.2,0,0,0-.4-.9,3.7,3.7,0,0,0-1.5-.5l-1.8-.6a2.4,2.4,0,0,1-.9-.8,1.7,1.7,0,0,1-.3-1,2.5,2.5,0,0,1,.8-1.8,4.1,4.1,0,0,1,4.6,0,2.5,2.5,0,0,1,.9,1.9h-1.4a1.4,1.4,0,0,0-.5-1,2,2,0,0,0-1.3-.4,2.1,2.1,0,0,0-1.2.3,1.1,1.1,0,0,0-.5.9.8.8,0,0,0,.4.8,6.4,6.4,0,0,0,1.5.5l1.8.6a2.7,2.7,0,0,1,1,.8,2,2,0,0,1,.3,1.1,2.3,2.3,0,0,1-.9,1.9,4.3,4.3,0,0,1-2.4.6l-1.8-.3a4,4,0,0,1-1.2-1,2.3,2.3,0,0,1-.4-1.4h1.4a1.1,1.1,0,0,0,.6,1.1,2.2,2.2,0,0,0,1.4.5,2.1,2.1,0,0,0,1.4-.4A1,1,0,0,0,170.2,179.7Z"/><path d="M177,181a2.1,2.1,0,0,0,1.3-.5,1.9,1.9,0,0,0,.7-1.2h1.3a2.4,2.4,0,0,1-.5,1.4,4.3,4.3,0,0,1-1.2,1.1,4.5,4.5,0,0,1-1.6.3,3.4,3.4,0,0,1-2.8-1.1,4.6,4.6,0,0,1-1-3.2v-.2a5.1,5.1,0,0,1,.5-2.2,3.7,3.7,0,0,1,1.3-1.5,3.9,3.9,0,0,1,2-.5,3.6,3.6,0,0,1,2.3.8,2.7,2.7,0,0,1,1,2.2H179a2.1,2.1,0,0,0-.7-1.3,1.5,1.5,0,0,0-1.3-.5,1.8,1.8,0,0,0-1.7.8,3.7,3.7,0,0,0-.7,2.3v.2a3.7,3.7,0,0,0,.6,2.3A2.3,2.3,0,0,0,177,181Z"/><path d="M182,171.3a.7.7,0,0,1,.2-.6c.1-.2.3-.2.6-.2a.8.8,0,0,1,.7.2,1,1,0,0,1,0,1.2l-.7.2-.6-.2A.7.7,0,0,1,182,171.3Zm1.5,10.7h-1.4v-8.5h1.4Z"/><path d="M189.3,182.1a3.7,3.7,0,0,1-2.8-1.1,4,4,0,0,1-1-3v-.3a5.1,5.1,0,0,1,.4-2.2,4.4,4.4,0,0,1,1.4-1.6,4.1,4.1,0,0,1,1.9-.5,2.8,2.8,0,0,1,2.5,1.1,4.6,4.6,0,0,1,.9,3.1v.6h-5.7a3.2,3.2,0,0,0,.7,2,2.6,2.6,0,0,0,3.1.5,2.6,2.6,0,0,0,.9-.9l.9.7A3.4,3.4,0,0,1,189.3,182.1Zm-.1-7.5a2,2,0,0,0-1.5.6,3,3,0,0,0-.7,1.8h4.2a2.2,2.2,0,0,0-.6-1.7A1.8,1.8,0,0,0,189.2,174.6Z"/><path d="M195.7,173.5v1.1a3.2,3.2,0,0,1,2.6-1.2q2.5,0,2.7,3V182h-1.5v-5.6a2,2,0,0,0-.4-1.4,2.2,2.2,0,0,0-1.3-.4,1.7,1.7,0,0,0-1.2.4,2,2,0,0,0-.8,1v6h-1.5v-8.5Z"/><path d="M205.1,171.5v2h1.6v1.2h-1.6v5.2a1.9,1.9,0,0,0,.2.8l.7.2h.7V182h-1.1a2,2,0,0,1-1.5-.5,2.9,2.9,0,0,1-.4-1.7v-5.2h-1.6v-1.2h1.6v-2Z"/><path d="M208.4,171.3a.7.7,0,0,1,.2-.6c.1-.2.3-.2.6-.2a.8.8,0,0,1,.7.2,1,1,0,0,1,0,1.2l-.7.2-.6-.2A.7.7,0,0,1,208.4,171.3Zm1.5,10.7h-1.4v-8.5h1.4Z"/><path d="M211.9,177.7a4,4,0,0,1,.5-2.2,3.4,3.4,0,0,1,1.3-1.6,4.6,4.6,0,0,1,2-.5,3.5,3.5,0,0,1,2.8,1.2,4.6,4.6,0,0,1,1.1,3.2h0a5.4,5.4,0,0,1-.5,2.2,4,4,0,0,1-1.4,1.5,3.1,3.1,0,0,1-2,.5,3.9,3.9,0,0,1-2.8-1.1,4.7,4.7,0,0,1-1-3.2Zm1.4.2a3.2,3.2,0,0,0,.7,2.2,2,2,0,0,0,1.7.9,2.1,2.1,0,0,0,1.8-.9,4.3,4.3,0,0,0,.6-2.4,4.1,4.1,0,0,0-.6-2.3,2.5,2.5,0,0,0-1.8-.8,2.1,2.1,0,0,0-1.7.8A3.7,3.7,0,0,0,213.3,177.9Z"/><path d="M226.6,181.2a3.3,3.3,0,0,1-2.5.9,2.4,2.4,0,0,1-2-.7,3.5,3.5,0,0,1-.8-2.4v-5.5h1.5V179c0,1.3.5,1.9,1.6,1.9a2.2,2.2,0,0,0,2.2-1.2v-6.2H228V182h-1.4Z"/><path d="M235.1,179.7a1.2,1.2,0,0,0-.4-.9,3.7,3.7,0,0,0-1.6-.5l-1.7-.6a2.7,2.7,0,0,1-1-.8,1.7,1.7,0,0,1-.3-1,2.3,2.3,0,0,1,.9-1.8,3.3,3.3,0,0,1,2.3-.7,3.5,3.5,0,0,1,2.3.7,2.5,2.5,0,0,1,.9,1.9H235a1.1,1.1,0,0,0-.5-1,1.6,1.6,0,0,0-1.2-.4,2.3,2.3,0,0,0-1.3.3,1,1,0,0,0-.4.9.8.8,0,0,0,.4.8,6.4,6.4,0,0,0,1.5.5l1.7.6a2.1,2.1,0,0,1,1,.8,1.5,1.5,0,0,1,.4,1.1,2.3,2.3,0,0,1-.9,1.9,4.3,4.3,0,0,1-2.4.6,4.8,4.8,0,0,1-1.8-.3,4,4,0,0,1-1.2-1,2.4,2.4,0,0,1-.5-1.4h1.5a1.1,1.1,0,0,0,.6,1.1,2,2,0,0,0,1.4.5,1.7,1.7,0,0,0,1.3-.4A.9.9,0,0,0,235.1,179.7Z"/></g></svg>